<?xml version="1.0" encoding="utf-8"?>
<!-- Generator: Adobe Illustrator 26.0.1, SVG Export Plug-In . SVG Version: 6.00 Build 0)  -->
<svg version="1.1" id="Layer_1" xmlns="http://www.w3.org/2000/svg" xmlns:xlink="http://www.w3.org/1999/xlink" x="0px" y="0px"
	 viewBox="0 0 168.89 49.61" style="enable-background:new 0 0 168.89 49.61;" xml:space="preserve">
<style type="text/css">
	.st0{enable-background:new    ;}
	.st1{fill:#FFFFFF;}
</style>
<g class="st0">
	<path class="st1" d="M12.55,13.01h9.05L34.1,49.1H24.04l-2.19-7.06h-9.61l-2.13,7.06H0L12.55,13.01z M20.28,35.43l-3.2-11.18
		l-3.35,11.18H20.28z M20.03,11.49l-6.1-1.63l2.54-7.22h8.59L20.03,11.49z"/>
	<path class="st1" d="M53.62,30.6c-1.86,0-3.56,0.2-5.08,0.61s-2.66,1.08-3.41,2.03V49.1h-9.66V22.36h8.84v5.08
		c0.95-1.8,2.13-3.18,3.53-4.14c1.41-0.97,2.92-1.45,4.55-1.45c0.64,0,1.05,0.02,1.22,0.05V30.6z"/>
	<path class="st1" d="M63.23,49.61c-1.32,0-2.56-0.22-3.71-0.66c-1.15-0.44-2.14-1.04-2.97-1.8c-0.83-0.76-1.48-1.67-1.96-2.72
		c-0.48-1.05-0.71-2.19-0.71-3.41c0-1.36,0.29-2.59,0.86-3.71c0.58-1.12,1.37-2.08,2.39-2.9c1.02-0.81,2.23-1.44,3.63-1.88
		c1.41-0.44,2.96-0.66,4.65-0.66c2.17,0,3.96,0.34,5.39,1.02v-0.81c0-1.25-0.36-2.19-1.09-2.8c-0.73-0.61-1.91-0.92-3.53-0.92
		c-1.52,0-2.93,0.25-4.22,0.74c-1.29,0.49-2.64,1.21-4.07,2.16l-2.8-6c3.52-2.27,7.54-3.41,12.05-3.41c4.27,0,7.56,0.95,9.86,2.85
		c2.3,1.9,3.46,4.74,3.46,8.54v5.18c0,0.92,0.13,1.55,0.41,1.91c0.27,0.36,0.75,0.57,1.42,0.64v8.13c-0.78,0.17-1.52,0.3-2.21,0.38
		c-0.69,0.08-1.31,0.13-1.85,0.13c-1.73,0-3.04-0.31-3.94-0.94c-0.9-0.63-1.48-1.55-1.75-2.77l-0.2-0.97
		c-1.19,1.53-2.56,2.69-4.12,3.48C66.65,49.21,64.99,49.61,63.23,49.61z M66.12,42.69c0.58,0,1.17-0.09,1.78-0.28
		c0.61-0.19,1.15-0.43,1.63-0.74c0.37-0.27,0.68-0.57,0.92-0.89c0.24-0.32,0.36-0.65,0.36-0.99v-1.98c-0.58-0.2-1.2-0.37-1.88-0.51
		c-0.68-0.13-1.29-0.2-1.83-0.2c-1.19,0-2.17,0.29-2.95,0.86c-0.78,0.58-1.17,1.3-1.17,2.19c0,0.75,0.3,1.36,0.89,1.83
		C64.45,42.46,65.21,42.69,66.12,42.69z"/>
	<path class="st1" d="M101.85,49.61c-4.03,0-6.91-1.56-8.64-4.68v4.17h-8.39V18h9.66v8.33c0.78-1.46,1.88-2.57,3.3-3.33
		c1.42-0.76,3.1-1.14,5.03-1.14c1.63,0,3.14,0.36,4.55,1.07c1.41,0.71,2.62,1.69,3.63,2.92c1.02,1.24,1.81,2.71,2.39,4.42
		c0.58,1.71,0.86,3.57,0.86,5.57c0,2-0.31,3.84-0.94,5.51c-0.63,1.68-1.49,3.13-2.59,4.35c-1.1,1.22-2.41,2.18-3.94,2.87
		C105.26,49.26,103.62,49.61,101.85,49.61z M99.06,41.48c1.59,0,2.87-0.51,3.84-1.52s1.45-2.37,1.45-4.07
		c0-0.81-0.13-1.58-0.38-2.29c-0.25-0.71-0.59-1.34-1.02-1.88c-0.42-0.54-0.93-0.97-1.52-1.27c-0.59-0.3-1.25-0.46-1.96-0.46
		c-1.02,0-1.98,0.36-2.9,1.09c-0.92,0.73-1.61,1.69-2.08,2.87v4.78C95.74,40.56,97.26,41.48,99.06,41.48z"/>
	<path class="st1" d="M129.91,49.61c-2.34,0-4.42-0.36-6.25-1.09c-1.83-0.73-3.36-1.72-4.6-2.97c-1.24-1.25-2.18-2.69-2.82-4.32
		c-0.64-1.63-0.97-3.34-0.97-5.13c0-1.93,0.31-3.76,0.94-5.49c0.63-1.73,1.56-3.24,2.8-4.52c1.24-1.29,2.76-2.31,4.57-3.07
		c1.81-0.76,3.92-1.14,6.33-1.14c2.37,0,4.47,0.38,6.3,1.14c1.83,0.76,3.36,1.78,4.6,3.05c1.24,1.27,2.17,2.75,2.8,4.42
		c0.63,1.68,0.94,3.43,0.94,5.26c0,0.51-0.03,1.03-0.08,1.55c-0.05,0.53-0.11,0.99-0.18,1.4h-18.75c0.1,1.42,0.63,2.45,1.58,3.07
		c0.95,0.63,1.98,0.94,3.1,0.94c1.05,0,2.04-0.24,2.97-0.71c0.93-0.47,1.55-1.13,1.85-1.98l8.18,2.34
		c-1.08,2.13-2.75,3.88-5.01,5.24C135.97,48.93,133.2,49.61,129.91,49.61z M134.18,32.89c-0.17-1.29-0.64-2.3-1.42-3.05
		c-0.78-0.75-1.78-1.12-3-1.12s-2.22,0.37-3,1.12c-0.78,0.75-1.25,1.76-1.42,3.05H134.18z"/>
	<path class="st1" d="M157.76,49.61c-2.34,0-4.62-0.38-6.86-1.14c-2.24-0.76-4.13-1.87-5.69-3.33l3.3-5.79
		c1.66,1.12,3.26,1.98,4.8,2.59c1.54,0.61,2.96,0.91,4.24,0.91c1.35,0,2.03-0.42,2.03-1.27c0-0.47-0.26-0.88-0.79-1.22
		c-0.53-0.34-1.55-0.73-3.07-1.17c-1.9-0.54-3.48-1.08-4.75-1.6s-2.3-1.09-3.1-1.7c-0.8-0.61-1.36-1.29-1.7-2.03
		c-0.34-0.75-0.51-1.63-0.51-2.64c0-1.35,0.27-2.61,0.81-3.76c0.54-1.15,1.3-2.15,2.26-3c0.97-0.85,2.12-1.5,3.46-1.96
		c1.34-0.46,2.8-0.69,4.4-0.69c1.96,0,3.84,0.25,5.62,0.76c1.78,0.51,3.57,1.54,5.36,3.1l-3.66,5.79c-1.66-1.08-3.05-1.86-4.17-2.31
		s-2.17-0.69-3.15-0.69c-0.58,0-1.05,0.11-1.42,0.33c-0.37,0.22-0.56,0.57-0.56,1.04c0,0.51,0.27,0.92,0.81,1.25
		c0.54,0.32,1.61,0.69,3.2,1.09c1.93,0.51,3.56,1.04,4.88,1.6c1.32,0.56,2.38,1.17,3.18,1.83c0.8,0.66,1.36,1.41,1.7,2.24
		s0.51,1.79,0.51,2.87c0,1.39-0.25,2.63-0.76,3.71c-0.51,1.08-1.25,2.02-2.21,2.79c-0.97,0.78-2.13,1.37-3.51,1.78
		C161.04,49.4,159.49,49.61,157.76,49.61z"/>
</g>
<rect x="37.28" y="17.56" class="st1" width="128.32" height="1.5"/>
<g class="st0">
	<path class="st1" d="M48.21,4c0,0.98-0.28,1.8-0.83,2.46c-0.55,0.67-1.33,1.12-2.32,1.37l2.69,5.52h1.86v1.9H46.2l-3.37-7.11h-2.14
		v5.2h1.94v1.9h-6.32v-1.9h2.07V1.9h-2.07V0h6.34c1.96,0,3.38,0.32,4.25,0.96C47.78,1.6,48.21,2.62,48.21,4z M45.84,3.96
		c0-0.71-0.22-1.23-0.67-1.56s-1.15-0.5-2.12-0.5h-2.36v4.33h2.22c0.99,0,1.73-0.17,2.21-0.52C45.6,5.38,45.84,4.79,45.84,3.96z"/>
	<path class="st1" d="M61.47,10.47h-8.92c0.13,1.02,0.52,1.82,1.18,2.42s1.47,0.89,2.43,0.89c0.7,0,1.35-0.15,1.95-0.44
		c0.6-0.29,1.1-0.74,1.51-1.34l1.84,0.83c-0.58,0.9-1.34,1.59-2.28,2.05c-0.94,0.46-1.97,0.69-3.07,0.69
		c-1.15,0-2.17-0.24-3.06-0.72c-0.89-0.48-1.58-1.15-2.08-2c-0.5-0.86-0.74-1.82-0.74-2.9c0-1.07,0.24-2.03,0.73-2.89
		c0.49-0.86,1.16-1.53,2.01-2.01c0.85-0.48,1.79-0.72,2.81-0.72c1.12,0,2.1,0.25,2.93,0.74c0.83,0.5,1.49,1.21,1.97,2.13
		C61.17,8.12,61.43,9.21,61.47,10.47z M55.83,6.07c-0.79,0-1.48,0.27-2.08,0.79c-0.59,0.53-0.98,1.23-1.14,2.1h6.66
		c-0.2-0.87-0.61-1.57-1.25-2.1C57.39,6.34,56.66,6.07,55.83,6.07z"/>
	<path class="st1" d="M71.26,5.39V4.62h1.86v4.03h-1.86c-0.08-0.78-0.39-1.37-0.93-1.78s-1.16-0.61-1.87-0.61
		c-0.61,0-1.15,0.16-1.64,0.49c-0.48,0.32-0.86,0.76-1.12,1.32c-0.26,0.55-0.4,1.16-0.4,1.81c0,1.11,0.3,2.02,0.89,2.73
		c0.59,0.71,1.38,1.06,2.35,1.06c1.5,0,2.57-0.7,3.19-2.1l1.74,0.83c-0.98,2.12-2.65,3.18-5.02,3.18c-1.06,0-2-0.25-2.82-0.75
		c-0.82-0.5-1.46-1.18-1.91-2.06c-0.45-0.87-0.67-1.83-0.67-2.9c0-1.04,0.23-1.98,0.68-2.83s1.08-1.51,1.88-1.99
		c0.8-0.48,1.68-0.71,2.66-0.71C69.43,4.33,70.43,4.68,71.26,5.39z"/>
	<path class="st1" d="M86,10.47h-8.92c0.13,1.02,0.52,1.82,1.18,2.42s1.47,0.89,2.43,0.89c0.7,0,1.35-0.15,1.95-0.44
		c0.6-0.29,1.1-0.74,1.51-1.34L86,12.83c-0.58,0.9-1.34,1.59-2.28,2.05c-0.94,0.46-1.97,0.69-3.07,0.69c-1.15,0-2.17-0.24-3.06-0.72
		c-0.89-0.48-1.58-1.15-2.08-2c-0.5-0.86-0.74-1.82-0.74-2.9c0-1.07,0.24-2.03,0.73-2.89c0.49-0.86,1.16-1.53,2.01-2.01
		c0.85-0.48,1.79-0.72,2.81-0.72c1.12,0,2.1,0.25,2.93,0.74c0.83,0.5,1.49,1.21,1.97,2.13C85.7,8.12,85.96,9.21,86,10.47z
		 M80.36,6.07c-0.79,0-1.48,0.27-2.08,0.79c-0.59,0.53-0.98,1.23-1.14,2.1h6.66c-0.2-0.87-0.61-1.57-1.25-2.1
		C81.92,6.34,81.19,6.07,80.36,6.07z"/>
	<path class="st1" d="M92.91,4.62v1.87h-1.94v5.58c0,0.58,0.06,0.96,0.19,1.13c0.12,0.17,0.34,0.26,0.64,0.26
		c0.37,0,0.74-0.06,1.11-0.19v1.89c-0.65,0.19-1.17,0.28-1.57,0.28c-0.88,0-1.51-0.22-1.89-0.66c-0.38-0.44-0.58-1.2-0.58-2.27V6.49
		h-1.39V4.62h1.39V3.01l2.1-1.91v3.52H92.91z"/>
	<path class="st1" d="M103.41,8.37v5.02h1.78v1.86h-3.62v-1.31c-1.01,0.99-2.14,1.49-3.38,1.49c-0.65,0-1.25-0.15-1.8-0.46
		c-0.54-0.3-0.98-0.71-1.31-1.22c-0.33-0.51-0.49-1.08-0.49-1.7c0-0.67,0.18-1.26,0.54-1.79c0.36-0.52,0.85-0.93,1.46-1.21
		c0.61-0.28,1.23-0.42,1.85-0.42c1.04,0,2.01,0.3,2.91,0.91V8.41c0-0.83-0.18-1.42-0.53-1.78c-0.35-0.36-0.93-0.54-1.73-0.54
		c-0.57,0-1.04,0.1-1.42,0.31c-0.38,0.21-0.7,0.52-0.95,0.94l-2-0.5c0.45-0.84,1.06-1.47,1.83-1.89s1.68-0.62,2.74-0.62
		c1.42,0,2.47,0.32,3.12,0.97C103.08,5.95,103.41,6.98,103.41,8.37z M98.46,13.83c1.03,0,1.99-0.43,2.89-1.29V11.3
		c-0.91-0.71-1.82-1.06-2.73-1.06c-0.55,0-1.03,0.17-1.43,0.52c-0.4,0.35-0.6,0.79-0.6,1.31c0,0.51,0.18,0.93,0.53,1.26
		S97.91,13.83,98.46,13.83z"/>
	<path class="st1" d="M112.82,5.07V4.62h1.82v3.53h-1.82V7.5c-0.61-0.87-1.44-1.31-2.49-1.31c-0.55,0-1.01,0.12-1.36,0.36
		c-0.35,0.24-0.53,0.56-0.53,0.94c0,0.34,0.13,0.61,0.4,0.81c0.27,0.2,0.87,0.37,1.8,0.52l1.41,0.27c2.1,0.38,3.15,1.41,3.15,3.09
		c0,0.98-0.38,1.76-1.14,2.36c-0.76,0.59-1.77,0.89-3.02,0.89c-0.5,0-0.99-0.07-1.47-0.22c-0.48-0.15-0.89-0.33-1.21-0.54v0.58
		h-1.86v-3.64h1.86v0.36c0.1,0.51,0.39,0.92,0.86,1.24c0.47,0.31,1.01,0.47,1.64,0.47c0.68,0,1.22-0.12,1.61-0.36
		c0.39-0.24,0.59-0.6,0.59-1.07c0-0.34-0.16-0.6-0.47-0.77c-0.31-0.17-0.93-0.35-1.87-0.53l-1.08-0.23
		c-1.07-0.22-1.86-0.59-2.36-1.11s-0.75-1.2-0.75-2.01c0-0.66,0.18-1.23,0.55-1.7c0.37-0.47,0.84-0.82,1.41-1.06
		s1.16-0.35,1.77-0.35C111.27,4.47,112.13,4.67,112.82,5.07z"/>
</g>
</svg>
