<?xml version="1.0" encoding="utf-8"?>
<!-- Generator: Adobe Illustrator 26.0.1, SVG Export Plug-In . SVG Version: 6.00 Build 0)  -->
<svg version="1.1" id="Layer_1" xmlns="http://www.w3.org/2000/svg" xmlns:xlink="http://www.w3.org/1999/xlink" x="0px" y="0px"
	 viewBox="0 0 239.79 60.67" style="enable-background:new 0 0 239.79 60.67;" xml:space="preserve">
<style type="text/css">
	.st0{enable-background:new    ;}
	.st1{fill:#FFFFFF;}
</style>
<g class="st0">
	<path class="st1" d="M12.55,13.25h9.05l12.5,36.09H24.04l-2.19-7.06h-9.61l-2.13,7.06H0L12.55,13.25z M20.28,35.67l-3.2-11.18
		l-3.35,11.18H20.28z"/>
	<path class="st1" d="M53.62,30.84c-1.86,0-3.56,0.2-5.08,0.61s-2.66,1.08-3.41,2.03v15.86h-9.66V22.6h8.84v5.08
		c0.95-1.8,2.13-3.18,3.53-4.14c1.41-0.97,2.92-1.45,4.55-1.45c0.64,0,1.05,0.02,1.22,0.05L53.62,30.84L53.62,30.84z"/>
	<path class="st1" d="M65.92,49.34c-1.73,0-3.31-0.35-4.75-1.04c-1.44-0.69-2.67-1.64-3.68-2.85s-1.8-2.62-2.36-4.24
		c-0.56-1.63-0.84-3.39-0.84-5.29c0-2,0.3-3.85,0.92-5.54c0.61-1.69,1.46-3.15,2.57-4.37c1.1-1.22,2.41-2.18,3.94-2.87
		c1.52-0.69,3.2-1.04,5.03-1.04c1.93,0,3.63,0.38,5.08,1.14c1.46,0.76,2.61,1.87,3.46,3.33V22.6h8.39v24.3c0,2.1-0.39,4-1.17,5.69
		s-1.88,3.13-3.3,4.32c-1.42,1.19-3.13,2.11-5.13,2.77s-4.22,0.99-6.66,0.99c-2.85,0-5.32-0.44-7.42-1.32s-3.96-2.15-5.59-3.81
		l5.08-5.29c0.98,0.92,2.16,1.68,3.53,2.31c1.37,0.63,2.84,0.94,4.4,0.94c0.88,0,1.72-0.12,2.52-0.36c0.8-0.24,1.5-0.62,2.11-1.14
		s1.09-1.21,1.45-2.06c0.36-0.85,0.53-1.86,0.53-3.05v-1.73c-0.78,1.42-1.89,2.47-3.33,3.15C69.23,49,67.65,49.34,65.92,49.34z
		 M69.37,41.71c0.98,0,1.84-0.23,2.57-0.69s1.41-1.14,2.06-2.06v-4.78c-0.47-1.22-1.18-2.19-2.11-2.9s-1.91-1.07-2.92-1.07
		c-0.68,0-1.31,0.16-1.91,0.48c-0.59,0.32-1.11,0.75-1.55,1.27c-0.44,0.53-0.78,1.15-1.02,1.88s-0.36,1.5-0.36,2.31
		c0,1.66,0.49,3,1.47,4.02C66.6,41.21,67.85,41.71,69.37,41.71z"/>
	<path class="st1" d="M100.73,49.85c-2.34,0-4.42-0.36-6.25-1.09s-3.36-1.72-4.6-2.97s-2.18-2.69-2.82-4.32
		c-0.64-1.64-0.96-3.35-0.96-5.14c0-1.93,0.31-3.76,0.94-5.49c0.63-1.73,1.56-3.24,2.8-4.52c1.24-1.29,2.76-2.31,4.57-3.07
		s3.92-1.14,6.33-1.14c2.37,0,4.47,0.38,6.3,1.14s3.36,1.78,4.6,3.05c1.24,1.27,2.17,2.75,2.8,4.42c0.63,1.68,0.94,3.43,0.94,5.26
		c0,0.51-0.03,1.03-0.08,1.55c-0.05,0.53-0.11,0.99-0.18,1.4H96.36c0.1,1.42,0.63,2.45,1.58,3.07c0.95,0.63,1.98,0.94,3.1,0.94
		c1.05,0,2.04-0.24,2.97-0.71c0.93-0.47,1.55-1.13,1.85-1.98l8.18,2.34c-1.08,2.13-2.75,3.88-5.01,5.24
		C106.79,49.17,104.02,49.85,100.73,49.85z M105,33.12c-0.17-1.29-0.64-2.3-1.42-3.05s-1.78-1.12-3-1.12s-2.22,0.37-3,1.12
		s-1.25,1.76-1.42,3.05H105z"/>
	<path class="st1" d="M144.44,49.34h-9.66V34.29c0-1.32-0.3-2.28-0.89-2.87s-1.28-0.89-2.06-0.89c-0.81,0-1.68,0.36-2.59,1.07
		s-1.59,1.63-2.03,2.75v14.99h-9.66V22.6h8.69v3.96c0.95-1.46,2.28-2.57,3.99-3.33s3.74-1.14,6.07-1.14c1.83,0,3.28,0.33,4.35,0.99
		s1.88,1.48,2.44,2.47s0.92,2.03,1.09,3.15s0.25,2.13,0.25,3.05L144.44,49.34L144.44,49.34z"/>
	<path class="st1" d="M166.91,47.86c-1.36,0.58-2.8,1.06-4.35,1.45c-1.54,0.39-3.06,0.58-4.55,0.58c-1.08,0-2.12-0.14-3.1-0.41
		c-0.98-0.27-1.84-0.71-2.57-1.32c-0.73-0.61-1.3-1.41-1.73-2.39c-0.42-0.98-0.64-2.2-0.64-3.66v-9.25h-3.3V25.6h3.3v-3.39h9.66
		v3.39h5.23v7.27h-5.23v5.84c0,0.88,0.19,1.5,0.56,1.86s0.88,0.53,1.52,0.53c0.47,0,1.02-0.08,1.63-0.23
		c0.61-0.15,1.22-0.36,1.83-0.63L166.91,47.86z"/>
	<path class="st1" d="M168.69,20.37v-8.13h9.66v8.13H168.69z M168.69,49.34V22.6h9.66v26.73L168.69,49.34L168.69,49.34z"/>
	<path class="st1" d="M209.14,49.34h-9.66V34.29c0-1.32-0.3-2.28-0.89-2.87s-1.28-0.89-2.06-0.89c-0.81,0-1.68,0.36-2.59,1.07
		s-1.59,1.63-2.03,2.75v14.99h-9.66V22.6h8.69v3.96c0.95-1.46,2.28-2.57,3.99-3.33s3.74-1.14,6.07-1.14c1.83,0,3.28,0.33,4.35,0.99
		s1.88,1.48,2.44,2.47s0.92,2.03,1.09,3.15s0.25,2.13,0.25,3.05L209.14,49.34L209.14,49.34z"/>
	<path class="st1" d="M220.73,49.85c-1.32,0-2.56-0.22-3.71-0.66c-1.15-0.44-2.14-1.04-2.97-1.8s-1.48-1.67-1.96-2.72
		c-0.47-1.05-0.71-2.19-0.71-3.41c0-1.36,0.29-2.59,0.86-3.71s1.37-2.08,2.39-2.9s2.23-1.44,3.63-1.88
		c1.41-0.44,2.96-0.66,4.65-0.66c2.17,0,3.96,0.34,5.39,1.02v-0.81c0-1.25-0.36-2.19-1.09-2.8s-1.91-0.92-3.53-0.92
		c-1.52,0-2.93,0.25-4.22,0.74c-1.29,0.49-2.64,1.21-4.07,2.16l-2.8-6c3.52-2.27,7.54-3.41,12.05-3.41c4.27,0,7.55,0.95,9.86,2.85
		c2.3,1.9,3.46,4.74,3.46,8.54v5.18c0,0.92,0.13,1.55,0.41,1.91s0.75,0.57,1.42,0.64v8.13c-0.78,0.17-1.52,0.3-2.21,0.38
		c-0.7,0.08-1.31,0.13-1.86,0.13c-1.73,0-3.04-0.31-3.94-0.94c-0.9-0.63-1.48-1.55-1.75-2.77l-0.2-0.97
		c-1.19,1.53-2.56,2.69-4.12,3.48C224.15,49.45,222.49,49.85,220.73,49.85z M223.63,42.93c0.58,0,1.17-0.09,1.78-0.28
		s1.15-0.43,1.63-0.74c0.37-0.27,0.68-0.57,0.92-0.89s0.36-0.65,0.36-0.99v-1.98c-0.58-0.2-1.2-0.37-1.88-0.51
		c-0.68-0.13-1.29-0.2-1.83-0.2c-1.19,0-2.17,0.29-2.95,0.86c-0.78,0.58-1.17,1.3-1.17,2.19c0,0.75,0.3,1.36,0.89,1.83
		S222.71,42.93,223.63,42.93z"/>
</g>
<rect x="37.28" y="17.8" class="st1" width="128.32" height="1.5"/>
<g class="st0">
	<path class="st1" d="M48.21,4.24c0,0.98-0.28,1.8-0.83,2.46c-0.55,0.67-1.33,1.12-2.32,1.37l2.69,5.52h1.86v1.91H46.2l-3.37-7.11
		h-2.14v5.2h1.94v1.91h-6.32v-1.9h2.07V2.14h-2.07v-1.9h6.34c1.96,0,3.38,0.32,4.25,0.96C47.78,1.84,48.21,2.85,48.21,4.24z
		 M45.83,4.2c0-0.71-0.22-1.23-0.67-1.56s-1.15-0.5-2.12-0.5h-2.36v4.33h2.22c0.99,0,1.73-0.17,2.21-0.52
		C45.59,5.62,45.83,5.03,45.83,4.2z"/>
	<path class="st1" d="M61.47,10.71h-8.92c0.13,1.02,0.52,1.82,1.18,2.42s1.47,0.89,2.43,0.89c0.7,0,1.35-0.15,1.95-0.44
		c0.6-0.29,1.1-0.74,1.51-1.34l1.84,0.83c-0.58,0.9-1.34,1.59-2.28,2.05s-1.97,0.69-3.07,0.69c-1.15,0-2.17-0.24-3.06-0.72
		s-1.58-1.15-2.08-2c-0.5-0.86-0.74-1.82-0.74-2.9c0-1.07,0.24-2.03,0.73-2.89c0.49-0.86,1.16-1.53,2.01-2.01s1.79-0.72,2.81-0.72
		c1.12,0,2.1,0.25,2.93,0.74c0.83,0.5,1.49,1.21,1.97,2.13C61.17,8.36,61.43,9.45,61.47,10.71z M55.83,6.31
		c-0.79,0-1.48,0.27-2.08,0.79c-0.59,0.53-0.98,1.23-1.14,2.1h6.66c-0.2-0.87-0.61-1.57-1.25-2.1C57.39,6.58,56.66,6.31,55.83,6.31z
		"/>
	<path class="st1" d="M71.26,5.62V4.86h1.86v4.03h-1.86c-0.08-0.78-0.39-1.37-0.93-1.78S69.16,6.5,68.45,6.5
		c-0.61,0-1.15,0.16-1.64,0.49c-0.48,0.32-0.86,0.76-1.12,1.32c-0.26,0.55-0.4,1.16-0.4,1.81c0,1.11,0.3,2.02,0.89,2.73
		s1.38,1.06,2.35,1.06c1.5,0,2.57-0.7,3.19-2.1l1.74,0.83c-0.98,2.12-2.65,3.18-5.02,3.18c-1.06,0-2-0.25-2.82-0.75
		s-1.46-1.18-1.91-2.06c-0.45-0.87-0.67-1.83-0.67-2.9c0-1.04,0.23-1.98,0.68-2.83s1.08-1.51,1.88-1.99s1.68-0.71,2.66-0.71
		C69.43,4.57,70.43,4.92,71.26,5.62z"/>
	<path class="st1" d="M86,10.71h-8.92c0.13,1.02,0.52,1.82,1.18,2.42s1.47,0.89,2.43,0.89c0.7,0,1.35-0.15,1.95-0.44
		s1.1-0.74,1.51-1.34l1.84,0.83c-0.58,0.9-1.34,1.59-2.28,2.05s-1.97,0.69-3.07,0.69c-1.15,0-2.17-0.24-3.06-0.72s-1.58-1.15-2.08-2
		c-0.5-0.86-0.74-1.82-0.74-2.9c0-1.07,0.24-2.03,0.73-2.89c0.49-0.86,1.16-1.53,2.01-2.01s1.79-0.72,2.81-0.72
		c1.12,0,2.1,0.25,2.93,0.74c0.83,0.5,1.49,1.21,1.97,2.13C85.7,8.36,85.96,9.45,86,10.71z M80.36,6.31c-0.79,0-1.48,0.27-2.08,0.79
		c-0.59,0.53-0.98,1.23-1.14,2.1h6.66c-0.2-0.87-0.61-1.57-1.25-2.1C81.92,6.58,81.19,6.31,80.36,6.31z"/>
	<path class="st1" d="M92.9,4.86v1.87h-1.94v5.58c0,0.58,0.06,0.96,0.19,1.13c0.12,0.17,0.34,0.26,0.64,0.26
		c0.37,0,0.74-0.06,1.11-0.19v1.89c-0.65,0.19-1.17,0.28-1.57,0.28c-0.88,0-1.51-0.22-1.89-0.66s-0.58-1.2-0.58-2.27V6.73h-1.39
		V4.86h1.39V3.25l2.1-1.91v3.52H92.9z"/>
	<path class="st1" d="M103.4,8.61v5.02h1.78v1.87h-3.62v-1.31c-1.01,0.99-2.14,1.49-3.38,1.49c-0.65,0-1.25-0.15-1.8-0.46
		c-0.54-0.3-0.98-0.71-1.31-1.22c-0.33-0.51-0.49-1.08-0.49-1.7c0-0.67,0.18-1.26,0.54-1.79c0.36-0.52,0.85-0.93,1.46-1.21
		s1.23-0.42,1.85-0.42c1.04,0,2.01,0.3,2.91,0.91V8.65c0-0.83-0.18-1.42-0.53-1.78s-0.93-0.54-1.73-0.54c-0.57,0-1.04,0.1-1.42,0.31
		s-0.7,0.52-0.95,0.94l-2-0.5c0.45-0.84,1.06-1.47,1.83-1.89s1.68-0.62,2.74-0.62c1.42,0,2.47,0.32,3.12,0.97
		C103.08,6.19,103.4,7.21,103.4,8.61z M98.46,14.07c1.03,0,1.99-0.43,2.89-1.29v-1.25c-0.91-0.71-1.82-1.06-2.73-1.06
		c-0.55,0-1.03,0.17-1.43,0.52s-0.6,0.79-0.6,1.31c0,0.51,0.18,0.93,0.53,1.26S97.91,14.07,98.46,14.07z"/>
	<path class="st1" d="M110.25,11.22v2.41h2.32v1.87h-6.53v-1.86h2.14V6.73h-2.14V4.86h3.8v2.41c0.43-0.95,0.95-1.62,1.58-1.99
		c0.63-0.38,1.53-0.56,2.71-0.56h0.48v2.12h-0.46c-1.13,0-1.98,0.15-2.53,0.45c-0.55,0.3-0.92,0.75-1.1,1.35
		C110.34,9.22,110.25,10.09,110.25,11.22z"/>
	<path class="st1" d="M120.87,13.63v1.87h-5.38v-1.86h1.66V6.73h-1.66V4.86h3.76v8.78L120.87,13.63
		C120.87,13.64,120.87,13.63,120.87,13.63z M119.37,1.27c0,0.34-0.12,0.64-0.37,0.89s-0.55,0.38-0.89,0.38s-0.64-0.12-0.88-0.38
		c-0.24-0.25-0.36-0.55-0.36-0.89s0.12-0.64,0.36-0.89S117.77,0,118.11,0c0.36,0,0.66,0.12,0.9,0.36
		C119.25,0.61,119.37,0.91,119.37,1.27z"/>
	<path class="st1" d="M133.29,10.19c0,1.03-0.25,1.98-0.74,2.83c-0.49,0.86-1.16,1.54-2.01,2.04c-0.85,0.5-1.79,0.75-2.83,0.75
		c-1.07,0-2.03-0.25-2.89-0.75s-1.52-1.18-2-2.04s-0.71-1.8-0.71-2.83c0-1.08,0.24-2.04,0.71-2.9c0.48-0.85,1.14-1.52,1.99-2
		s1.82-0.72,2.9-0.72c1.05,0,1.99,0.25,2.85,0.76s1.52,1.19,2,2.05C133.05,8.24,133.29,9.18,133.29,10.19z M127.71,13.78
		c0.62,0,1.19-0.16,1.71-0.49c0.52-0.32,0.92-0.76,1.21-1.31c0.29-0.55,0.44-1.14,0.44-1.79c0-0.63-0.15-1.22-0.44-1.77
		c-0.29-0.55-0.7-0.99-1.21-1.32c-0.52-0.33-1.1-0.5-1.73-0.5c-0.62,0-1.19,0.16-1.71,0.49s-0.93,0.77-1.23,1.32
		s-0.45,1.15-0.45,1.78s0.15,1.23,0.45,1.78c0.3,0.55,0.71,0.99,1.24,1.32S127.09,13.78,127.71,13.78z"/>
	<path class="st1" d="M153.51,13.63v1.87h-4v-1.56c-1.07,1.16-2.34,1.74-3.82,1.74c-1.03,0-1.93-0.24-2.72-0.72
		c-0.79-0.48-1.4-1.14-1.83-1.97c-0.44-0.83-0.65-1.75-0.65-2.75c0-1.03,0.23-1.97,0.69-2.83s1.1-1.55,1.92-2.06s1.7-0.76,2.65-0.76
		c0.69,0,1.34,0.14,1.96,0.42c0.62,0.28,1.22,0.71,1.8,1.31V2.08h-2.06V0.24h4.13v13.39H153.51z M146.09,13.82
		c0.65,0,1.23-0.17,1.75-0.52c0.52-0.34,0.93-0.8,1.23-1.38c0.3-0.57,0.45-1.19,0.45-1.84c0-0.66-0.15-1.27-0.45-1.81
		c-0.3-0.55-0.71-0.98-1.24-1.3s-1.12-0.47-1.78-0.47c-0.64,0-1.21,0.17-1.72,0.51c-0.5,0.34-0.9,0.79-1.19,1.36
		s-0.44,1.17-0.44,1.81c0,0.69,0.15,1.31,0.45,1.86s0.7,0.99,1.21,1.31C144.87,13.67,145.46,13.82,146.09,13.82z"/>
	<path class="st1" d="M165.79,10.71h-8.92c0.13,1.02,0.52,1.82,1.18,2.42c0.66,0.6,1.47,0.89,2.43,0.89c0.7,0,1.35-0.15,1.95-0.44
		c0.6-0.29,1.1-0.74,1.51-1.34l1.84,0.83c-0.58,0.9-1.34,1.59-2.28,2.05s-1.97,0.69-3.07,0.69c-1.15,0-2.17-0.24-3.06-0.72
		s-1.58-1.15-2.08-2c-0.5-0.86-0.74-1.82-0.74-2.9c0-1.07,0.24-2.03,0.73-2.89c0.49-0.86,1.16-1.53,2.01-2.01
		c0.85-0.48,1.79-0.72,2.81-0.72c1.12,0,2.1,0.25,2.93,0.74c0.83,0.5,1.49,1.21,1.97,2.13C165.49,8.36,165.75,9.45,165.79,10.71z
		 M160.15,6.31c-0.79,0-1.48,0.27-2.08,0.79c-0.59,0.53-0.98,1.23-1.14,2.1h6.66c-0.2-0.87-0.61-1.57-1.25-2.1
		C161.72,6.58,160.98,6.31,160.15,6.31z"/>
</g>
</svg>
