<?xml version="1.0" encoding="utf-8"?>
<!-- Generator: Adobe Illustrator 26.0.1, SVG Export Plug-In . SVG Version: 6.00 Build 0)  -->
<svg version="1.1" id="Layer_1" xmlns="http://www.w3.org/2000/svg" xmlns:xlink="http://www.w3.org/1999/xlink" x="0px" y="0px"
	 viewBox="0 0 164.58 49.86" style="enable-background:new 0 0 164.58 49.86;" xml:space="preserve">
<style type="text/css">
	.st0{enable-background:new    ;}
	.st1{fill:#FFFFFF;}
</style>
<g class="st0">
	<path class="st1" d="M0,30.99c0-2.2,0.41-4.37,1.25-6.5c0.82-2.14,2.03-4.05,3.63-5.75c1.59-1.69,3.52-3.07,5.79-4.12
		c2.27-1.05,4.86-1.58,7.78-1.58c3.49,0,6.51,0.72,9.07,2.16s4.46,3.35,5.72,5.72l-7.57,5.39c-0.34-0.88-0.79-1.61-1.35-2.19
		s-1.18-1.03-1.86-1.37s-1.38-0.58-2.11-0.71c-0.73-0.13-1.43-0.2-2.11-0.2c-1.42,0-2.65,0.28-3.69,0.84
		c-1.03,0.56-1.88,1.29-2.54,2.19s-1.15,1.92-1.47,3.05c-0.32,1.14-0.48,2.26-0.48,3.38c0,1.25,0.19,2.46,0.56,3.61
		c0.37,1.15,0.92,2.17,1.63,3.05s1.58,1.58,2.62,2.11c1.03,0.53,2.19,0.79,3.48,0.79c0.68,0,1.37-0.08,2.08-0.23
		c0.71-0.15,1.4-0.41,2.06-0.76c0.66-0.36,1.25-0.81,1.78-1.37c0.52-0.56,0.94-1.25,1.25-2.06l8.08,4.83
		c-0.54,1.32-1.36,2.51-2.46,3.56c-1.1,1.05-2.36,1.93-3.76,2.64c-1.41,0.71-2.91,1.25-4.52,1.63c-1.61,0.37-3.18,0.56-4.7,0.56
		c-2.68,0-5.13-0.53-7.34-1.6s-4.13-2.48-5.74-4.24c-1.61-1.76-2.85-3.76-3.74-6C0.44,35.56,0,33.29,0,30.99z"/>
</g>
<g class="st0">
	<path class="st1" d="M48.33,49.85c-2.41,0-4.52-0.38-6.33-1.14c-1.81-0.76-3.34-1.78-4.57-3.05c-1.24-1.27-2.17-2.75-2.8-4.42
		c-0.63-1.68-0.94-3.43-0.94-5.26s0.31-3.58,0.94-5.26c0.63-1.68,1.56-3.15,2.8-4.42c1.24-1.27,2.76-2.29,4.57-3.05
		s3.92-1.14,6.33-1.14c2.37,0,4.47,0.38,6.3,1.14c1.83,0.76,3.36,1.78,4.6,3.05c1.24,1.27,2.17,2.75,2.8,4.42
		c0.63,1.68,0.94,3.43,0.94,5.26s-0.31,3.58-0.94,5.26c-0.63,1.68-1.56,3.15-2.8,4.42c-1.24,1.27-2.77,2.29-4.6,3.05
		C52.81,49.47,50.71,49.85,48.33,49.85z M43.61,35.97c0,1.8,0.44,3.2,1.32,4.22s2.02,1.52,3.41,1.52s2.52-0.51,3.41-1.52
		c0.88-1.02,1.32-2.42,1.32-4.22s-0.44-3.2-1.32-4.22s-2.02-1.52-3.41-1.52s-2.52,0.51-3.41,1.52
		C44.05,32.77,43.61,34.18,43.61,35.97z"/>
</g>
<g class="st0">
	<path class="st1" d="M63.64,35.97c0-1.83,0.32-3.58,0.97-5.26c0.64-1.68,1.58-3.15,2.82-4.42s2.77-2.29,4.6-3.05
		s3.93-1.14,6.3-1.14c3.25,0,5.97,0.68,8.16,2.03c2.19,1.36,3.82,3.1,4.9,5.24l-9.4,2.85c-0.92-1.32-2.15-1.98-3.71-1.98
		c-1.32,0-2.44,0.5-3.35,1.5c-0.92,1-1.37,2.41-1.37,4.24s0.46,3.25,1.37,4.24c0.92,1,2.03,1.5,3.35,1.5c1.56,0,2.8-0.66,3.71-1.98
		l9.4,2.85c-1.08,2.13-2.72,3.88-4.9,5.24s-4.9,2.03-8.16,2.03c-2.37,0-4.47-0.38-6.3-1.14s-3.36-1.78-4.6-3.05
		s-2.18-2.75-2.82-4.42C63.96,39.55,63.64,37.8,63.64,35.97z"/>
	<path class="st1" d="M93.47,30.37v-8.13h9.66v8.13H93.47z M93.47,49.34V32.6h9.66v16.73h-9.66V49.34z"/>
	<path class="st1" d="M133.93,49.34h-9.66V34.29c0-1.32-0.3-2.28-0.89-2.87s-1.28-0.89-2.06-0.89c-0.81,0-1.68,0.36-2.59,1.07
		c-0.91,0.71-1.59,1.63-2.03,2.75v14.99h-9.66V22.6h8.69v3.96c0.95-1.46,2.28-2.57,3.99-3.33s3.74-1.14,6.07-1.14
		c1.83,0,3.28,0.33,4.35,0.99s1.88,1.48,2.44,2.47s0.92,2.03,1.09,3.15s0.25,2.13,0.25,3.05L133.93,49.34L133.93,49.34z"/>
	<path class="st1" d="M145.52,49.85c-1.32,0-2.56-0.22-3.71-0.66c-1.15-0.44-2.14-1.04-2.97-1.8s-1.48-1.67-1.96-2.72
		c-0.48-1.05-0.71-2.19-0.71-3.41c0-1.36,0.29-2.59,0.86-3.71c0.58-1.12,1.37-2.08,2.39-2.9c1.02-0.81,2.23-1.44,3.63-1.88
		c1.41-0.44,2.96-0.66,4.65-0.66c2.17,0,3.96,0.34,5.39,1.02v-0.81c0-1.25-0.36-2.19-1.09-2.8s-1.91-0.92-3.53-0.92
		c-1.52,0-2.93,0.25-4.22,0.74c-1.29,0.49-2.64,1.21-4.07,2.16l-2.8-6c3.52-2.27,7.54-3.41,12.05-3.41c4.27,0,7.56,0.95,9.86,2.85
		s3.46,4.74,3.46,8.54v5.18c0,0.92,0.13,1.55,0.41,1.91c0.27,0.36,0.75,0.57,1.42,0.64v8.13c-0.78,0.17-1.52,0.3-2.21,0.38
		s-1.31,0.13-1.85,0.13c-1.73,0-3.04-0.31-3.94-0.94c-0.9-0.63-1.48-1.55-1.75-2.77l-0.2-0.97c-1.19,1.53-2.56,2.69-4.12,3.48
		C148.94,49.45,147.28,49.85,145.52,49.85z M148.41,42.93c0.58,0,1.17-0.09,1.78-0.28s1.15-0.43,1.63-0.74
		c0.37-0.27,0.68-0.57,0.92-0.89s0.36-0.65,0.36-0.99v-1.98c-0.58-0.2-1.2-0.37-1.88-0.51c-0.68-0.13-1.29-0.2-1.83-0.2
		c-1.19,0-2.17,0.29-2.95,0.86c-0.78,0.58-1.17,1.3-1.17,2.19c0,0.75,0.3,1.36,0.89,1.83C146.74,42.7,147.5,42.93,148.41,42.93z"/>
</g>
<rect x="36.06" y="17.8" class="st1" width="128.32" height="1.5"/>
<g class="st0">
	<path class="st1" d="M46.99,4.24c0,0.98-0.28,1.8-0.83,2.46c-0.55,0.67-1.33,1.12-2.32,1.37l2.69,5.52h1.86v1.91h-3.41l-3.37-7.11
		h-2.14v5.2h1.94v1.91h-6.32v-1.9h2.07V2.14h-2.07v-1.9h6.34c1.96,0,3.38,0.32,4.25,0.96C46.56,1.84,46.99,2.85,46.99,4.24z
		 M44.61,4.2c0-0.71-0.22-1.23-0.67-1.56s-1.15-0.5-2.12-0.5h-2.36v4.33h2.22c0.99,0,1.73-0.17,2.21-0.52
		C44.37,5.62,44.61,5.03,44.61,4.2z"/>
	<path class="st1" d="M60.25,10.71h-8.92c0.13,1.02,0.52,1.82,1.18,2.42c0.66,0.6,1.47,0.89,2.43,0.89c0.7,0,1.35-0.15,1.95-0.44
		c0.6-0.29,1.1-0.74,1.51-1.34l1.84,0.83c-0.58,0.9-1.34,1.59-2.28,2.05s-1.97,0.69-3.07,0.69c-1.15,0-2.17-0.24-3.06-0.72
		s-1.58-1.15-2.08-2c-0.5-0.86-0.74-1.82-0.74-2.9c0-1.07,0.24-2.03,0.73-2.89c0.49-0.86,1.16-1.53,2.01-2.01s1.79-0.72,2.81-0.72
		c1.12,0,2.1,0.25,2.93,0.74c0.83,0.5,1.49,1.21,1.97,2.13C59.95,8.36,60.21,9.45,60.25,10.71z M54.61,6.31
		c-0.79,0-1.48,0.27-2.08,0.79c-0.59,0.53-0.98,1.23-1.14,2.1h6.66c-0.2-0.87-0.61-1.57-1.25-2.1C56.17,6.58,55.44,6.31,54.61,6.31z
		"/>
	<path class="st1" d="M70.04,5.62V4.86h1.86v4.03h-1.86c-0.08-0.78-0.39-1.37-0.93-1.78S67.94,6.5,67.23,6.5
		c-0.61,0-1.15,0.16-1.64,0.49c-0.48,0.32-0.86,0.76-1.12,1.32c-0.26,0.55-0.4,1.16-0.4,1.81c0,1.11,0.3,2.02,0.89,2.73
		s1.38,1.06,2.35,1.06c1.5,0,2.57-0.7,3.19-2.1l1.74,0.83c-0.98,2.12-2.65,3.18-5.02,3.18c-1.06,0-2-0.25-2.82-0.75
		c-0.82-0.5-1.46-1.18-1.91-2.06c-0.45-0.87-0.67-1.83-0.67-2.9c0-1.04,0.23-1.98,0.68-2.83s1.08-1.51,1.88-1.99
		c0.8-0.48,1.68-0.71,2.66-0.71C68.21,4.57,69.21,4.92,70.04,5.62z"/>
	<path class="st1" d="M84.78,10.71h-8.92c0.13,1.02,0.52,1.82,1.18,2.42c0.66,0.6,1.47,0.89,2.43,0.89c0.7,0,1.35-0.15,1.95-0.44
		c0.6-0.29,1.1-0.74,1.51-1.34l1.84,0.83c-0.58,0.9-1.34,1.59-2.28,2.05s-1.97,0.69-3.07,0.69c-1.15,0-2.17-0.24-3.06-0.72
		s-1.58-1.15-2.08-2c-0.5-0.86-0.74-1.82-0.74-2.9c0-1.07,0.24-2.03,0.73-2.89c0.49-0.86,1.16-1.53,2.01-2.01s1.79-0.72,2.81-0.72
		c1.12,0,2.1,0.25,2.93,0.74c0.83,0.5,1.49,1.21,1.97,2.13C84.48,8.36,84.74,9.45,84.78,10.71z M79.14,6.31
		c-0.79,0-1.48,0.27-2.08,0.79c-0.59,0.53-0.98,1.23-1.14,2.1h6.66c-0.2-0.87-0.61-1.57-1.25-2.1C80.7,6.58,79.97,6.31,79.14,6.31z"
		/>
	<path class="st1" d="M91.68,4.86v1.87h-1.94v5.58c0,0.58,0.06,0.96,0.19,1.13c0.12,0.17,0.34,0.26,0.64,0.26
		c0.37,0,0.74-0.06,1.11-0.19v1.89c-0.65,0.19-1.17,0.28-1.57,0.28c-0.88,0-1.51-0.22-1.89-0.66s-0.58-1.2-0.58-2.27V6.73h-1.39
		V4.86h1.39V3.25l2.1-1.91v3.52H91.68z"/>
	<path class="st1" d="M102.18,8.61v5.02h1.78v1.87h-3.62v-1.31c-1.01,0.99-2.14,1.49-3.38,1.49c-0.65,0-1.25-0.15-1.8-0.46
		c-0.54-0.3-0.98-0.71-1.31-1.22c-0.33-0.51-0.49-1.08-0.49-1.7c0-0.67,0.18-1.26,0.54-1.79c0.36-0.52,0.85-0.93,1.46-1.21
		s1.23-0.42,1.85-0.42c1.04,0,2.01,0.3,2.91,0.91V8.65c0-0.83-0.18-1.42-0.53-1.78s-0.93-0.54-1.73-0.54c-0.57,0-1.04,0.1-1.42,0.31
		s-0.7,0.52-0.95,0.94l-2-0.5c0.45-0.84,1.06-1.47,1.83-1.89S97,4.57,98.06,4.57c1.42,0,2.47,0.32,3.12,0.97
		C101.86,6.19,102.18,7.21,102.18,8.61z M97.24,14.07c1.03,0,1.99-0.43,2.89-1.29v-1.25c-0.91-0.71-1.82-1.06-2.73-1.06
		c-0.55,0-1.03,0.17-1.43,0.52s-0.6,0.79-0.6,1.31c0,0.51,0.18,0.93,0.53,1.26S96.69,14.07,97.24,14.07z"/>
	<path class="st1" d="M109.03,11.22v2.41h2.32v1.87h-6.53v-1.86h2.14V6.73h-2.14V4.86h3.8v2.41c0.43-0.95,0.95-1.62,1.58-1.99
		c0.63-0.38,1.53-0.56,2.71-0.56h0.48v2.12h-0.46c-1.13,0-1.98,0.15-2.53,0.45c-0.55,0.3-0.92,0.75-1.1,1.35
		C109.12,9.22,109.03,10.09,109.03,11.22z"/>
	<path class="st1" d="M119.65,13.63v1.87h-5.38v-1.86h1.66V6.73h-1.66V4.86h3.76v8.78h1.62V13.63z M118.15,1.27
		c0,0.34-0.12,0.64-0.37,0.89s-0.55,0.38-0.89,0.38s-0.64-0.12-0.88-0.38c-0.24-0.25-0.36-0.55-0.36-0.89s0.12-0.64,0.36-0.89
		S116.55,0,116.89,0c0.36,0,0.66,0.12,0.9,0.36C118.03,0.61,118.15,0.91,118.15,1.27z"/>
	<path class="st1" d="M132.07,10.19c0,1.03-0.25,1.98-0.74,2.83c-0.49,0.86-1.16,1.54-2.01,2.04c-0.85,0.5-1.79,0.75-2.83,0.75
		c-1.07,0-2.03-0.25-2.89-0.75s-1.52-1.18-2-2.04s-0.71-1.8-0.71-2.83c0-1.08,0.24-2.04,0.71-2.9c0.48-0.85,1.14-1.52,1.99-2
		s1.82-0.72,2.9-0.72c1.05,0,1.99,0.25,2.85,0.76s1.52,1.19,2,2.05C131.83,8.24,132.07,9.18,132.07,10.19z M126.49,13.78
		c0.62,0,1.19-0.16,1.71-0.49c0.52-0.32,0.92-0.76,1.21-1.31c0.29-0.55,0.44-1.14,0.44-1.79c0-0.63-0.15-1.22-0.44-1.77
		c-0.29-0.55-0.7-0.99-1.21-1.32c-0.52-0.33-1.1-0.5-1.73-0.5c-0.62,0-1.19,0.16-1.71,0.49s-0.93,0.77-1.23,1.32
		c-0.3,0.55-0.45,1.15-0.45,1.78s0.15,1.23,0.45,1.78c0.3,0.55,0.71,0.99,1.24,1.32S125.87,13.78,126.49,13.78z"/>
	<path class="st1" d="M152.29,13.63v1.87h-4v-1.56c-1.07,1.16-2.34,1.74-3.82,1.74c-1.03,0-1.93-0.24-2.72-0.72
		c-0.79-0.48-1.4-1.14-1.83-1.97c-0.44-0.83-0.65-1.75-0.65-2.75c0-1.03,0.23-1.97,0.69-2.83s1.1-1.55,1.92-2.06s1.7-0.76,2.65-0.76
		c0.69,0,1.34,0.14,1.96,0.42c0.62,0.28,1.22,0.71,1.8,1.31V2.08h-2.06V0.24h4.13v13.39C150.36,13.63,152.29,13.63,152.29,13.63z
		 M144.87,13.82c0.65,0,1.23-0.17,1.75-0.52c0.52-0.34,0.93-0.8,1.23-1.38c0.3-0.57,0.45-1.19,0.45-1.84c0-0.66-0.15-1.27-0.45-1.81
		c-0.3-0.55-0.71-0.98-1.24-1.3s-1.12-0.47-1.78-0.47c-0.64,0-1.21,0.17-1.72,0.51c-0.5,0.34-0.9,0.79-1.19,1.36
		s-0.44,1.17-0.44,1.81c0,0.69,0.15,1.31,0.45,1.86s0.7,0.99,1.21,1.31C143.65,13.67,144.24,13.82,144.87,13.82z"/>
	<path class="st1" d="M164.57,10.71h-8.92c0.13,1.02,0.52,1.82,1.18,2.42c0.66,0.6,1.47,0.89,2.43,0.89c0.7,0,1.35-0.15,1.95-0.44
		c0.6-0.29,1.1-0.74,1.51-1.34l1.84,0.83c-0.58,0.9-1.34,1.59-2.28,2.05s-1.97,0.69-3.07,0.69c-1.15,0-2.17-0.24-3.06-0.72
		s-1.58-1.15-2.08-2c-0.5-0.86-0.74-1.82-0.74-2.9c0-1.07,0.24-2.03,0.73-2.89c0.49-0.86,1.16-1.53,2.01-2.01
		c0.85-0.48,1.79-0.72,2.81-0.72c1.12,0,2.1,0.25,2.93,0.74c0.83,0.5,1.49,1.21,1.97,2.13C164.27,8.36,164.53,9.45,164.57,10.71z
		 M158.93,6.31c-0.79,0-1.48,0.27-2.08,0.79c-0.59,0.53-0.98,1.23-1.14,2.1h6.66c-0.2-0.87-0.61-1.57-1.25-2.1
		C160.5,6.58,159.76,6.31,158.93,6.31z"/>
</g>
</svg>
