<?xml version="1.0" encoding="utf-8"?>
<!-- Generator: Adobe Illustrator 26.0.1, SVG Export Plug-In . SVG Version: 6.00 Build 0)  -->
<svg version="1.1" id="Layer_1" xmlns="http://www.w3.org/2000/svg" xmlns:xlink="http://www.w3.org/1999/xlink" x="0px" y="0px"
	 viewBox="0 0 162.59 49.84" style="enable-background:new 0 0 162.59 49.84;" xml:space="preserve">
<style type="text/css">
	.st0{enable-background:new    ;}
	.st1{fill:#FFFFFF;}
</style>
<g class="st0">
	<path class="st1" d="M30.7,40.08c0,1.63-0.34,3.02-1.02,4.19c-0.68,1.17-1.61,2.13-2.8,2.87c-1.19,0.75-2.57,1.3-4.14,1.65
		c-1.58,0.36-3.24,0.53-5.01,0.53H0V13.25h20.94c1.25,0,2.39,0.27,3.41,0.81c1.02,0.54,1.88,1.25,2.59,2.11s1.26,1.85,1.65,2.95
		c0.39,1.1,0.58,2.23,0.58,3.38c0,1.69-0.43,3.31-1.3,4.85c-0.86,1.54-2.16,2.7-3.89,3.48c2.07,0.61,3.7,1.67,4.9,3.18
		C30.1,35.52,30.7,37.54,30.7,40.08z M9.91,21.68v5.54h6.76c0.68,0,1.3-0.19,1.85-0.56s0.84-1.12,0.84-2.24
		c0-0.98-0.24-1.69-0.71-2.11c-0.47-0.42-1.03-0.64-1.68-0.64H9.91z M20.64,38.05c0-0.88-0.24-1.62-0.71-2.21
		c-0.47-0.59-1.08-0.89-1.83-0.89H9.91V41h7.83c0.81,0,1.5-0.25,2.06-0.76C20.36,39.73,20.64,39,20.64,38.05z"/>
	<path class="st1" d="M51.59,30.83c-1.86,0-3.56,0.2-5.08,0.61s-2.66,1.08-3.41,2.03v15.86h-9.66V22.6h8.84v5.08
		c0.95-1.8,2.13-3.18,3.53-4.14c1.41-0.97,2.92-1.45,4.55-1.45c0.64,0,1.05,0.02,1.22,0.05V30.83z"/>
	<path class="st1" d="M61.19,49.84c-1.32,0-2.56-0.22-3.71-0.66c-1.15-0.44-2.14-1.04-2.97-1.8c-0.83-0.76-1.48-1.67-1.96-2.72
		c-0.48-1.05-0.71-2.19-0.71-3.41c0-1.36,0.29-2.59,0.86-3.71c0.58-1.12,1.37-2.08,2.39-2.9c1.02-0.81,2.23-1.44,3.63-1.88
		c1.41-0.44,2.96-0.66,4.65-0.66c2.17,0,3.96,0.34,5.39,1.02v-0.81c0-1.25-0.36-2.19-1.09-2.8c-0.73-0.61-1.91-0.92-3.53-0.92
		c-1.52,0-2.93,0.25-4.22,0.74c-1.29,0.49-2.64,1.21-4.07,2.16l-2.8-6c3.52-2.27,7.54-3.41,12.05-3.41c4.27,0,7.56,0.95,9.86,2.85
		c2.3,1.9,3.46,4.74,3.46,8.54v5.18c0,0.92,0.13,1.55,0.41,1.91c0.27,0.36,0.75,0.57,1.42,0.64v8.13c-0.78,0.17-1.52,0.3-2.21,0.38
		c-0.69,0.08-1.31,0.13-1.85,0.13c-1.73,0-3.04-0.31-3.94-0.94c-0.9-0.63-1.48-1.55-1.75-2.77l-0.2-0.97
		c-1.19,1.53-2.56,2.69-4.12,3.48C64.62,49.44,62.95,49.84,61.19,49.84z M64.09,42.93c0.58,0,1.17-0.09,1.78-0.28
		c0.61-0.19,1.15-0.43,1.63-0.74c0.37-0.27,0.68-0.57,0.92-0.89c0.24-0.32,0.36-0.65,0.36-0.99v-1.98c-0.58-0.2-1.2-0.37-1.88-0.51
		c-0.68-0.13-1.29-0.2-1.83-0.2c-1.19,0-2.17,0.29-2.95,0.86c-0.78,0.58-1.17,1.3-1.17,2.19c0,0.75,0.3,1.36,0.89,1.83
		C62.42,42.69,63.18,42.93,64.09,42.93z"/>
	<path class="st1" d="M93.82,49.84c-2.34,0-4.62-0.38-6.86-1.14c-2.24-0.76-4.13-1.87-5.69-3.33l3.3-5.79
		c1.66,1.12,3.26,1.98,4.8,2.59c1.54,0.61,2.96,0.91,4.24,0.91c1.35,0,2.03-0.42,2.03-1.27c0-0.47-0.26-0.88-0.79-1.22
		c-0.53-0.34-1.55-0.73-3.07-1.17c-1.9-0.54-3.48-1.08-4.75-1.6s-2.3-1.09-3.1-1.7c-0.8-0.61-1.36-1.29-1.7-2.03
		c-0.34-0.75-0.51-1.63-0.51-2.64c0-1.35,0.27-2.61,0.81-3.76c0.54-1.15,1.3-2.15,2.26-3c0.97-0.85,2.12-1.5,3.46-1.96
		c1.34-0.46,2.8-0.69,4.4-0.69c1.96,0,3.84,0.25,5.62,0.76c1.78,0.51,3.57,1.54,5.36,3.1l-3.66,5.79c-1.66-1.08-3.05-1.86-4.17-2.31
		s-2.17-0.69-3.15-0.69c-0.58,0-1.05,0.11-1.42,0.33c-0.37,0.22-0.56,0.57-0.56,1.04c0,0.51,0.27,0.92,0.81,1.25
		c0.54,0.32,1.61,0.69,3.2,1.09c1.93,0.51,3.56,1.04,4.88,1.6c1.32,0.56,2.38,1.17,3.18,1.83c0.8,0.66,1.36,1.41,1.7,2.24
		c0.34,0.83,0.51,1.79,0.51,2.87c0,1.39-0.25,2.63-0.76,3.71c-0.51,1.08-1.25,2.02-2.21,2.79c-0.97,0.78-2.13,1.37-3.51,1.78
		C97.1,49.64,95.55,49.84,93.82,49.84z"/>
	<path class="st1" d="M107.29,23.36v-5.13h9.66v5.13H107.29z M107.29,49.33V25.6h9.66v23.73H107.29z"/>
	<path class="st1" d="M120.66,18.23h9.66v20.48c0,2.03,0.83,3.05,2.49,3.05c0.41,0,0.85-0.07,1.32-0.2
		c0.47-0.13,0.92-0.32,1.32-0.56l1.22,7.12c-1.15,0.54-2.45,0.97-3.89,1.27c-1.44,0.3-2.8,0.46-4.09,0.46
		c-2.58,0-4.56-0.66-5.95-1.98c-1.39-1.32-2.08-3.24-2.08-5.74V18.23z"/>
</g>
<rect x="34.08" y="17.79" class="st1" width="128.32" height="1.5"/>
<g class="st0">
	<path class="st1" d="M45.01,4.23c0,0.98-0.28,1.8-0.83,2.46c-0.55,0.67-1.33,1.12-2.32,1.37l2.69,5.52h1.86v1.9H43l-3.37-7.11
		h-2.14v5.2h1.94v1.9h-6.32v-1.9h2.07V2.14h-2.07v-1.9h6.34c1.96,0,3.38,0.32,4.25,0.96C44.58,1.84,45.01,2.85,45.01,4.23z
		 M42.63,4.19c0-0.71-0.22-1.23-0.67-1.56s-1.15-0.5-2.12-0.5h-2.36v4.33h2.22c0.99,0,1.73-0.17,2.21-0.52
		C42.39,5.61,42.63,5.02,42.63,4.19z"/>
	<path class="st1" d="M58.27,10.7h-8.92c0.13,1.02,0.52,1.82,1.18,2.42S52,14,52.96,14c0.7,0,1.35-0.15,1.95-0.44
		c0.6-0.29,1.1-0.74,1.51-1.34l1.84,0.83c-0.58,0.9-1.34,1.59-2.28,2.05c-0.94,0.46-1.97,0.69-3.07,0.69
		c-1.15,0-2.17-0.24-3.06-0.72c-0.89-0.48-1.58-1.15-2.08-2c-0.5-0.86-0.74-1.82-0.74-2.9c0-1.07,0.24-2.03,0.73-2.89
		c0.49-0.86,1.16-1.53,2.01-2.01c0.85-0.48,1.79-0.72,2.81-0.72c1.12,0,2.1,0.25,2.93,0.74c0.83,0.5,1.49,1.21,1.97,2.13
		C57.97,8.36,58.23,9.45,58.27,10.7z M52.63,6.31c-0.79,0-1.48,0.27-2.08,0.79c-0.59,0.53-0.98,1.23-1.14,2.1h6.66
		c-0.2-0.87-0.61-1.57-1.25-2.1C54.19,6.57,53.46,6.31,52.63,6.31z"/>
	<path class="st1" d="M68.06,5.62V4.85h1.86v4.03h-1.86c-0.08-0.78-0.39-1.37-0.93-1.78s-1.16-0.61-1.87-0.61
		c-0.61,0-1.15,0.16-1.64,0.49c-0.48,0.32-0.86,0.76-1.12,1.32c-0.26,0.55-0.4,1.16-0.4,1.81c0,1.11,0.3,2.02,0.89,2.73
		c0.59,0.71,1.38,1.06,2.35,1.06c1.5,0,2.57-0.7,3.19-2.1l1.74,0.83c-0.98,2.12-2.65,3.18-5.02,3.18c-1.06,0-2-0.25-2.82-0.75
		c-0.82-0.5-1.46-1.18-1.91-2.06c-0.45-0.87-0.67-1.83-0.67-2.9c0-1.04,0.23-1.98,0.68-2.83s1.08-1.51,1.88-1.99
		c0.8-0.48,1.68-0.71,2.66-0.71C66.23,4.57,67.23,4.92,68.06,5.62z"/>
	<path class="st1" d="M82.8,10.7h-8.92c0.13,1.02,0.52,1.82,1.18,2.42S76.53,14,77.49,14c0.7,0,1.35-0.15,1.95-0.44
		c0.6-0.29,1.1-0.74,1.51-1.34l1.84,0.83c-0.58,0.9-1.34,1.59-2.28,2.05c-0.94,0.46-1.97,0.69-3.07,0.69
		c-1.15,0-2.17-0.24-3.06-0.72c-0.89-0.48-1.58-1.15-2.08-2c-0.5-0.86-0.74-1.82-0.74-2.9c0-1.07,0.24-2.03,0.73-2.89
		c0.49-0.86,1.16-1.53,2.01-2.01c0.85-0.48,1.79-0.72,2.81-0.72c1.12,0,2.1,0.25,2.93,0.74c0.83,0.5,1.49,1.21,1.97,2.13
		C82.5,8.36,82.76,9.45,82.8,10.7z M77.16,6.31c-0.79,0-1.48,0.27-2.08,0.79c-0.59,0.53-0.98,1.23-1.14,2.1h6.66
		c-0.2-0.87-0.61-1.57-1.25-2.1C78.72,6.57,77.99,6.31,77.16,6.31z"/>
	<path class="st1" d="M89.7,4.85v1.87h-1.94v5.58c0,0.58,0.06,0.96,0.19,1.13c0.12,0.17,0.34,0.26,0.64,0.26
		c0.37,0,0.74-0.06,1.11-0.19v1.89c-0.65,0.19-1.17,0.28-1.57,0.28c-0.88,0-1.51-0.22-1.89-0.66c-0.38-0.44-0.58-1.2-0.58-2.27V6.72
		h-1.39V4.85h1.39V3.24l2.1-1.91v3.52H89.7z"/>
	<path class="st1" d="M100.2,8.61v5.02h1.78v1.86h-3.62v-1.31c-1.01,0.99-2.14,1.49-3.38,1.49c-0.65,0-1.25-0.15-1.8-0.46
		c-0.54-0.3-0.98-0.71-1.31-1.22c-0.33-0.51-0.49-1.08-0.49-1.7c0-0.67,0.18-1.26,0.54-1.79c0.36-0.52,0.85-0.93,1.46-1.21
		c0.61-0.28,1.23-0.42,1.85-0.42c1.04,0,2.01,0.3,2.91,0.91V8.65c0-0.83-0.18-1.42-0.53-1.78c-0.35-0.36-0.93-0.54-1.73-0.54
		c-0.57,0-1.04,0.1-1.42,0.31c-0.38,0.21-0.7,0.52-0.95,0.94l-2-0.5c0.45-0.84,1.06-1.47,1.83-1.89s1.68-0.62,2.74-0.62
		c1.42,0,2.47,0.32,3.12,0.97C99.87,6.19,100.2,7.21,100.2,8.61z M95.26,14.06c1.03,0,1.99-0.43,2.89-1.29v-1.25
		c-0.91-0.71-1.82-1.06-2.73-1.06c-0.55,0-1.03,0.17-1.43,0.52c-0.4,0.35-0.6,0.79-0.6,1.31c0,0.51,0.18,0.93,0.53,1.26
		S94.71,14.06,95.26,14.06z"/>
	<path class="st1" d="M107.05,11.22v2.41h2.32v1.86h-6.53v-1.86h2.14V6.72h-2.14V4.85h3.8v2.41c0.43-0.95,0.95-1.62,1.58-1.99
		c0.63-0.38,1.53-0.56,2.71-0.56h0.48v2.12h-0.46c-1.13,0-1.98,0.15-2.53,0.45c-0.55,0.3-0.92,0.75-1.1,1.35
		C107.14,9.22,107.05,10.08,107.05,11.22z"/>
	<path class="st1" d="M117.67,13.63v1.86h-5.38v-1.86h1.66V6.72h-1.66V4.85h3.76v8.78H117.67z M116.17,1.27
		c0,0.34-0.12,0.64-0.37,0.89c-0.25,0.25-0.55,0.38-0.89,0.38s-0.64-0.12-0.88-0.38c-0.24-0.25-0.36-0.55-0.36-0.89
		c0-0.34,0.12-0.64,0.36-0.89C114.27,0.12,114.56,0,114.9,0c0.36,0,0.66,0.12,0.9,0.36C116.05,0.61,116.17,0.91,116.17,1.27z"/>
	<path class="st1" d="M130.09,10.19c0,1.03-0.25,1.98-0.74,2.83c-0.49,0.86-1.16,1.54-2.01,2.04c-0.85,0.5-1.79,0.75-2.83,0.75
		c-1.07,0-2.03-0.25-2.89-0.75c-0.86-0.5-1.52-1.18-2-2.04c-0.48-0.86-0.71-1.8-0.71-2.83c0-1.08,0.24-2.04,0.71-2.9
		c0.48-0.85,1.14-1.52,1.99-2c0.85-0.48,1.82-0.72,2.9-0.72c1.05,0,1.99,0.25,2.85,0.76s1.52,1.19,2,2.05
		C129.85,8.24,130.09,9.17,130.09,10.19z M124.51,13.77c0.62,0,1.19-0.16,1.71-0.49c0.52-0.32,0.92-0.76,1.21-1.31
		c0.29-0.55,0.44-1.14,0.44-1.79c0-0.63-0.15-1.22-0.44-1.77c-0.29-0.55-0.7-0.99-1.21-1.32c-0.52-0.33-1.1-0.5-1.73-0.5
		c-0.62,0-1.19,0.16-1.71,0.49c-0.52,0.33-0.93,0.77-1.23,1.32c-0.3,0.55-0.45,1.15-0.45,1.78c0,0.63,0.15,1.23,0.45,1.78
		c0.3,0.55,0.71,0.99,1.24,1.32S123.89,13.77,124.51,13.77z"/>
	<path class="st1" d="M150.31,13.63v1.86h-4v-1.56c-1.07,1.16-2.34,1.74-3.82,1.74c-1.03,0-1.93-0.24-2.72-0.72
		c-0.79-0.48-1.4-1.14-1.83-1.97c-0.44-0.83-0.65-1.75-0.65-2.75c0-1.03,0.23-1.97,0.69-2.83s1.1-1.55,1.92-2.06s1.7-0.76,2.65-0.76
		c0.69,0,1.34,0.14,1.96,0.42c0.62,0.28,1.22,0.71,1.8,1.31V2.08h-2.06V0.23h4.13v13.39H150.31z M142.89,13.81
		c0.65,0,1.23-0.17,1.75-0.52c0.52-0.34,0.93-0.8,1.23-1.38c0.3-0.57,0.45-1.19,0.45-1.84c0-0.66-0.15-1.27-0.45-1.81
		c-0.3-0.55-0.71-0.98-1.24-1.3s-1.12-0.48-1.78-0.48c-0.64,0-1.21,0.17-1.72,0.51c-0.5,0.34-0.9,0.79-1.19,1.36
		s-0.44,1.17-0.44,1.81c0,0.69,0.15,1.31,0.45,1.86c0.3,0.55,0.7,0.99,1.21,1.31S142.26,13.81,142.89,13.81z"/>
	<path class="st1" d="M162.59,10.7h-8.92c0.13,1.02,0.52,1.82,1.18,2.42s1.47,0.89,2.43,0.89c0.7,0,1.35-0.15,1.95-0.44
		c0.6-0.29,1.1-0.74,1.51-1.34l1.84,0.83c-0.58,0.9-1.34,1.59-2.28,2.05c-0.94,0.46-1.97,0.69-3.07,0.69
		c-1.15,0-2.17-0.24-3.06-0.72c-0.89-0.48-1.58-1.15-2.08-2c-0.5-0.86-0.74-1.82-0.74-2.9c0-1.07,0.24-2.03,0.73-2.89
		c0.49-0.86,1.16-1.53,2.01-2.01c0.85-0.48,1.79-0.72,2.81-0.72c1.12,0,2.1,0.25,2.93,0.74c0.83,0.5,1.49,1.21,1.97,2.13
		C162.29,8.36,162.55,9.45,162.59,10.7z M156.95,6.31c-0.79,0-1.48,0.27-2.08,0.79c-0.59,0.53-0.98,1.23-1.14,2.1h6.66
		c-0.2-0.87-0.61-1.57-1.25-2.1C158.52,6.57,157.78,6.31,156.95,6.31z"/>
</g>
</svg>
