<?xml version="1.0" encoding="utf-8"?>
<!-- Generator: Adobe Illustrator 26.0.1, SVG Export Plug-In . SVG Version: 6.00 Build 0)  -->
<svg version="1.1" id="Layer_1" xmlns="http://www.w3.org/2000/svg" xmlns:xlink="http://www.w3.org/1999/xlink" x="0px" y="0px"
	 viewBox="0 0 164.58 49.84" style="enable-background:new 0 0 164.58 49.84;" xml:space="preserve">
<style type="text/css">
	.st0{enable-background:new    ;}
	.st1{fill:#FFFFFF;}
</style>
<g class="st0">
	<path class="st1" d="M0,30.98c0-2.2,0.41-4.37,1.25-6.5c0.83-2.13,2.04-4.05,3.63-5.74c1.59-1.69,3.52-3.07,5.79-4.12
		c2.27-1.05,4.86-1.58,7.78-1.58c3.49,0,6.51,0.72,9.07,2.16c2.56,1.44,4.46,3.35,5.72,5.72l-7.57,5.39
		c-0.34-0.88-0.79-1.61-1.35-2.19c-0.56-0.58-1.18-1.03-1.86-1.37c-0.68-0.34-1.38-0.58-2.11-0.71c-0.73-0.13-1.43-0.2-2.11-0.2
		c-1.42,0-2.65,0.28-3.69,0.84c-1.03,0.56-1.88,1.29-2.54,2.19c-0.66,0.9-1.15,1.92-1.47,3.05c-0.32,1.14-0.48,2.26-0.48,3.38
		c0,1.25,0.19,2.46,0.56,3.61c0.37,1.15,0.92,2.17,1.63,3.05s1.58,1.58,2.62,2.11c1.03,0.53,2.19,0.79,3.48,0.79
		c0.68,0,1.37-0.08,2.08-0.23c0.71-0.15,1.4-0.41,2.06-0.76c0.66-0.36,1.25-0.81,1.78-1.37c0.52-0.56,0.94-1.25,1.25-2.06l8.08,4.83
		c-0.54,1.32-1.36,2.51-2.46,3.56c-1.1,1.05-2.36,1.93-3.76,2.64c-1.41,0.71-2.91,1.25-4.52,1.63c-1.61,0.37-3.18,0.56-4.7,0.56
		c-2.68,0-5.13-0.53-7.34-1.6s-4.13-2.48-5.74-4.24c-1.61-1.76-2.85-3.76-3.74-6C0.44,35.56,0,33.29,0,30.98z"/>
	<path class="st1" d="M62.36,49.33h-9.66V38.29c0-1.32-0.3-2.28-0.89-2.87c-0.59-0.59-1.33-0.89-2.21-0.89
		c-0.31,0-0.67,0.09-1.09,0.28c-0.42,0.19-0.85,0.44-1.27,0.76c-0.42,0.32-0.82,0.72-1.19,1.19c-0.37,0.47-0.68,1-0.91,1.58v10.99
		h-9.66v-31.1h9.66v12.33c0.95-1.46,2.19-2.57,3.71-3.33c1.52-0.76,3.24-1.14,5.13-1.14c1.86,0,3.35,0.32,4.47,0.97
		c1.12,0.64,1.96,1.45,2.54,2.42c0.58,0.96,0.95,2.01,1.12,3.12c0.17,1.12,0.25,2.17,0.25,3.15V49.33z"/>
	<path class="st1" d="M66.07,27.36v-6.13h9.66v6.13H66.07z M66.07,49.33V29.6h9.66v19.73H66.07z"/>
	<path class="st1" d="M106.53,49.33h-9.66V34.29c0-1.32-0.3-2.28-0.89-2.87c-0.59-0.59-1.28-0.89-2.06-0.89
		c-0.81,0-1.68,0.36-2.59,1.07c-0.91,0.71-1.59,1.63-2.03,2.75v14.99h-9.66V22.6h8.69v3.96c0.95-1.46,2.28-2.57,3.99-3.33
		c1.71-0.76,3.74-1.14,6.07-1.14c1.83,0,3.28,0.33,4.35,0.99c1.07,0.66,1.88,1.48,2.44,2.47s0.92,2.03,1.09,3.15
		c0.17,1.12,0.25,2.13,0.25,3.05V49.33z"/>
	<path class="st1" d="M118.12,49.84c-1.32,0-2.56-0.22-3.71-0.66c-1.15-0.44-2.14-1.04-2.97-1.8c-0.83-0.76-1.48-1.67-1.96-2.72
		c-0.48-1.05-0.71-2.19-0.71-3.41c0-1.36,0.29-2.59,0.86-3.71c0.58-1.12,1.37-2.08,2.39-2.9c1.02-0.81,2.23-1.44,3.63-1.88
		c1.41-0.44,2.96-0.66,4.65-0.66c2.17,0,3.96,0.34,5.39,1.02v-0.81c0-1.25-0.36-2.19-1.09-2.8c-0.73-0.61-1.91-0.92-3.53-0.92
		c-1.52,0-2.93,0.25-4.22,0.74c-1.29,0.49-2.64,1.21-4.07,2.16l-2.8-6c3.52-2.27,7.54-3.41,12.05-3.41c4.27,0,7.56,0.95,9.86,2.85
		c2.3,1.9,3.46,4.74,3.46,8.54v5.18c0,0.92,0.13,1.55,0.41,1.91c0.27,0.36,0.75,0.57,1.42,0.64v8.13c-0.78,0.17-1.52,0.3-2.21,0.38
		c-0.69,0.08-1.31,0.13-1.85,0.13c-1.73,0-3.04-0.31-3.94-0.94c-0.9-0.63-1.48-1.55-1.75-2.77l-0.2-0.97
		c-1.19,1.53-2.56,2.69-4.12,3.48C121.54,49.44,119.88,49.84,118.12,49.84z M121.01,42.93c0.58,0,1.17-0.09,1.78-0.28
		c0.61-0.19,1.15-0.43,1.63-0.74c0.37-0.27,0.68-0.57,0.92-0.89c0.24-0.32,0.36-0.65,0.36-0.99v-1.98c-0.58-0.2-1.2-0.37-1.88-0.51
		c-0.68-0.13-1.29-0.2-1.83-0.2c-1.19,0-2.17,0.29-2.95,0.86c-0.78,0.58-1.17,1.3-1.17,2.19c0,0.75,0.3,1.36,0.89,1.83
		C119.35,42.69,120.1,42.93,121.01,42.93z"/>
</g>
<rect x="36.06" y="17.79" class="st1" width="128.32" height="1.5"/>
<g class="st0">
	<path class="st1" d="M47,4.23c0,0.98-0.28,1.8-0.83,2.46c-0.55,0.67-1.33,1.12-2.32,1.37l2.69,5.52h1.86v1.9h-3.42l-3.37-7.11
		h-2.14v5.2h1.94v1.9H35.1v-1.9h2.07V2.14H35.1v-1.9h6.34c1.96,0,3.38,0.32,4.25,0.96C46.56,1.84,47,2.85,47,4.23z M44.62,4.19
		c0-0.71-0.22-1.23-0.67-1.56s-1.15-0.5-2.12-0.5h-2.36v4.33h2.22c0.99,0,1.73-0.17,2.21-0.52C44.38,5.61,44.62,5.02,44.62,4.19z"/>
	<path class="st1" d="M60.25,10.7h-8.92c0.13,1.02,0.52,1.82,1.18,2.42S53.98,14,54.94,14c0.7,0,1.35-0.15,1.95-0.44
		c0.6-0.29,1.1-0.74,1.51-1.34l1.84,0.83c-0.58,0.9-1.34,1.59-2.28,2.05c-0.94,0.46-1.97,0.69-3.07,0.69
		c-1.15,0-2.17-0.24-3.06-0.72c-0.89-0.48-1.58-1.15-2.08-2c-0.5-0.86-0.74-1.82-0.74-2.9c0-1.07,0.24-2.03,0.73-2.89
		c0.49-0.86,1.16-1.53,2.01-2.01c0.85-0.48,1.79-0.72,2.81-0.72c1.12,0,2.1,0.25,2.93,0.74c0.83,0.5,1.49,1.21,1.97,2.13
		C59.95,8.36,60.21,9.45,60.25,10.7z M54.61,6.31c-0.79,0-1.48,0.27-2.08,0.79c-0.59,0.53-0.98,1.23-1.14,2.1h6.66
		c-0.2-0.87-0.61-1.57-1.25-2.1C56.17,6.57,55.44,6.31,54.61,6.31z"/>
	<path class="st1" d="M70.04,5.62V4.85h1.86v4.03h-1.86c-0.08-0.78-0.39-1.37-0.93-1.78s-1.16-0.61-1.87-0.61
		c-0.61,0-1.15,0.16-1.64,0.49c-0.48,0.32-0.86,0.76-1.12,1.32c-0.26,0.55-0.4,1.16-0.4,1.81c0,1.11,0.3,2.02,0.89,2.73
		c0.59,0.71,1.38,1.06,2.35,1.06c1.5,0,2.57-0.7,3.19-2.1l1.74,0.83c-0.98,2.12-2.65,3.18-5.02,3.18c-1.06,0-2-0.25-2.82-0.75
		c-0.82-0.5-1.46-1.18-1.91-2.06c-0.45-0.87-0.67-1.83-0.67-2.9c0-1.04,0.23-1.98,0.68-2.83s1.08-1.51,1.88-1.99
		c0.8-0.48,1.68-0.71,2.66-0.71C68.21,4.57,69.21,4.92,70.04,5.62z"/>
	<path class="st1" d="M84.78,10.7h-8.92c0.13,1.02,0.52,1.82,1.18,2.42S78.52,14,79.48,14c0.7,0,1.35-0.15,1.95-0.44
		c0.6-0.29,1.1-0.74,1.51-1.34l1.84,0.83c-0.58,0.9-1.34,1.59-2.28,2.05c-0.94,0.46-1.97,0.69-3.07,0.69
		c-1.15,0-2.17-0.24-3.06-0.72c-0.89-0.48-1.58-1.15-2.08-2c-0.5-0.86-0.74-1.82-0.74-2.9c0-1.07,0.24-2.03,0.73-2.89
		c0.49-0.86,1.16-1.53,2.01-2.01c0.85-0.48,1.79-0.72,2.81-0.72c1.12,0,2.1,0.25,2.93,0.74c0.83,0.5,1.49,1.21,1.97,2.13
		C84.48,8.36,84.74,9.45,84.78,10.7z M79.14,6.31c-0.79,0-1.48,0.27-2.08,0.79c-0.59,0.53-0.98,1.23-1.14,2.1h6.66
		c-0.2-0.87-0.61-1.57-1.25-2.1C80.7,6.57,79.97,6.31,79.14,6.31z"/>
	<path class="st1" d="M91.69,4.85v1.87h-1.94v5.58c0,0.58,0.06,0.96,0.19,1.13c0.12,0.17,0.34,0.26,0.64,0.26
		c0.37,0,0.74-0.06,1.11-0.19v1.89c-0.65,0.19-1.17,0.28-1.57,0.28c-0.88,0-1.51-0.22-1.89-0.66c-0.38-0.44-0.58-1.2-0.58-2.27V6.72
		h-1.39V4.85h1.39V3.24l2.1-1.91v3.52H91.69z"/>
	<path class="st1" d="M102.19,8.61v5.02h1.78v1.86h-3.62v-1.31c-1.01,0.99-2.14,1.49-3.38,1.49c-0.65,0-1.25-0.15-1.8-0.46
		c-0.54-0.3-0.98-0.71-1.31-1.22c-0.33-0.51-0.49-1.08-0.49-1.7c0-0.67,0.18-1.26,0.54-1.79c0.36-0.52,0.85-0.93,1.46-1.21
		c0.61-0.28,1.23-0.42,1.85-0.42c1.04,0,2.01,0.3,2.91,0.91V8.65c0-0.83-0.18-1.42-0.53-1.78c-0.35-0.36-0.93-0.54-1.73-0.54
		c-0.57,0-1.04,0.1-1.42,0.31c-0.38,0.21-0.7,0.52-0.95,0.94l-2-0.5c0.45-0.84,1.06-1.47,1.83-1.89s1.68-0.62,2.74-0.62
		c1.42,0,2.47,0.32,3.12,0.97C101.86,6.19,102.19,7.21,102.19,8.61z M97.25,14.06c1.03,0,1.99-0.43,2.89-1.29v-1.25
		c-0.91-0.71-1.82-1.06-2.73-1.06c-0.55,0-1.03,0.17-1.43,0.52c-0.4,0.35-0.6,0.79-0.6,1.31c0,0.51,0.18,0.93,0.53,1.26
		S96.69,14.06,97.25,14.06z"/>
	<path class="st1" d="M109.03,11.22v2.41h2.32v1.86h-6.53v-1.86h2.14V6.72h-2.14V4.85h3.8v2.41c0.43-0.95,0.95-1.62,1.58-1.99
		c0.63-0.38,1.53-0.56,2.71-0.56h0.48v2.12h-0.46c-1.13,0-1.98,0.15-2.53,0.45c-0.55,0.3-0.92,0.75-1.1,1.35
		C109.12,9.22,109.03,10.08,109.03,11.22z"/>
	<path class="st1" d="M119.65,13.63v1.86h-5.38v-1.86h1.66V6.72h-1.66V4.85h3.76v8.78H119.65z M118.15,1.27
		c0,0.34-0.12,0.64-0.37,0.89c-0.25,0.25-0.55,0.38-0.89,0.38s-0.64-0.12-0.88-0.38c-0.24-0.25-0.36-0.55-0.36-0.89
		c0-0.34,0.12-0.64,0.36-0.89c0.24-0.25,0.54-0.38,0.88-0.38c0.36,0,0.66,0.12,0.9,0.36C118.03,0.61,118.15,0.91,118.15,1.27z"/>
	<path class="st1" d="M132.08,10.19c0,1.03-0.25,1.98-0.74,2.83c-0.49,0.86-1.16,1.54-2.01,2.04c-0.85,0.5-1.79,0.75-2.83,0.75
		c-1.07,0-2.03-0.25-2.89-0.75c-0.86-0.5-1.52-1.18-2-2.04c-0.48-0.86-0.71-1.8-0.71-2.83c0-1.08,0.24-2.04,0.71-2.9
		c0.48-0.85,1.14-1.52,1.99-2c0.85-0.48,1.82-0.72,2.9-0.72c1.05,0,1.99,0.25,2.85,0.76s1.52,1.19,2,2.05
		C131.83,8.24,132.08,9.17,132.08,10.19z M126.5,13.77c0.62,0,1.19-0.16,1.71-0.49c0.52-0.32,0.92-0.76,1.21-1.31
		c0.29-0.55,0.44-1.14,0.44-1.79c0-0.63-0.15-1.22-0.44-1.77c-0.29-0.55-0.7-0.99-1.21-1.32c-0.52-0.33-1.1-0.5-1.73-0.5
		c-0.62,0-1.19,0.16-1.71,0.49c-0.52,0.33-0.93,0.77-1.23,1.32c-0.3,0.55-0.45,1.15-0.45,1.78c0,0.63,0.15,1.23,0.45,1.78
		c0.3,0.55,0.71,0.99,1.24,1.32S125.88,13.77,126.5,13.77z"/>
	<path class="st1" d="M152.29,13.63v1.86h-4v-1.56c-1.07,1.16-2.34,1.74-3.82,1.74c-1.03,0-1.93-0.24-2.72-0.72
		c-0.79-0.48-1.4-1.14-1.83-1.97c-0.44-0.83-0.65-1.75-0.65-2.75c0-1.03,0.23-1.97,0.69-2.83s1.1-1.55,1.92-2.06s1.7-0.76,2.65-0.76
		c0.69,0,1.34,0.14,1.96,0.42c0.62,0.28,1.22,0.71,1.8,1.31V2.08h-2.06V0.23h4.13v13.39H152.29z M144.87,13.81
		c0.65,0,1.23-0.17,1.75-0.52c0.52-0.34,0.93-0.8,1.23-1.38c0.3-0.57,0.45-1.19,0.45-1.84c0-0.66-0.15-1.27-0.45-1.81
		c-0.3-0.55-0.71-0.98-1.24-1.3s-1.12-0.48-1.78-0.48c-0.64,0-1.21,0.17-1.72,0.51c-0.5,0.34-0.9,0.79-1.19,1.36
		s-0.44,1.17-0.44,1.81c0,0.69,0.15,1.31,0.45,1.86c0.3,0.55,0.7,0.99,1.21,1.31S144.24,13.81,144.87,13.81z"/>
	<path class="st1" d="M164.58,10.7h-8.92c0.13,1.02,0.52,1.82,1.18,2.42s1.47,0.89,2.43,0.89c0.7,0,1.35-0.15,1.95-0.44
		c0.6-0.29,1.1-0.74,1.51-1.34l1.84,0.83c-0.58,0.9-1.34,1.59-2.28,2.05c-0.94,0.46-1.97,0.69-3.07,0.69
		c-1.15,0-2.17-0.24-3.06-0.72c-0.89-0.48-1.58-1.15-2.08-2c-0.5-0.86-0.74-1.82-0.74-2.9c0-1.07,0.24-2.03,0.73-2.89
		c0.49-0.86,1.16-1.53,2.01-2.01c0.85-0.48,1.79-0.72,2.81-0.72c1.12,0,2.1,0.25,2.93,0.74c0.83,0.5,1.49,1.21,1.97,2.13
		C164.28,8.36,164.54,9.45,164.58,10.7z M158.94,6.31c-0.79,0-1.48,0.27-2.08,0.79c-0.59,0.53-0.98,1.23-1.14,2.1h6.66
		c-0.2-0.87-0.61-1.57-1.25-2.1C160.5,6.57,159.77,6.31,158.94,6.31z"/>
</g>
</svg>
