<?xml version="1.0" encoding="utf-8"?>
<!-- Generator: Adobe Illustrator 26.0.1, SVG Export Plug-In . SVG Version: 6.00 Build 0)  -->
<svg version="1.1" id="Layer_1" xmlns="http://www.w3.org/2000/svg" xmlns:xlink="http://www.w3.org/1999/xlink" x="0px" y="0px"
	 viewBox="0 0 253.77 49.66" style="enable-background:new 0 0 253.77 49.66;" xml:space="preserve">
<style type="text/css">
	.st0{enable-background:new    ;}
	.st1{fill:#FFFFFF;}
</style>
<g class="st0">
	<path class="st1" d="M0,49.1V13.01h13.88c2.98,0,5.61,0.47,7.88,1.42c2.27,0.95,4.17,2.24,5.69,3.86c1.52,1.63,2.68,3.53,3.46,5.72
		c0.78,2.19,1.17,4.52,1.17,6.99c0,2.74-0.43,5.23-1.3,7.45c-0.86,2.22-2.09,4.12-3.69,5.69c-1.59,1.58-3.51,2.79-5.74,3.66
		s-4.73,1.3-7.47,1.3H0z M22.01,31.01c0-1.39-0.19-2.66-0.56-3.81c-0.37-1.15-0.91-2.13-1.6-2.95c-0.69-0.81-1.55-1.45-2.57-1.91
		c-1.02-0.46-2.15-0.69-3.41-0.69H9.91v18.81h3.96c1.29,0,2.44-0.24,3.46-0.71s1.87-1.13,2.57-1.98c0.69-0.85,1.22-1.85,1.58-3
		C21.83,33.61,22.01,32.36,22.01,31.01z"/>
	<path class="st1" d="M34.51,25.13V20h9.66v5.13H34.51z M34.51,49.1V27.36h9.66V49.1H34.51z"/>
	<path class="st1" d="M55.96,49.61c-1.32,0-2.56-0.22-3.71-0.66c-1.15-0.44-2.14-1.04-2.97-1.8c-0.83-0.76-1.48-1.67-1.96-2.72
		c-0.48-1.05-0.71-2.19-0.71-3.41c0-1.36,0.29-2.59,0.86-3.71c0.58-1.12,1.37-2.08,2.39-2.9c1.02-0.81,2.23-1.44,3.63-1.88
		c1.41-0.44,2.96-0.66,4.65-0.66c2.17,0,3.96,0.34,5.39,1.02v-0.81c0-1.25-0.36-2.19-1.09-2.8c-0.73-0.61-1.91-0.92-3.53-0.92
		c-1.52,0-2.93,0.25-4.22,0.74c-1.29,0.49-2.64,1.21-4.07,2.16l-2.8-6c3.52-2.27,7.54-3.41,12.05-3.41c4.27,0,7.56,0.95,9.86,2.85
		c2.3,1.9,3.46,4.74,3.46,8.54v5.18c0,0.92,0.13,1.55,0.41,1.91c0.27,0.36,0.75,0.57,1.42,0.64v8.13c-0.78,0.17-1.52,0.3-2.21,0.38
		c-0.69,0.08-1.31,0.13-1.85,0.13c-1.73,0-3.04-0.31-3.94-0.94c-0.9-0.63-1.48-1.55-1.75-2.77l-0.2-0.97
		c-1.19,1.53-2.56,2.69-4.12,3.48C59.38,49.21,57.72,49.61,55.96,49.61z M58.86,42.69c0.58,0,1.17-0.09,1.78-0.28
		c0.61-0.19,1.15-0.43,1.63-0.74c0.37-0.27,0.68-0.57,0.92-0.89c0.24-0.32,0.36-0.65,0.36-0.99v-1.98c-0.58-0.2-1.2-0.37-1.88-0.51
		c-0.68-0.13-1.29-0.2-1.83-0.2c-1.19,0-2.17,0.29-2.95,0.86c-0.78,0.58-1.17,1.3-1.17,2.19c0,0.75,0.3,1.36,0.89,1.83
		C57.19,42.46,57.94,42.69,58.86,42.69z"/>
	<path class="st1" d="M94.59,49.61c-4.03,0-6.91-1.56-8.64-4.68v4.17h-8.39V12h9.66v14.33c0.78-1.46,1.88-2.57,3.3-3.33
		c1.42-0.76,3.1-1.14,5.03-1.14c1.63,0,3.14,0.36,4.55,1.07c1.41,0.71,2.62,1.69,3.63,2.92c1.02,1.24,1.81,2.71,2.39,4.42
		c0.58,1.71,0.86,3.57,0.86,5.57c0,2-0.31,3.84-0.94,5.51c-0.63,1.68-1.49,3.13-2.59,4.35c-1.1,1.22-2.41,2.18-3.94,2.87
		C97.99,49.26,96.35,49.61,94.59,49.61z M91.79,41.48c1.59,0,2.87-0.51,3.84-1.52s1.45-2.37,1.45-4.07c0-0.81-0.13-1.58-0.38-2.29
		c-0.25-0.71-0.59-1.34-1.02-1.88c-0.42-0.54-0.93-0.97-1.52-1.27c-0.59-0.3-1.25-0.46-1.96-0.46c-1.02,0-1.98,0.36-2.9,1.09
		c-0.92,0.73-1.61,1.69-2.08,2.87v4.78C88.47,40.56,89.99,41.48,91.79,41.48z"/>
	<path class="st1" d="M122.64,49.61c-2.34,0-4.42-0.36-6.25-1.09c-1.83-0.73-3.36-1.72-4.6-2.97c-1.24-1.25-2.18-2.69-2.82-4.32
		c-0.64-1.63-0.97-3.34-0.97-5.13c0-1.93,0.31-3.76,0.94-5.49c0.63-1.73,1.56-3.24,2.8-4.52c1.24-1.29,2.76-2.31,4.57-3.07
		c1.81-0.76,3.92-1.14,6.33-1.14c2.37,0,4.47,0.38,6.3,1.14c1.83,0.76,3.36,1.78,4.6,3.05c1.24,1.27,2.17,2.75,2.8,4.42
		c0.63,1.68,0.94,3.43,0.94,5.26c0,0.51-0.03,1.03-0.08,1.55c-0.05,0.53-0.11,0.99-0.18,1.4h-18.75c0.1,1.42,0.63,2.45,1.58,3.07
		c0.95,0.63,1.98,0.94,3.1,0.94c1.05,0,2.04-0.24,2.97-0.71c0.93-0.47,1.55-1.13,1.85-1.98l8.18,2.34
		c-1.08,2.13-2.75,3.88-5.01,5.24C128.7,48.93,125.93,49.61,122.64,49.61z M126.91,32.89c-0.17-1.29-0.64-2.3-1.42-3.05
		c-0.78-0.75-1.78-1.12-3-1.12s-2.22,0.37-3,1.12c-0.78,0.75-1.25,1.76-1.42,3.05H126.91z M127.44,20.84l-4.78-0.63l1.99-1.82h6.73
		L127.44,20.84z"/>
	<path class="st1" d="M157.91,47.63c-1.36,0.58-2.8,1.06-4.35,1.45c-1.54,0.39-3.06,0.58-4.55,0.58c-1.08,0-2.12-0.14-3.1-0.41
		c-0.98-0.27-1.84-0.71-2.57-1.32c-0.73-0.61-1.3-1.41-1.73-2.39c-0.42-0.98-0.64-2.2-0.64-3.66v-9.25h-3.3v-7.27h3.3v-5.39h9.66
		v5.39h5.23v7.27h-5.23v5.84c0,0.88,0.19,1.5,0.56,1.86c0.37,0.36,0.88,0.53,1.52,0.53c0.47,0,1.02-0.08,1.63-0.23
		c0.61-0.15,1.22-0.36,1.83-0.63L157.91,47.63z"/>
	<path class="st1" d="M159.69,25.13V20h9.66v5.13H159.69z M159.69,49.1V27.36h9.66V49.1H159.69z"/>
	<path class="st1" d="M171.79,35.73c0-1.83,0.32-3.58,0.96-5.26c0.64-1.68,1.58-3.15,2.82-4.42c1.24-1.27,2.77-2.29,4.6-3.05
		c1.83-0.76,3.93-1.14,6.3-1.14c3.25,0,5.97,0.68,8.16,2.03c2.19,1.36,3.82,3.1,4.9,5.24l-9.4,2.85c-0.92-1.32-2.15-1.98-3.71-1.98
		c-1.32,0-2.44,0.5-3.35,1.5c-0.92,1-1.37,2.41-1.37,4.24s0.46,3.25,1.37,4.24c0.91,1,2.03,1.5,3.35,1.5c1.56,0,2.8-0.66,3.71-1.98
		l9.4,2.85c-1.08,2.13-2.72,3.88-4.9,5.24s-4.9,2.03-8.16,2.03c-2.37,0-4.47-0.38-6.3-1.14c-1.83-0.76-3.36-1.78-4.6-3.05
		c-1.24-1.27-2.18-2.75-2.82-4.42C172.11,39.31,171.79,37.56,171.79,35.73z"/>
	<path class="st1" d="M214.53,49.61c-2.41,0-4.52-0.38-6.33-1.14c-1.81-0.76-3.34-1.78-4.57-3.05c-1.24-1.27-2.17-2.75-2.79-4.42
		c-0.63-1.68-0.94-3.43-0.94-5.26s0.31-3.58,0.94-5.26c0.63-1.68,1.56-3.15,2.79-4.42c1.24-1.27,2.76-2.29,4.57-3.05
		c1.81-0.76,3.92-1.14,6.33-1.14c2.37,0,4.47,0.38,6.3,1.14c1.83,0.76,3.36,1.78,4.6,3.05c1.24,1.27,2.17,2.75,2.79,4.42
		c0.63,1.68,0.94,3.43,0.94,5.26s-0.31,3.58-0.94,5.26c-0.63,1.68-1.56,3.15-2.79,4.42c-1.24,1.27-2.77,2.29-4.6,3.05
		C219.01,49.23,216.91,49.61,214.53,49.61z M209.81,35.73c0,1.8,0.44,3.2,1.32,4.22c0.88,1.02,2.02,1.52,3.41,1.52
		c1.39,0,2.52-0.51,3.41-1.52c0.88-1.02,1.32-2.42,1.32-4.22s-0.44-3.2-1.32-4.22c-0.88-1.02-2.02-1.52-3.41-1.52
		c-1.39,0-2.52,0.51-3.41,1.52C210.25,32.53,209.81,33.94,209.81,35.73z"/>
	<path class="st1" d="M242.64,49.61c-2.34,0-4.62-0.38-6.86-1.14c-2.24-0.76-4.13-1.87-5.69-3.33l3.3-5.79
		c1.66,1.12,3.26,1.98,4.8,2.59c1.54,0.61,2.96,0.91,4.24,0.91c1.35,0,2.03-0.42,2.03-1.27c0-0.47-0.26-0.88-0.79-1.22
		c-0.53-0.34-1.55-0.73-3.07-1.17c-1.9-0.54-3.48-1.08-4.75-1.6s-2.3-1.09-3.1-1.7c-0.8-0.61-1.36-1.29-1.7-2.03
		c-0.34-0.75-0.51-1.63-0.51-2.64c0-1.35,0.27-2.61,0.81-3.76c0.54-1.15,1.3-2.15,2.26-3c0.97-0.85,2.12-1.5,3.46-1.96
		c1.34-0.46,2.8-0.69,4.4-0.69c1.96,0,3.84,0.25,5.62,0.76c1.78,0.51,3.57,1.54,5.36,3.1l-3.66,5.79c-1.66-1.08-3.05-1.86-4.17-2.31
		s-2.17-0.69-3.15-0.69c-0.58,0-1.05,0.11-1.42,0.33c-0.37,0.22-0.56,0.57-0.56,1.04c0,0.51,0.27,0.92,0.81,1.25s1.61,0.69,3.2,1.09
		c1.93,0.51,3.56,1.04,4.88,1.6c1.32,0.56,2.38,1.17,3.18,1.83c0.8,0.66,1.36,1.41,1.7,2.24c0.34,0.83,0.51,1.79,0.51,2.87
		c0,1.39-0.25,2.63-0.76,3.71c-0.51,1.08-1.24,2.02-2.21,2.79c-0.96,0.78-2.13,1.37-3.51,1.78
		C245.92,49.4,244.37,49.61,242.64,49.61z"/>
</g>
<rect x="34.08" y="17.56" class="st1" width="128.32" height="1.5"/>
<g class="st0">
	<path class="st1" d="M45.01,4c0,0.98-0.28,1.8-0.83,2.46c-0.55,0.67-1.33,1.12-2.32,1.37l2.69,5.52h1.86v1.9H43l-3.37-7.11h-2.14
		v5.2h1.94v1.9h-6.32v-1.9h2.07V1.9h-2.07V0h6.34c1.96,0,3.38,0.32,4.25,0.96C44.58,1.6,45.01,2.62,45.01,4z M42.63,3.96
		c0-0.71-0.22-1.23-0.67-1.56s-1.15-0.5-2.12-0.5h-2.36v4.33h2.22c0.99,0,1.73-0.17,2.21-0.52C42.39,5.38,42.63,4.79,42.63,3.96z"/>
	<path class="st1" d="M58.27,10.47h-8.92c0.13,1.02,0.52,1.82,1.18,2.42s1.47,0.89,2.43,0.89c0.7,0,1.35-0.15,1.95-0.44
		c0.6-0.29,1.1-0.74,1.51-1.34l1.84,0.83c-0.58,0.9-1.34,1.59-2.28,2.05c-0.94,0.46-1.97,0.69-3.07,0.69
		c-1.15,0-2.17-0.24-3.06-0.72c-0.89-0.48-1.58-1.15-2.08-2c-0.5-0.86-0.74-1.82-0.74-2.9c0-1.07,0.24-2.03,0.73-2.89
		c0.49-0.86,1.16-1.53,2.01-2.01c0.85-0.48,1.79-0.72,2.81-0.72c1.12,0,2.1,0.25,2.93,0.74c0.83,0.5,1.49,1.21,1.97,2.13
		C57.97,8.12,58.23,9.21,58.27,10.47z M52.63,6.07c-0.79,0-1.48,0.27-2.08,0.79c-0.59,0.53-0.98,1.23-1.14,2.1h6.66
		c-0.2-0.87-0.61-1.57-1.25-2.1C54.19,6.34,53.46,6.07,52.63,6.07z"/>
	<path class="st1" d="M68.06,5.39V4.62h1.86v4.03h-1.86c-0.08-0.78-0.39-1.37-0.93-1.78s-1.16-0.61-1.87-0.61
		c-0.61,0-1.15,0.16-1.64,0.49c-0.48,0.32-0.86,0.76-1.12,1.32c-0.26,0.55-0.4,1.16-0.4,1.81c0,1.11,0.3,2.02,0.89,2.73
		c0.59,0.71,1.38,1.06,2.35,1.06c1.5,0,2.57-0.7,3.19-2.1l1.74,0.83c-0.98,2.12-2.65,3.18-5.02,3.18c-1.06,0-2-0.25-2.82-0.75
		c-0.82-0.5-1.46-1.18-1.91-2.06c-0.45-0.87-0.67-1.83-0.67-2.9c0-1.04,0.23-1.98,0.68-2.83s1.08-1.51,1.88-1.99
		c0.8-0.48,1.68-0.71,2.66-0.71C66.23,4.33,67.23,4.68,68.06,5.39z"/>
	<path class="st1" d="M82.8,10.47h-8.92c0.13,1.02,0.52,1.82,1.18,2.42s1.47,0.89,2.43,0.89c0.7,0,1.35-0.15,1.95-0.44
		c0.6-0.29,1.1-0.74,1.51-1.34l1.84,0.83c-0.58,0.9-1.34,1.59-2.28,2.05c-0.94,0.46-1.97,0.69-3.07,0.69
		c-1.15,0-2.17-0.24-3.06-0.72c-0.89-0.48-1.58-1.15-2.08-2c-0.5-0.86-0.74-1.82-0.74-2.9c0-1.07,0.24-2.03,0.73-2.89
		c0.49-0.86,1.16-1.53,2.01-2.01c0.85-0.48,1.79-0.72,2.81-0.72c1.12,0,2.1,0.25,2.93,0.74c0.83,0.5,1.49,1.21,1.97,2.13
		C82.5,8.12,82.76,9.21,82.8,10.47z M77.16,6.07c-0.79,0-1.48,0.27-2.08,0.79c-0.59,0.53-0.98,1.23-1.14,2.1h6.66
		c-0.2-0.87-0.61-1.57-1.25-2.1C78.72,6.34,77.99,6.07,77.16,6.07z"/>
	<path class="st1" d="M89.7,4.62v1.87h-1.94v5.58c0,0.58,0.06,0.96,0.19,1.13c0.12,0.17,0.34,0.26,0.64,0.26
		c0.37,0,0.74-0.06,1.11-0.19v1.89c-0.65,0.19-1.17,0.28-1.57,0.28c-0.88,0-1.51-0.22-1.89-0.66c-0.38-0.44-0.58-1.2-0.58-2.27V6.49
		h-1.39V4.62h1.39V3.01l2.1-1.91v3.52H89.7z"/>
	<path class="st1" d="M100.2,8.37v5.02h1.78v1.86h-3.62v-1.31c-1.01,0.99-2.14,1.49-3.38,1.49c-0.65,0-1.25-0.15-1.8-0.46
		c-0.54-0.3-0.98-0.71-1.31-1.22c-0.33-0.51-0.49-1.08-0.49-1.7c0-0.67,0.18-1.26,0.54-1.79c0.36-0.52,0.85-0.93,1.46-1.21
		c0.61-0.28,1.23-0.42,1.85-0.42c1.04,0,2.01,0.3,2.91,0.91V8.41c0-0.83-0.18-1.42-0.53-1.78c-0.35-0.36-0.93-0.54-1.73-0.54
		c-0.57,0-1.04,0.1-1.42,0.31c-0.38,0.21-0.7,0.52-0.95,0.94l-2-0.5c0.45-0.84,1.06-1.47,1.83-1.89s1.68-0.62,2.74-0.62
		c1.42,0,2.47,0.32,3.12,0.97C99.87,5.95,100.2,6.98,100.2,8.37z M95.26,13.83c1.03,0,1.99-0.43,2.89-1.29V11.3
		c-0.91-0.71-1.82-1.06-2.73-1.06c-0.55,0-1.03,0.17-1.43,0.52c-0.4,0.35-0.6,0.79-0.6,1.31c0,0.51,0.18,0.93,0.53,1.26
		S94.71,13.83,95.26,13.83z"/>
	<path class="st1" d="M109.62,5.07V4.62h1.82v3.53h-1.82V7.5c-0.61-0.87-1.44-1.31-2.49-1.31c-0.55,0-1.01,0.12-1.36,0.36
		c-0.35,0.24-0.53,0.56-0.53,0.94c0,0.34,0.13,0.61,0.4,0.81c0.27,0.2,0.87,0.37,1.8,0.52l1.41,0.27c2.1,0.38,3.15,1.41,3.15,3.09
		c0,0.98-0.38,1.76-1.14,2.36c-0.76,0.59-1.77,0.89-3.02,0.89c-0.5,0-0.99-0.07-1.47-0.22c-0.48-0.15-0.89-0.33-1.21-0.54v0.58
		h-1.86v-3.64h1.86v0.36c0.1,0.51,0.39,0.92,0.86,1.24c0.47,0.31,1.01,0.47,1.64,0.47c0.68,0,1.22-0.12,1.61-0.36
		c0.39-0.24,0.59-0.6,0.59-1.07c0-0.34-0.16-0.6-0.47-0.77c-0.31-0.17-0.93-0.35-1.87-0.53l-1.08-0.23
		c-1.07-0.22-1.86-0.59-2.36-1.11s-0.75-1.2-0.75-2.01c0-0.66,0.18-1.23,0.55-1.7c0.37-0.47,0.84-0.82,1.41-1.06
		s1.16-0.35,1.77-0.35C108.07,4.47,108.92,4.67,109.62,5.07z"/>
	<path class="st1" d="M131.62,9.99c0,0.99-0.23,1.92-0.69,2.78s-1.08,1.55-1.88,2.04c-0.79,0.5-1.67,0.75-2.64,0.75
		c-1.42,0-2.67-0.55-3.74-1.64v4.23h2.08v1.86h-6.1v-1.86h1.92V6.49h-1.78V4.62h3.88v1.7c0.53-0.62,1.11-1.08,1.74-1.39
		s1.31-0.46,2.04-0.46c1.01,0,1.9,0.25,2.68,0.74c0.78,0.5,1.39,1.17,1.83,2.01C131.4,8.07,131.62,8.99,131.62,9.99z M126.39,13.66
		c0.58,0,1.1-0.17,1.57-0.51c0.47-0.34,0.83-0.8,1.09-1.38c0.26-0.58,0.4-1.19,0.4-1.84c0-0.65-0.15-1.26-0.44-1.81
		c-0.29-0.55-0.69-0.99-1.19-1.32c-0.51-0.33-1.08-0.49-1.71-0.49c-0.66,0-1.26,0.17-1.78,0.52c-0.53,0.35-0.94,0.81-1.23,1.38
		c-0.29,0.57-0.44,1.21-0.44,1.89c0,1.11,0.35,1.97,1.05,2.6C124.41,13.34,125.3,13.66,126.39,13.66z"/>
	<path class="st1" d="M142.25,8.37v5.02h1.78v1.86h-3.62v-1.31c-1.01,0.99-2.14,1.49-3.38,1.49c-0.65,0-1.25-0.15-1.8-0.46
		c-0.54-0.3-0.98-0.71-1.31-1.22c-0.33-0.51-0.49-1.08-0.49-1.7c0-0.67,0.18-1.26,0.54-1.79c0.36-0.52,0.85-0.93,1.46-1.21
		c0.61-0.28,1.23-0.42,1.85-0.42c1.04,0,2.01,0.3,2.91,0.91V8.41c0-0.83-0.18-1.42-0.53-1.78c-0.35-0.36-0.93-0.54-1.73-0.54
		c-0.57,0-1.04,0.1-1.42,0.31c-0.38,0.21-0.7,0.52-0.95,0.94l-2-0.5c0.45-0.84,1.06-1.47,1.83-1.89s1.68-0.62,2.74-0.62
		c1.42,0,2.47,0.32,3.12,0.97C141.92,5.95,142.25,6.98,142.25,8.37z M137.31,13.83c1.03,0,1.99-0.43,2.89-1.29V11.3
		c-0.91-0.71-1.82-1.06-2.73-1.06c-0.55,0-1.03,0.17-1.43,0.52c-0.4,0.35-0.6,0.79-0.6,1.31c0,0.51,0.18,0.93,0.53,1.26
		S136.76,13.83,137.31,13.83z"/>
	<path class="st1" d="M149.1,10.99v2.41h2.32v1.86h-6.53v-1.86h2.14V6.49h-2.14V4.62h3.8v2.41c0.43-0.95,0.95-1.62,1.58-1.99
		c0.63-0.38,1.53-0.56,2.71-0.56h0.48v2.12h-0.46c-1.13,0-1.98,0.15-2.53,0.45c-0.55,0.3-0.92,0.75-1.1,1.35
		C149.19,8.98,149.1,9.85,149.1,10.99z"/>
	<path class="st1" d="M163.68,8.37v5.02h1.78v1.86h-3.62v-1.31c-1.01,0.99-2.14,1.49-3.38,1.49c-0.65,0-1.25-0.15-1.8-0.46
		c-0.54-0.3-0.98-0.71-1.31-1.22c-0.33-0.51-0.49-1.08-0.49-1.7c0-0.67,0.18-1.26,0.54-1.79c0.36-0.52,0.85-0.93,1.46-1.21
		c0.61-0.28,1.23-0.42,1.85-0.42c1.04,0,2.01,0.3,2.91,0.91V8.41c0-0.83-0.18-1.42-0.53-1.78c-0.35-0.36-0.93-0.54-1.73-0.54
		c-0.57,0-1.04,0.1-1.42,0.31c-0.38,0.21-0.7,0.52-0.95,0.94l-2-0.5c0.45-0.84,1.06-1.47,1.83-1.89s1.68-0.62,2.74-0.62
		c1.42,0,2.47,0.32,3.12,0.97C163.35,5.95,163.68,6.98,163.68,8.37z M158.74,13.83c1.03,0,1.99-0.43,2.89-1.29V11.3
		c-0.91-0.71-1.82-1.06-2.73-1.06c-0.55,0-1.03,0.17-1.43,0.52c-0.4,0.35-0.6,0.79-0.6,1.31c0,0.51,0.18,0.93,0.53,1.26
		S158.18,13.83,158.74,13.83z"/>
</g>
</svg>
