<?xml version="1.0" encoding="utf-8"?>
<!-- Generator: Adobe Illustrator 26.0.1, SVG Export Plug-In . SVG Version: 6.00 Build 0)  -->
<svg version="1.1" id="Layer_1" xmlns="http://www.w3.org/2000/svg" xmlns:xlink="http://www.w3.org/1999/xlink" x="0px" y="0px"
	 viewBox="0 0 269.02 49.97" style="enable-background:new 0 0 269.02 49.97;" xml:space="preserve">
<style type="text/css">
	.st0{enable-background:new    ;}
	.st1{fill:#FFFFFF;}
</style>
<g class="st0">
	<path class="st1" d="M26.43,46.41c-2.58,2.17-5.54,3.25-8.89,3.25c-2.34,0-4.57-0.41-6.71-1.25c-2.13-0.83-4-2.04-5.59-3.63
		c-1.59-1.59-2.86-3.54-3.81-5.84C0.47,36.64,0,34.01,0,31.06c0-2.54,0.47-4.9,1.42-7.09c0.95-2.19,2.25-4.08,3.91-5.69
		c1.66-1.61,3.62-2.88,5.87-3.81c2.25-0.93,4.68-1.4,7.29-1.4c1.63,0,3.18,0.18,4.68,0.53c1.49,0.36,2.87,0.88,4.14,1.58
		c1.27,0.7,2.41,1.53,3.43,2.49c1.02,0.97,1.85,2.06,2.49,3.28l-7.37,5.64c-0.71-1.42-1.78-2.57-3.2-3.43
		c-1.42-0.86-2.93-1.3-4.52-1.3c-1.19,0-2.27,0.24-3.25,0.71c-0.98,0.47-1.83,1.14-2.54,1.98c-0.71,0.85-1.27,1.85-1.68,3.02
		c-0.41,1.17-0.61,2.45-0.61,3.84c0,1.42,0.2,2.71,0.61,3.86c0.41,1.15,0.97,2.14,1.7,2.97c0.73,0.83,1.6,1.47,2.62,1.93
		c1.02,0.46,2.15,0.69,3.41,0.69c2.88,0,5.42-1.19,7.62-3.56h-6.25V30.2h14.84v19.21h-8.18V46.41z"/>
	<path class="st1" d="M45.95,49.92c-2.71,0-4.78-0.82-6.2-2.46c-1.42-1.64-2.13-4.04-2.13-7.19V22.68h9.66v15.4
		c0,1.19,0.26,2.1,0.79,2.74c0.52,0.64,1.25,0.97,2.16,0.97c0.74,0,1.51-0.17,2.29-0.51c0.78-0.34,1.56-1.08,2.34-2.24V22.68h9.66
		v16.06c0,0.92,0.14,1.55,0.41,1.91c0.27,0.36,0.75,0.57,1.42,0.64v8.13c-1.66,0.34-3.02,0.51-4.07,0.51
		c-3.29,0-5.18-1.24-5.69-3.71l-0.2-0.97c-1.25,1.66-2.74,2.86-4.47,3.58C50.17,49.56,48.18,49.92,45.95,49.92z"/>
	<path class="st1" d="M77.2,49.92c-1.32,0-2.56-0.22-3.71-0.66c-1.15-0.44-2.14-1.04-2.97-1.8c-0.83-0.76-1.48-1.67-1.96-2.72
		c-0.48-1.05-0.71-2.19-0.71-3.41c0-1.36,0.29-2.59,0.86-3.71c0.58-1.12,1.37-2.08,2.39-2.9c1.02-0.81,2.23-1.44,3.63-1.88
		c1.41-0.44,2.96-0.66,4.65-0.66c2.17,0,3.96,0.34,5.39,1.02v-0.81c0-1.25-0.36-2.19-1.09-2.8c-0.73-0.61-1.91-0.92-3.53-0.92
		c-1.52,0-2.93,0.25-4.22,0.74c-1.29,0.49-2.64,1.21-4.07,2.16l-2.8-6c3.52-2.27,7.54-3.41,12.05-3.41c4.27,0,7.56,0.95,9.86,2.85
		c2.3,1.9,3.46,4.74,3.46,8.54v5.18c0,0.92,0.13,1.55,0.41,1.91c0.27,0.36,0.75,0.57,1.42,0.64v8.13c-0.78,0.17-1.52,0.3-2.21,0.38
		c-0.69,0.08-1.31,0.13-1.85,0.13c-1.73,0-3.04-0.31-3.94-0.94c-0.9-0.63-1.48-1.55-1.75-2.77l-0.2-0.97
		c-1.19,1.53-2.56,2.69-4.12,3.48C80.63,49.52,78.97,49.92,77.2,49.92z M80.1,43.01c0.58,0,1.17-0.09,1.78-0.28
		c0.61-0.19,1.15-0.43,1.63-0.74c0.37-0.27,0.68-0.57,0.92-0.89c0.24-0.32,0.36-0.65,0.36-0.99v-1.98c-0.58-0.2-1.2-0.37-1.88-0.51
		c-0.68-0.13-1.29-0.2-1.83-0.2c-1.19,0-2.17,0.29-2.95,0.86c-0.78,0.58-1.17,1.3-1.17,2.19c0,0.75,0.3,1.36,0.89,1.83
		C78.43,42.77,79.19,43.01,80.1,43.01z"/>
	<path class="st1" d="M117.25,47.94c-1.36,0.58-2.8,1.06-4.35,1.45c-1.54,0.39-3.06,0.58-4.55,0.58c-1.08,0-2.12-0.14-3.1-0.41
		c-0.98-0.27-1.84-0.71-2.57-1.32c-0.73-0.61-1.3-1.41-1.73-2.39c-0.42-0.98-0.64-2.2-0.64-3.66v-9.25h-3.3v-7.27h3.3v-5.39h9.66
		v5.39h5.23v7.27h-5.23v5.84c0,0.88,0.19,1.5,0.56,1.86c0.37,0.36,0.88,0.53,1.52,0.53c0.47,0,1.02-0.08,1.63-0.23
		c0.61-0.15,1.22-0.36,1.83-0.63L117.25,47.94z"/>
	<path class="st1" d="M131.89,49.92c-2.34,0-4.42-0.36-6.25-1.09c-1.83-0.73-3.36-1.72-4.6-2.97c-1.24-1.25-2.18-2.69-2.82-4.32
		c-0.64-1.63-0.97-3.34-0.97-5.13c0-1.93,0.31-3.76,0.94-5.49c0.63-1.73,1.56-3.24,2.8-4.52c1.24-1.29,2.76-2.31,4.57-3.07
		c1.81-0.76,3.92-1.14,6.33-1.14c2.37,0,4.47,0.38,6.3,1.14c1.83,0.76,3.36,1.78,4.6,3.05c1.24,1.27,2.17,2.75,2.8,4.42
		c0.63,1.68,0.94,3.43,0.94,5.26c0,0.51-0.03,1.03-0.08,1.55c-0.05,0.53-0.11,0.99-0.18,1.4h-18.75c0.1,1.42,0.63,2.45,1.58,3.07
		c0.95,0.63,1.98,0.94,3.1,0.94c1.05,0,2.04-0.24,2.97-0.71c0.93-0.47,1.55-1.13,1.85-1.98l8.18,2.34
		c-1.08,2.13-2.75,3.88-5.01,5.24C137.95,49.24,135.18,49.92,131.89,49.92z M136.16,33.2c-0.17-1.29-0.64-2.3-1.42-3.05
		c-0.78-0.75-1.78-1.12-3-1.12s-2.22,0.37-3,1.12c-0.78,0.75-1.25,1.76-1.42,3.05H136.16z"/>
	<path class="st1" d="M191.82,49.41h-9.66V34.37c0-1.32-0.26-2.28-0.79-2.87s-1.16-0.89-1.91-0.89c-0.78,0-1.6,0.36-2.47,1.07
		c-0.86,0.71-1.5,1.63-1.91,2.75v14.99h-9.66V34.37c0-1.32-0.26-2.28-0.79-2.87c-0.53-0.59-1.16-0.89-1.91-0.89
		c-0.78,0-1.6,0.36-2.47,1.07c-0.86,0.71-1.5,1.63-1.91,2.75v14.99h-9.66V22.68h8.69v3.96c0.95-1.46,2.25-2.57,3.91-3.33
		c1.66-0.76,3.63-1.14,5.9-1.14c1.08,0,2.03,0.13,2.85,0.38c0.81,0.25,1.52,0.6,2.11,1.04s1.07,0.93,1.42,1.47
		c0.36,0.54,0.63,1.12,0.84,1.73c0.95-1.46,2.24-2.59,3.89-3.41c1.64-0.81,3.51-1.22,5.62-1.22c1.76,0,3.16,0.33,4.19,0.99
		c1.03,0.66,1.82,1.48,2.36,2.47s0.9,2.03,1.07,3.15c0.17,1.12,0.25,2.13,0.25,3.05V49.41z"/>
	<path class="st1" d="M203.4,49.92c-1.32,0-2.56-0.22-3.71-0.66c-1.15-0.44-2.14-1.04-2.97-1.8c-0.83-0.76-1.48-1.67-1.96-2.72
		c-0.47-1.05-0.71-2.19-0.71-3.41c0-1.36,0.29-2.59,0.86-3.71s1.37-2.08,2.39-2.9c1.02-0.81,2.23-1.44,3.63-1.88
		c1.41-0.44,2.96-0.66,4.65-0.66c2.17,0,3.96,0.34,5.39,1.02v-0.81c0-1.25-0.36-2.19-1.09-2.8c-0.73-0.61-1.91-0.92-3.53-0.92
		c-1.52,0-2.93,0.25-4.22,0.74c-1.29,0.49-2.64,1.21-4.07,2.16l-2.8-6c3.52-2.27,7.54-3.41,12.05-3.41c4.27,0,7.55,0.95,9.86,2.85
		c2.3,1.9,3.46,4.74,3.46,8.54v5.18c0,0.92,0.13,1.55,0.41,1.91c0.27,0.36,0.74,0.57,1.42,0.64v8.13c-0.78,0.17-1.52,0.3-2.21,0.38
		s-1.31,0.13-1.85,0.13c-1.73,0-3.04-0.31-3.94-0.94c-0.9-0.63-1.48-1.55-1.75-2.77l-0.2-0.97c-1.19,1.53-2.56,2.69-4.12,3.48
		C206.83,49.52,205.17,49.92,203.4,49.92z M206.3,43.01c0.58,0,1.17-0.09,1.78-0.28c0.61-0.19,1.15-0.43,1.63-0.74
		c0.37-0.27,0.68-0.57,0.91-0.89c0.24-0.32,0.36-0.65,0.36-0.99v-1.98c-0.58-0.2-1.2-0.37-1.88-0.51c-0.68-0.13-1.29-0.2-1.83-0.2
		c-1.19,0-2.17,0.29-2.95,0.86s-1.17,1.3-1.17,2.19c0,0.75,0.3,1.36,0.89,1.83S205.39,43.01,206.3,43.01z"/>
	<path class="st1" d="M224.8,12.31h9.66v26.48c0,2.03,0.83,3.05,2.49,3.05c0.41,0,0.85-0.07,1.32-0.2c0.47-0.13,0.92-0.32,1.32-0.56
		l1.22,7.12c-1.15,0.54-2.45,0.97-3.89,1.27c-1.44,0.3-2.8,0.46-4.09,0.46c-2.58,0-4.56-0.66-5.95-1.98
		c-1.39-1.32-2.08-3.24-2.08-5.74V12.31z"/>
	<path class="st1" d="M249.96,49.92c-1.32,0-2.56-0.22-3.71-0.66c-1.15-0.44-2.14-1.04-2.97-1.8c-0.83-0.76-1.48-1.67-1.96-2.72
		c-0.48-1.05-0.71-2.19-0.71-3.41c0-1.36,0.29-2.59,0.86-3.71c0.58-1.12,1.37-2.08,2.39-2.9c1.02-0.81,2.23-1.44,3.63-1.88
		c1.41-0.44,2.96-0.66,4.65-0.66c2.17,0,3.96,0.34,5.39,1.02v-0.81c0-1.25-0.36-2.19-1.09-2.8c-0.73-0.61-1.91-0.92-3.53-0.92
		c-1.53,0-2.93,0.25-4.22,0.74c-1.29,0.49-2.64,1.21-4.07,2.16l-2.79-6c3.52-2.27,7.54-3.41,12.05-3.41c4.27,0,7.56,0.95,9.86,2.85
		c2.3,1.9,3.46,4.74,3.46,8.54v5.18c0,0.92,0.13,1.55,0.41,1.91c0.27,0.36,0.75,0.57,1.42,0.64v8.13c-0.78,0.17-1.52,0.3-2.21,0.38
		s-1.31,0.13-1.85,0.13c-1.73,0-3.04-0.31-3.94-0.94c-0.9-0.63-1.48-1.55-1.75-2.77l-0.2-0.97c-1.19,1.53-2.56,2.69-4.12,3.48
		C253.38,49.52,251.72,49.92,249.96,49.92z M252.86,43.01c0.58,0,1.17-0.09,1.78-0.28c0.61-0.19,1.15-0.43,1.63-0.74
		c0.37-0.27,0.68-0.57,0.92-0.89c0.24-0.32,0.36-0.65,0.36-0.99v-1.98c-0.58-0.2-1.2-0.37-1.88-0.51c-0.68-0.13-1.29-0.2-1.83-0.2
		c-1.19,0-2.17,0.29-2.95,0.86s-1.17,1.3-1.17,2.19c0,0.75,0.3,1.36,0.89,1.83C251.19,42.77,251.94,43.01,252.86,43.01z"/>
</g>
<rect x="36.01" y="17.88" class="st1" width="128.32" height="1.5"/>
<g class="st0">
	<path class="st1" d="M46.94,4.31c0,0.98-0.28,1.8-0.83,2.46c-0.55,0.67-1.33,1.12-2.32,1.37l2.69,5.52h1.86v1.9h-3.42l-3.37-7.11
		h-2.14v5.2h1.94v1.9h-6.32v-1.9h2.07V2.22h-2.07v-1.9h6.34c1.96,0,3.38,0.32,4.25,0.96C46.51,1.92,46.94,2.93,46.94,4.31z
		 M44.57,4.27c0-0.71-0.22-1.23-0.67-1.56s-1.15-0.5-2.12-0.5h-2.36v4.33h2.22c0.99,0,1.73-0.17,2.21-0.52
		C44.33,5.69,44.57,5.1,44.57,4.27z"/>
	<path class="st1" d="M60.2,10.78h-8.92c0.13,1.02,0.52,1.82,1.18,2.42s1.47,0.89,2.43,0.89c0.7,0,1.35-0.15,1.95-0.44
		c0.6-0.29,1.1-0.74,1.51-1.34l1.84,0.83c-0.58,0.9-1.34,1.59-2.28,2.05c-0.94,0.46-1.97,0.69-3.07,0.69
		c-1.15,0-2.17-0.24-3.06-0.72c-0.89-0.48-1.58-1.15-2.08-2c-0.5-0.86-0.74-1.82-0.74-2.9c0-1.07,0.24-2.03,0.73-2.89
		c0.49-0.86,1.16-1.53,2.01-2.01c0.85-0.48,1.79-0.72,2.81-0.72c1.12,0,2.1,0.25,2.93,0.74c0.83,0.5,1.49,1.21,1.97,2.13
		C59.9,8.44,60.16,9.53,60.2,10.78z M54.56,6.39c-0.79,0-1.48,0.27-2.08,0.79c-0.59,0.53-0.98,1.23-1.14,2.1H58
		c-0.2-0.87-0.61-1.57-1.25-2.1C56.12,6.65,55.39,6.39,54.56,6.39z"/>
	<path class="st1" d="M69.99,5.7V4.93h1.86v4.03h-1.86c-0.08-0.78-0.39-1.37-0.93-1.78s-1.16-0.61-1.87-0.61
		c-0.61,0-1.15,0.16-1.64,0.49c-0.48,0.32-0.86,0.76-1.12,1.32c-0.26,0.55-0.4,1.16-0.4,1.81c0,1.11,0.3,2.02,0.89,2.73
		c0.59,0.71,1.38,1.06,2.35,1.06c1.5,0,2.57-0.7,3.19-2.1l1.74,0.83c-0.98,2.12-2.65,3.18-5.02,3.18c-1.06,0-2-0.25-2.82-0.75
		c-0.82-0.5-1.46-1.18-1.91-2.06c-0.45-0.87-0.67-1.83-0.67-2.9c0-1.04,0.23-1.98,0.68-2.83s1.08-1.51,1.88-1.99
		c0.8-0.48,1.68-0.71,2.66-0.71C68.16,4.65,69.16,5,69.99,5.7z"/>
	<path class="st1" d="M78.59,13.71v1.86h-5.38v-1.86h1.66V6.8h-1.66V4.93h3.76v8.78H78.59z M77.1,1.35c0,0.34-0.12,0.64-0.37,0.89
		c-0.25,0.25-0.55,0.38-0.89,0.38s-0.64-0.12-0.88-0.38c-0.24-0.25-0.36-0.55-0.36-0.89c0-0.34,0.12-0.64,0.36-0.89
		c0.24-0.25,0.54-0.38,0.88-0.38c0.36,0,0.66,0.12,0.9,0.36C76.98,0.69,77.1,0.99,77.1,1.35z"/>
	<path class="st1" d="M92.26,10.31c0,0.99-0.23,1.92-0.69,2.78s-1.08,1.55-1.88,2.04c-0.79,0.5-1.67,0.75-2.64,0.75
		c-1.42,0-2.67-0.55-3.74-1.64v4.23h2.08v1.86h-6.1v-1.86h1.92V6.8h-1.78V4.93h3.88v1.7c0.53-0.62,1.11-1.08,1.74-1.39
		s1.31-0.46,2.04-0.46c1.01,0,1.9,0.25,2.68,0.74c0.78,0.5,1.39,1.17,1.83,2.01C92.05,8.39,92.26,9.31,92.26,10.31z M87.03,13.97
		c0.58,0,1.1-0.17,1.57-0.51c0.47-0.34,0.83-0.8,1.09-1.38c0.26-0.58,0.4-1.19,0.4-1.84c0-0.65-0.15-1.26-0.44-1.81
		c-0.29-0.55-0.69-0.99-1.19-1.32c-0.51-0.33-1.08-0.49-1.71-0.49c-0.66,0-1.26,0.17-1.78,0.52c-0.53,0.35-0.94,0.81-1.23,1.38
		c-0.29,0.57-0.44,1.21-0.44,1.89c0,1.11,0.35,1.97,1.05,2.6C85.05,13.66,85.94,13.97,87.03,13.97z"/>
	<path class="st1" d="M105.07,10.78h-8.92c0.13,1.02,0.52,1.82,1.18,2.42s1.47,0.89,2.43,0.89c0.7,0,1.35-0.15,1.95-0.44
		c0.6-0.29,1.1-0.74,1.51-1.34l1.84,0.83c-0.58,0.9-1.34,1.59-2.28,2.05c-0.94,0.46-1.97,0.69-3.07,0.69
		c-1.15,0-2.17-0.24-3.06-0.72c-0.89-0.48-1.58-1.15-2.08-2c-0.5-0.86-0.74-1.82-0.74-2.9c0-1.07,0.24-2.03,0.73-2.89
		c0.49-0.86,1.16-1.53,2.01-2.01c0.85-0.48,1.79-0.72,2.81-0.72c1.12,0,2.1,0.25,2.93,0.74c0.83,0.5,1.49,1.21,1.97,2.13
		C104.77,8.44,105.03,9.53,105.07,10.78z M99.43,6.39c-0.79,0-1.48,0.27-2.08,0.79c-0.59,0.53-0.98,1.23-1.14,2.1h6.66
		c-0.2-0.87-0.61-1.57-1.25-2.1C100.99,6.65,100.26,6.39,99.43,6.39z"/>
	<path class="st1" d="M113.1,5.39V4.93h1.82v3.53h-1.82V7.82c-0.61-0.87-1.44-1.31-2.49-1.31c-0.55,0-1.01,0.12-1.36,0.36
		c-0.35,0.24-0.53,0.56-0.53,0.94c0,0.34,0.13,0.61,0.4,0.81c0.27,0.2,0.87,0.37,1.8,0.52l1.41,0.27c2.1,0.38,3.15,1.41,3.15,3.09
		c0,0.98-0.38,1.76-1.14,2.36c-0.76,0.59-1.77,0.89-3.02,0.89c-0.5,0-0.99-0.07-1.47-0.22c-0.48-0.15-0.89-0.33-1.21-0.54v0.58
		h-1.86v-3.64h1.86v0.36c0.1,0.51,0.39,0.92,0.86,1.24c0.47,0.31,1.01,0.47,1.64,0.47c0.68,0,1.22-0.12,1.61-0.36
		c0.39-0.24,0.59-0.6,0.59-1.07c0-0.34-0.16-0.6-0.47-0.77c-0.31-0.17-0.93-0.35-1.87-0.53l-1.08-0.23
		c-1.07-0.22-1.86-0.59-2.36-1.11s-0.75-1.2-0.75-2.01c0-0.66,0.18-1.23,0.55-1.7c0.37-0.47,0.84-0.82,1.41-1.06
		s1.16-0.35,1.77-0.35C111.55,4.79,112.41,4.99,113.1,5.39z"/>
	<path class="st1" d="M129.62,2.45l-1.86,0.28c-0.06-0.69-0.32-1.03-0.79-1.03c-0.33,0-0.55,0.12-0.66,0.35s-0.17,0.66-0.17,1.27
		v1.61h1.82V6.8h-1.82v6.91h2v1.86h-5.66v-1.86h1.56V6.8h-1.56V4.93h1.56V3.28c0-0.97,0.24-1.76,0.71-2.37
		C125.24,0.3,125.94,0,126.87,0c0.77,0,1.39,0.2,1.86,0.61C129.2,1.02,129.5,1.63,129.62,2.45z"/>
	<path class="st1" d="M133.11,11.3v2.41h2.32v1.86h-6.53v-1.86h2.14V6.8h-2.14V4.93h3.8v2.41c0.43-0.95,0.95-1.62,1.58-1.99
		c0.63-0.38,1.53-0.56,2.71-0.56h0.48v2.12h-0.46c-1.13,0-1.98,0.15-2.53,0.45c-0.55,0.3-0.92,0.75-1.1,1.35
		C133.2,9.3,133.11,10.17,133.11,11.3z"/>
	<path class="st1" d="M148.56,10.27c0,1.03-0.25,1.98-0.74,2.83c-0.49,0.86-1.16,1.54-2.01,2.04c-0.85,0.5-1.79,0.75-2.83,0.75
		c-1.07,0-2.03-0.25-2.89-0.75c-0.86-0.5-1.52-1.18-2-2.04c-0.48-0.86-0.71-1.8-0.71-2.83c0-1.08,0.24-2.04,0.71-2.9
		c0.48-0.85,1.14-1.52,1.99-2c0.85-0.48,1.82-0.72,2.9-0.72c1.05,0,1.99,0.25,2.85,0.76s1.52,1.19,2,2.05
		C148.31,8.32,148.56,9.25,148.56,10.27z M142.98,13.85c0.62,0,1.19-0.16,1.71-0.49c0.52-0.32,0.92-0.76,1.21-1.31
		c0.29-0.55,0.44-1.14,0.44-1.79c0-0.63-0.15-1.22-0.44-1.77c-0.29-0.55-0.7-0.99-1.21-1.32c-0.52-0.33-1.1-0.5-1.73-0.5
		c-0.62,0-1.19,0.16-1.71,0.49c-0.52,0.33-0.93,0.77-1.23,1.32c-0.3,0.55-0.45,1.15-0.45,1.78c0,0.63,0.15,1.23,0.45,1.78
		c0.3,0.55,0.71,0.99,1.24,1.32S142.36,13.85,142.98,13.85z"/>
	<path class="st1" d="M151.74,13.71V6.8h-1.79V4.93h3.88v1.35c1.25-0.99,2.47-1.49,3.68-1.49c1.23,0,2.07,0.55,2.53,1.66
		c1.36-1.11,2.65-1.66,3.86-1.66c0.86,0,1.54,0.25,2.05,0.76c0.51,0.51,0.76,1.28,0.76,2.33v5.83h1.86v1.86h-3.94V8.83
		c0-0.47-0.02-0.84-0.07-1.13s-0.17-0.54-0.37-0.74s-0.51-0.3-0.95-0.3c-0.38,0-0.83,0.11-1.35,0.34c-0.51,0.23-1.05,0.57-1.62,1.03
		v5.68h1.8v1.86h-3.9V8.57c0-0.68-0.1-1.17-0.31-1.47s-0.54-0.45-1.02-0.45c-0.77,0-1.78,0.46-3.03,1.38v5.68h1.87v1.86h-5.87v-1.86
		H151.74z"/>
</g>
</svg>
