<?xml version="1.0" encoding="utf-8"?>
<!-- Generator: Adobe Illustrator 26.0.1, SVG Export Plug-In . SVG Version: 6.00 Build 0)  -->
<svg version="1.1" id="Layer_1" xmlns="http://www.w3.org/2000/svg" xmlns:xlink="http://www.w3.org/1999/xlink" x="0px" y="0px"
	 viewBox="0 0 192.93 49.92" style="enable-background:new 0 0 192.93 49.92;" xml:space="preserve">
<style type="text/css">
	.st0{enable-background:new    ;}
	.st1{fill:#FFFFFF;}
</style>
<g class="st0">
	<path class="st1" d="M0,49.41V13.33h15.55c1.76,0,3.39,0.36,4.88,1.09c1.49,0.73,2.77,1.68,3.84,2.85s1.91,2.51,2.52,4.02
		s0.91,3.02,0.91,4.55c0,1.59-0.29,3.14-0.86,4.65c-0.58,1.51-1.38,2.85-2.41,4.02c-1.03,1.17-2.29,2.1-3.76,2.79
		c-1.47,0.7-3.09,1.04-4.85,1.04h-5.9v11.08H0z M9.91,29.69h5.24c0.61,0,1.18-0.28,1.7-0.84c0.52-0.56,0.79-1.57,0.79-3.02
		c0-1.49-0.3-2.51-0.91-3.05s-1.22-0.81-1.83-0.81H9.91V29.69z"/>
	<path class="st1" d="M37.51,49.92c-1.32,0-2.56-0.22-3.71-0.66c-1.15-0.44-2.14-1.04-2.97-1.8c-0.83-0.76-1.48-1.67-1.96-2.72
		c-0.48-1.05-0.71-2.19-0.71-3.41c0-1.36,0.29-2.59,0.86-3.71c0.58-1.12,1.37-2.08,2.39-2.9c1.02-0.81,2.23-1.44,3.63-1.88
		c1.41-0.44,2.96-0.66,4.65-0.66c2.17,0,3.96,0.34,5.39,1.02v-0.81c0-1.25-0.36-2.19-1.09-2.8c-0.73-0.61-1.91-0.92-3.53-0.92
		c-1.52,0-2.93,0.25-4.22,0.74c-1.29,0.49-2.64,1.21-4.07,2.16l-2.8-6c3.52-2.27,7.54-3.41,12.05-3.41c4.27,0,7.56,0.95,9.86,2.85
		c2.3,1.9,3.46,4.74,3.46,8.54v5.18c0,0.92,0.13,1.55,0.41,1.91c0.27,0.36,0.75,0.57,1.42,0.64v8.13c-0.78,0.17-1.52,0.3-2.21,0.38
		c-0.69,0.08-1.31,0.13-1.85,0.13c-1.73,0-3.04-0.31-3.94-0.94c-0.9-0.63-1.48-1.55-1.75-2.77l-0.2-0.97
		c-1.19,1.53-2.56,2.69-4.12,3.48C40.93,49.52,39.27,49.92,37.51,49.92z M40.41,43.01c0.58,0,1.17-0.09,1.78-0.28
		c0.61-0.19,1.15-0.43,1.63-0.74c0.37-0.27,0.68-0.57,0.92-0.89c0.24-0.32,0.36-0.65,0.36-0.99v-1.98c-0.58-0.2-1.2-0.37-1.88-0.51
		c-0.68-0.13-1.29-0.2-1.83-0.2c-1.19,0-2.17,0.29-2.95,0.86c-0.78,0.58-1.17,1.3-1.17,2.19c0,0.75,0.3,1.36,0.89,1.83
		C38.74,42.77,39.49,43.01,40.41,43.01z"/>
	<path class="st1" d="M86,49.41h-9.66V34.37c0-1.32-0.3-2.28-0.89-2.87c-0.59-0.59-1.28-0.89-2.06-0.89c-0.81,0-1.68,0.36-2.59,1.07
		c-0.91,0.71-1.59,1.63-2.03,2.75v14.99h-9.66V22.68h8.69v3.96c0.95-1.46,2.28-2.57,3.99-3.33c1.71-0.76,3.74-1.14,6.07-1.14
		c1.83,0,3.28,0.33,4.35,0.99c1.07,0.66,1.88,1.48,2.44,2.47s0.92,2.03,1.09,3.15C85.91,29.9,86,30.91,86,31.83V49.41z"/>
	<path class="st1" d="M97.58,49.92c-1.32,0-2.56-0.22-3.71-0.66c-1.15-0.44-2.14-1.04-2.97-1.8c-0.83-0.76-1.48-1.67-1.96-2.72
		c-0.48-1.05-0.71-2.19-0.71-3.41c0-1.36,0.29-2.59,0.86-3.71c0.58-1.12,1.37-2.08,2.39-2.9c1.02-0.81,2.23-1.44,3.63-1.88
		c1.41-0.44,2.96-0.66,4.65-0.66c2.17,0,3.96,0.34,5.39,1.02v-0.81c0-1.25-0.36-2.19-1.09-2.8c-0.73-0.61-1.91-0.92-3.53-0.92
		c-1.52,0-2.93,0.25-4.22,0.74c-1.29,0.49-2.64,1.21-4.07,2.16l-2.8-6c3.52-2.27,7.54-3.41,12.05-3.41c4.27,0,7.56,0.95,9.86,2.85
		c2.3,1.9,3.46,4.74,3.46,8.54v5.18c0,0.92,0.13,1.55,0.41,1.91c0.27,0.36,0.75,0.57,1.42,0.64v8.13c-0.78,0.17-1.52,0.3-2.21,0.38
		c-0.69,0.08-1.31,0.13-1.85,0.13c-1.73,0-3.04-0.31-3.94-0.94c-0.9-0.63-1.48-1.55-1.75-2.77l-0.2-0.97
		c-1.19,1.53-2.56,2.69-4.12,3.48C101.01,49.52,99.35,49.92,97.58,49.92z M100.48,43.01c0.58,0,1.17-0.09,1.78-0.28
		c0.61-0.19,1.15-0.43,1.63-0.74c0.37-0.27,0.68-0.57,0.92-0.89c0.24-0.32,0.36-0.65,0.36-0.99v-1.98c-0.58-0.2-1.2-0.37-1.88-0.51
		c-0.68-0.13-1.29-0.2-1.83-0.2c-1.19,0-2.17,0.29-2.95,0.86c-0.78,0.58-1.17,1.3-1.17,2.19c0,0.75,0.3,1.36,0.89,1.83
		C98.81,42.77,99.57,43.01,100.48,43.01z"/>
	<path class="st1" d="M162.29,49.41h-9.66V34.37c0-1.32-0.26-2.28-0.79-2.87c-0.53-0.59-1.16-0.89-1.91-0.89
		c-0.78,0-1.6,0.36-2.47,1.07c-0.86,0.71-1.5,1.63-1.91,2.75v14.99h-9.66V34.37c0-1.32-0.26-2.28-0.79-2.87
		c-0.53-0.59-1.16-0.89-1.91-0.89c-0.78,0-1.6,0.36-2.47,1.07c-0.86,0.71-1.5,1.63-1.91,2.75v14.99h-9.66V22.68h8.69v3.96
		c0.95-1.46,2.25-2.57,3.91-3.33c1.66-0.76,3.63-1.14,5.9-1.14c1.08,0,2.03,0.13,2.85,0.38c0.81,0.25,1.52,0.6,2.11,1.04
		c0.59,0.44,1.07,0.93,1.42,1.47c0.36,0.54,0.64,1.12,0.84,1.73c0.95-1.46,2.24-2.59,3.89-3.41c1.64-0.81,3.51-1.22,5.62-1.22
		c1.76,0,3.16,0.33,4.19,0.99c1.03,0.66,1.82,1.48,2.36,2.47c0.54,0.98,0.9,2.03,1.07,3.15c0.17,1.12,0.25,2.13,0.25,3.05V49.41z"/>
	<path class="st1" d="M173.87,49.92c-1.32,0-2.56-0.22-3.71-0.66c-1.15-0.44-2.14-1.04-2.97-1.8c-0.83-0.76-1.48-1.67-1.96-2.72
		c-0.48-1.05-0.71-2.19-0.71-3.41c0-1.36,0.29-2.59,0.86-3.71c0.58-1.12,1.37-2.08,2.39-2.9c1.02-0.81,2.23-1.44,3.63-1.88
		c1.41-0.44,2.96-0.66,4.65-0.66c2.17,0,3.96,0.34,5.39,1.02v-0.81c0-1.25-0.36-2.19-1.09-2.8c-0.73-0.61-1.91-0.92-3.53-0.92
		c-1.53,0-2.93,0.25-4.22,0.74c-1.29,0.49-2.64,1.21-4.07,2.16l-2.79-6c3.52-2.27,7.54-3.41,12.05-3.41c4.27,0,7.56,0.95,9.86,2.85
		c2.3,1.9,3.46,4.74,3.46,8.54v5.18c0,0.92,0.13,1.55,0.41,1.91c0.27,0.36,0.75,0.57,1.42,0.64v8.13c-0.78,0.17-1.52,0.3-2.21,0.38
		s-1.31,0.13-1.85,0.13c-1.73,0-3.04-0.31-3.94-0.94c-0.9-0.63-1.48-1.55-1.75-2.77l-0.2-0.97c-1.19,1.53-2.56,2.69-4.12,3.48
		C177.3,49.52,175.63,49.92,173.87,49.92z M176.77,43.01c0.58,0,1.17-0.09,1.78-0.28c0.61-0.19,1.15-0.43,1.63-0.74
		c0.37-0.27,0.68-0.57,0.92-0.89c0.24-0.32,0.36-0.65,0.36-0.99v-1.98c-0.58-0.2-1.2-0.37-1.88-0.51c-0.68-0.13-1.29-0.2-1.83-0.2
		c-1.19,0-2.17,0.29-2.95,0.86s-1.17,1.3-1.17,2.19c0,0.75,0.3,1.36,0.89,1.83C175.1,42.77,175.86,43.01,176.77,43.01z"/>
</g>
<rect x="34.08" y="17.88" class="st1" width="128.32" height="1.5"/>
<g class="st0">
	<path class="st1" d="M45.01,4.31c0,0.98-0.28,1.8-0.83,2.46c-0.55,0.67-1.33,1.12-2.32,1.37l2.69,5.52h1.86v1.9H43l-3.37-7.11
		h-2.14v5.2h1.94v1.9h-6.32v-1.9h2.07V2.22h-2.07v-1.9h6.34c1.96,0,3.38,0.32,4.25,0.96C44.58,1.92,45.01,2.93,45.01,4.31z
		 M42.63,4.27c0-0.71-0.22-1.23-0.67-1.56s-1.15-0.5-2.12-0.5h-2.36v4.33h2.22c0.99,0,1.73-0.17,2.21-0.52
		C42.39,5.69,42.63,5.1,42.63,4.27z"/>
	<path class="st1" d="M58.27,10.78h-8.92c0.13,1.02,0.52,1.82,1.18,2.42s1.47,0.89,2.43,0.89c0.7,0,1.35-0.15,1.95-0.44
		c0.6-0.29,1.1-0.74,1.51-1.34l1.84,0.83c-0.58,0.9-1.34,1.59-2.28,2.05c-0.94,0.46-1.97,0.69-3.07,0.69
		c-1.15,0-2.17-0.24-3.06-0.72c-0.89-0.48-1.58-1.15-2.08-2c-0.5-0.86-0.74-1.82-0.74-2.9c0-1.07,0.24-2.03,0.73-2.89
		c0.49-0.86,1.16-1.53,2.01-2.01c0.85-0.48,1.79-0.72,2.81-0.72c1.12,0,2.1,0.25,2.93,0.74c0.83,0.5,1.49,1.21,1.97,2.13
		C57.97,8.44,58.23,9.53,58.27,10.78z M52.63,6.39c-0.79,0-1.48,0.27-2.08,0.79c-0.59,0.53-0.98,1.23-1.14,2.1h6.66
		c-0.2-0.87-0.61-1.57-1.25-2.1C54.19,6.65,53.46,6.39,52.63,6.39z"/>
	<path class="st1" d="M68.06,5.7V4.93h1.86v4.03h-1.86c-0.08-0.78-0.39-1.37-0.93-1.78s-1.16-0.61-1.87-0.61
		c-0.61,0-1.15,0.16-1.64,0.49c-0.48,0.32-0.86,0.76-1.12,1.32c-0.26,0.55-0.4,1.16-0.4,1.81c0,1.11,0.3,2.02,0.89,2.73
		c0.59,0.71,1.38,1.06,2.35,1.06c1.5,0,2.57-0.7,3.19-2.1l1.74,0.83c-0.98,2.12-2.65,3.18-5.02,3.18c-1.06,0-2-0.25-2.82-0.75
		c-0.82-0.5-1.46-1.18-1.91-2.06c-0.45-0.87-0.67-1.83-0.67-2.9c0-1.04,0.23-1.98,0.68-2.83s1.08-1.51,1.88-1.99
		c0.8-0.48,1.68-0.71,2.66-0.71C66.23,4.65,67.23,5,68.06,5.7z"/>
	<path class="st1" d="M76.66,13.71v1.86h-5.38v-1.86h1.66V6.8h-1.66V4.93h3.76v8.78H76.66z M75.16,1.35c0,0.34-0.12,0.64-0.37,0.89
		c-0.25,0.25-0.55,0.38-0.89,0.38s-0.64-0.12-0.88-0.38c-0.24-0.25-0.36-0.55-0.36-0.89c0-0.34,0.12-0.64,0.36-0.89
		c0.24-0.25,0.54-0.38,0.88-0.38c0.36,0,0.66,0.12,0.9,0.36C75.04,0.69,75.16,0.99,75.16,1.35z"/>
	<path class="st1" d="M90.33,10.31c0,0.99-0.23,1.92-0.69,2.78s-1.08,1.55-1.88,2.04c-0.79,0.5-1.67,0.75-2.64,0.75
		c-1.42,0-2.67-0.55-3.74-1.64v4.23h2.08v1.86h-6.1v-1.86h1.92V6.8h-1.78V4.93h3.88v1.7c0.53-0.62,1.11-1.08,1.74-1.39
		s1.31-0.46,2.04-0.46c1.01,0,1.9,0.25,2.68,0.74c0.78,0.5,1.39,1.17,1.83,2.01C90.11,8.39,90.33,9.31,90.33,10.31z M85.1,13.97
		c0.58,0,1.1-0.17,1.57-0.51c0.47-0.34,0.83-0.8,1.09-1.38c0.26-0.58,0.4-1.19,0.4-1.84c0-0.65-0.15-1.26-0.44-1.81
		c-0.29-0.55-0.69-0.99-1.19-1.32c-0.51-0.33-1.08-0.49-1.71-0.49c-0.66,0-1.26,0.17-1.78,0.52c-0.53,0.35-0.94,0.81-1.23,1.38
		c-0.29,0.57-0.44,1.21-0.44,1.89c0,1.11,0.35,1.97,1.05,2.6C83.12,13.66,84.01,13.97,85.1,13.97z"/>
	<path class="st1" d="M103.14,10.78h-8.92c0.13,1.02,0.52,1.82,1.18,2.42s1.47,0.89,2.43,0.89c0.7,0,1.35-0.15,1.95-0.44
		c0.6-0.29,1.1-0.74,1.51-1.34l1.84,0.83c-0.58,0.9-1.34,1.59-2.28,2.05c-0.94,0.46-1.97,0.69-3.07,0.69
		c-1.15,0-2.17-0.24-3.06-0.72c-0.89-0.48-1.58-1.15-2.08-2c-0.5-0.86-0.74-1.82-0.74-2.9c0-1.07,0.24-2.03,0.73-2.89
		c0.49-0.86,1.16-1.53,2.01-2.01c0.85-0.48,1.79-0.72,2.81-0.72c1.12,0,2.1,0.25,2.93,0.74c0.83,0.5,1.49,1.21,1.97,2.13
		C102.84,8.44,103.1,9.53,103.14,10.78z M97.5,6.39c-0.79,0-1.48,0.27-2.08,0.79c-0.59,0.53-0.98,1.23-1.14,2.1h6.66
		c-0.2-0.87-0.61-1.57-1.25-2.1C99.06,6.65,98.33,6.39,97.5,6.39z"/>
	<path class="st1" d="M111.17,5.39V4.93h1.82v3.53h-1.82V7.82c-0.61-0.87-1.44-1.31-2.49-1.31c-0.55,0-1.01,0.12-1.36,0.36
		c-0.35,0.24-0.53,0.56-0.53,0.94c0,0.34,0.13,0.61,0.4,0.81c0.27,0.2,0.87,0.37,1.8,0.52l1.41,0.27c2.1,0.38,3.15,1.41,3.15,3.09
		c0,0.98-0.38,1.76-1.14,2.36c-0.76,0.59-1.77,0.89-3.02,0.89c-0.5,0-0.99-0.07-1.47-0.22c-0.48-0.15-0.89-0.33-1.21-0.54v0.58
		h-1.86v-3.64h1.86v0.36c0.1,0.51,0.39,0.92,0.86,1.24c0.47,0.31,1.01,0.47,1.64,0.47c0.68,0,1.22-0.12,1.61-0.36
		c0.39-0.24,0.59-0.6,0.59-1.07c0-0.34-0.16-0.6-0.47-0.77c-0.31-0.17-0.93-0.35-1.87-0.53l-1.08-0.23
		c-1.07-0.22-1.86-0.59-2.36-1.11s-0.75-1.2-0.75-2.01c0-0.66,0.18-1.23,0.55-1.7c0.37-0.47,0.84-0.82,1.41-1.06
		s1.16-0.35,1.77-0.35C109.62,4.79,110.47,4.99,111.17,5.39z"/>
	<path class="st1" d="M127.69,2.45l-1.86,0.28c-0.06-0.69-0.32-1.03-0.79-1.03c-0.33,0-0.55,0.12-0.66,0.35s-0.17,0.66-0.17,1.27
		v1.61h1.82V6.8h-1.82v6.91h2v1.86h-5.66v-1.86h1.56V6.8h-1.56V4.93h1.56V3.28c0-0.97,0.24-1.76,0.71-2.37
		C123.3,0.3,124.01,0,124.94,0c0.77,0,1.39,0.2,1.86,0.61C127.27,1.02,127.56,1.63,127.69,2.45z"/>
	<path class="st1" d="M131.18,11.3v2.41h2.32v1.86h-6.53v-1.86h2.14V6.8h-2.14V4.93h3.8v2.41c0.43-0.95,0.95-1.62,1.58-1.99
		c0.63-0.38,1.53-0.56,2.71-0.56h0.48v2.12h-0.46c-1.13,0-1.98,0.15-2.53,0.45c-0.55,0.3-0.92,0.75-1.1,1.35
		C131.27,9.3,131.18,10.17,131.18,11.3z"/>
	<path class="st1" d="M146.63,10.27c0,1.03-0.25,1.98-0.74,2.83c-0.49,0.86-1.16,1.54-2.01,2.04c-0.85,0.5-1.79,0.75-2.83,0.75
		c-1.07,0-2.03-0.25-2.89-0.75c-0.86-0.5-1.52-1.18-2-2.04c-0.48-0.86-0.71-1.8-0.71-2.83c0-1.08,0.24-2.04,0.71-2.9
		c0.48-0.85,1.14-1.52,1.99-2c0.85-0.48,1.82-0.72,2.9-0.72c1.05,0,1.99,0.25,2.85,0.76s1.52,1.19,2,2.05
		C146.38,8.32,146.63,9.25,146.63,10.27z M141.05,13.85c0.62,0,1.19-0.16,1.71-0.49c0.52-0.32,0.92-0.76,1.21-1.31
		c0.29-0.55,0.44-1.14,0.44-1.79c0-0.63-0.15-1.22-0.44-1.77c-0.29-0.55-0.7-0.99-1.21-1.32c-0.52-0.33-1.1-0.5-1.73-0.5
		c-0.62,0-1.19,0.16-1.71,0.49c-0.52,0.33-0.93,0.77-1.23,1.32c-0.3,0.55-0.45,1.15-0.45,1.78c0,0.63,0.15,1.23,0.45,1.78
		c0.3,0.55,0.71,0.99,1.24,1.32S140.43,13.85,141.05,13.85z"/>
	<path class="st1" d="M149.81,13.71V6.8h-1.79V4.93h3.88v1.35c1.25-0.99,2.47-1.49,3.68-1.49c1.23,0,2.07,0.55,2.53,1.66
		c1.36-1.11,2.65-1.66,3.86-1.66c0.86,0,1.54,0.25,2.05,0.76c0.51,0.51,0.76,1.28,0.76,2.33v5.83h1.86v1.86h-3.94V8.83
		c0-0.47-0.02-0.84-0.07-1.13s-0.17-0.54-0.37-0.74s-0.51-0.3-0.95-0.3c-0.38,0-0.83,0.11-1.35,0.34c-0.51,0.23-1.05,0.57-1.62,1.03
		v5.68h1.8v1.86h-3.9V8.57c0-0.68-0.1-1.17-0.31-1.47s-0.54-0.45-1.02-0.45c-0.77,0-1.78,0.46-3.03,1.38v5.68h1.87v1.86h-5.87v-1.86
		H149.81z"/>
</g>
</svg>
