<?xml version="1.0" encoding="utf-8"?>
<!-- Generator: Adobe Illustrator 26.0.1, SVG Export Plug-In . SVG Version: 6.00 Build 0)  -->
<svg version="1.1" id="Layer_1" xmlns="http://www.w3.org/2000/svg" xmlns:xlink="http://www.w3.org/1999/xlink" x="0px" y="0px"
	 viewBox="0 0 309.63 49.61" style="enable-background:new 0 0 309.63 49.61;" xml:space="preserve">
<style type="text/css">
	.st0{enable-background:new    ;}
	.st1{fill:#FFFFFF;}
</style>
<g class="st0">
	<path class="st1" d="M0,49.1V13.01h13.88c2.98,0,5.61,0.47,7.88,1.42c2.27,0.95,4.17,2.24,5.69,3.86c1.52,1.63,2.68,3.53,3.46,5.72
		c0.78,2.19,1.17,4.52,1.17,6.99c0,2.74-0.43,5.23-1.3,7.45c-0.86,2.22-2.09,4.12-3.69,5.69c-1.59,1.58-3.51,2.79-5.74,3.66
		s-4.73,1.3-7.47,1.3H0z M22.01,31.01c0-1.39-0.19-2.66-0.56-3.81c-0.37-1.15-0.91-2.13-1.6-2.95c-0.69-0.81-1.55-1.45-2.57-1.91
		c-1.02-0.46-2.15-0.69-3.41-0.69H9.91v18.81h3.96c1.29,0,2.44-0.24,3.46-0.71s1.87-1.13,2.57-1.98c0.69-0.85,1.22-1.85,1.58-3
		C21.83,33.61,22.01,32.36,22.01,31.01z"/>
	<path class="st1" d="M47.93,49.61c-2.41,0-4.52-0.38-6.33-1.14c-1.81-0.76-3.34-1.78-4.57-3.05c-1.24-1.27-2.17-2.75-2.8-4.42
		c-0.63-1.68-0.94-3.43-0.94-5.26s0.31-3.58,0.94-5.26c0.63-1.68,1.56-3.15,2.8-4.42c1.24-1.27,2.76-2.29,4.57-3.05
		c1.81-0.76,3.92-1.14,6.33-1.14c2.37,0,4.47,0.38,6.3,1.14c1.83,0.76,3.36,1.78,4.6,3.05c1.24,1.27,2.17,2.75,2.8,4.42
		c0.63,1.68,0.94,3.43,0.94,5.26s-0.31,3.58-0.94,5.26c-0.63,1.68-1.56,3.15-2.8,4.42c-1.24,1.27-2.77,2.29-4.6,3.05
		C52.4,49.23,50.3,49.61,47.93,49.61z M43.2,35.73c0,1.8,0.44,3.2,1.32,4.22c0.88,1.02,2.02,1.52,3.41,1.52
		c1.39,0,2.52-0.51,3.41-1.52c0.88-1.02,1.32-2.42,1.32-4.22s-0.44-3.2-1.32-4.22c-0.88-1.02-2.02-1.52-3.41-1.52
		c-1.39,0-2.52,0.51-3.41,1.52C43.64,32.53,43.2,33.94,43.2,35.73z"/>
	<path class="st1" d="M108.11,49.1h-9.66V34.05c0-1.32-0.26-2.28-0.79-2.87c-0.53-0.59-1.16-0.89-1.91-0.89
		c-0.78,0-1.6,0.36-2.47,1.07c-0.86,0.71-1.5,1.63-1.91,2.75V49.1h-9.66V34.05c0-1.32-0.26-2.28-0.79-2.87
		c-0.53-0.59-1.16-0.89-1.91-0.89c-0.78,0-1.6,0.36-2.47,1.07c-0.86,0.71-1.5,1.63-1.91,2.75V49.1h-9.66V22.36h8.69v3.96
		c0.95-1.46,2.25-2.57,3.91-3.33c1.66-0.76,3.63-1.14,5.9-1.14c1.08,0,2.03,0.13,2.85,0.38c0.81,0.25,1.52,0.6,2.11,1.04
		c0.59,0.44,1.07,0.93,1.42,1.47c0.36,0.54,0.64,1.12,0.84,1.73c0.95-1.46,2.24-2.59,3.89-3.41c1.64-0.81,3.51-1.22,5.62-1.22
		c1.76,0,3.16,0.33,4.19,0.99c1.03,0.66,1.82,1.48,2.36,2.47c0.54,0.98,0.9,2.03,1.07,3.15c0.17,1.12,0.25,2.13,0.25,3.05V49.1z"/>
	<path class="st1" d="M111.82,26.13V20h9.66v6.13H111.82z M111.82,49.1V28.36h9.66V49.1H111.82z"/>
	<path class="st1" d="M152.27,49.1h-9.66V34.05c0-1.32-0.3-2.28-0.89-2.87c-0.59-0.59-1.28-0.89-2.06-0.89
		c-0.81,0-1.68,0.36-2.59,1.07c-0.91,0.71-1.59,1.63-2.03,2.75V49.1h-9.66V22.36h8.69v3.96c0.95-1.46,2.28-2.57,3.99-3.33
		c1.71-0.76,3.74-1.14,6.07-1.14c1.83,0,3.28,0.33,4.35,0.99c1.07,0.66,1.88,1.48,2.44,2.47s0.92,2.03,1.09,3.15
		c0.17,1.12,0.25,2.13,0.25,3.05V49.1z"/>
	<path class="st1" d="M155.98,26.13V20h9.66v6.13H155.98z M155.98,49.1V28.36h9.66V49.1H155.98z"/>
	<path class="st1" d="M168.08,35.73c0-1.83,0.32-3.58,0.96-5.26c0.64-1.68,1.58-3.15,2.82-4.42c1.24-1.27,2.77-2.29,4.6-3.05
		c1.83-0.76,3.93-1.14,6.3-1.14c3.25,0,5.97,0.68,8.16,2.03c2.19,1.36,3.82,3.1,4.9,5.24l-9.4,2.85c-0.92-1.32-2.15-1.98-3.71-1.98
		c-1.32,0-2.44,0.5-3.35,1.5c-0.92,1-1.37,2.41-1.37,4.24s0.46,3.25,1.37,4.24c0.91,1,2.03,1.5,3.35,1.5c1.56,0,2.8-0.66,3.71-1.98
		l9.4,2.85c-1.08,2.13-2.72,3.88-4.9,5.24s-4.9,2.03-8.16,2.03c-2.37,0-4.47-0.38-6.3-1.14c-1.83-0.76-3.36-1.78-4.6-3.05
		c-1.24-1.27-2.18-2.75-2.82-4.42C168.4,39.31,168.08,37.56,168.08,35.73z"/>
	<path class="st1" d="M205.79,49.61c-1.32,0-2.56-0.22-3.71-0.66c-1.15-0.44-2.14-1.04-2.97-1.8c-0.83-0.76-1.48-1.67-1.96-2.72
		c-0.48-1.05-0.71-2.19-0.71-3.41c0-1.36,0.29-2.59,0.86-3.71c0.58-1.12,1.37-2.08,2.39-2.9c1.02-0.81,2.23-1.44,3.63-1.88
		c1.41-0.44,2.96-0.66,4.65-0.66c2.17,0,3.96,0.34,5.39,1.02v-0.81c0-1.25-0.36-2.19-1.09-2.8c-0.73-0.61-1.91-0.92-3.53-0.92
		c-1.53,0-2.93,0.25-4.22,0.74c-1.29,0.49-2.64,1.21-4.07,2.16l-2.79-6c3.52-2.27,7.54-3.41,12.05-3.41c4.27,0,7.56,0.95,9.86,2.85
		c2.3,1.9,3.46,4.74,3.46,8.54v5.18c0,0.92,0.13,1.55,0.41,1.91c0.27,0.36,0.75,0.57,1.42,0.64v8.13c-0.78,0.17-1.52,0.3-2.21,0.38
		s-1.31,0.13-1.85,0.13c-1.73,0-3.04-0.31-3.94-0.94c-0.9-0.63-1.48-1.55-1.75-2.77l-0.2-0.97c-1.19,1.53-2.56,2.69-4.12,3.48
		C209.21,49.21,207.55,49.61,205.79,49.61z M208.69,42.69c0.58,0,1.17-0.09,1.78-0.28c0.61-0.19,1.15-0.43,1.63-0.74
		c0.37-0.27,0.68-0.57,0.92-0.89c0.24-0.32,0.36-0.65,0.36-0.99v-1.98c-0.58-0.2-1.2-0.37-1.88-0.51c-0.68-0.13-1.29-0.2-1.83-0.2
		c-1.19,0-2.17,0.29-2.95,0.86s-1.17,1.3-1.17,2.19c0,0.75,0.3,1.36,0.89,1.83C207.02,42.46,207.77,42.69,208.69,42.69z"/>
	<path class="st1" d="M254.28,49.1h-9.66V34.05c0-1.32-0.3-2.28-0.89-2.87c-0.59-0.59-1.28-0.89-2.06-0.89
		c-0.81,0-1.68,0.36-2.59,1.07s-1.59,1.63-2.03,2.75V49.1h-9.66V22.36h8.69v3.96c0.95-1.46,2.28-2.57,3.99-3.33
		c1.71-0.76,3.74-1.14,6.07-1.14c1.83,0,3.28,0.33,4.35,0.99c1.07,0.66,1.88,1.48,2.44,2.47c0.56,0.98,0.92,2.03,1.09,3.15
		s0.25,2.13,0.25,3.05V49.1z"/>
	<path class="st1" d="M265.87,49.61c-1.32,0-2.56-0.22-3.71-0.66c-1.15-0.44-2.14-1.04-2.97-1.8c-0.83-0.76-1.48-1.67-1.96-2.72
		c-0.47-1.05-0.71-2.19-0.71-3.41c0-1.36,0.29-2.59,0.86-3.71s1.37-2.08,2.39-2.9s2.23-1.44,3.63-1.88
		c1.41-0.44,2.96-0.66,4.65-0.66c2.17,0,3.96,0.34,5.39,1.02v-0.81c0-1.25-0.36-2.19-1.09-2.8c-0.73-0.61-1.91-0.92-3.53-0.92
		c-1.52,0-2.93,0.25-4.22,0.74s-2.64,1.21-4.07,2.16l-2.8-6c3.52-2.27,7.54-3.41,12.05-3.41c4.27,0,7.55,0.95,9.86,2.85
		c2.3,1.9,3.46,4.74,3.46,8.54v5.18c0,0.92,0.13,1.55,0.41,1.91s0.75,0.57,1.42,0.64v8.13c-0.78,0.17-1.52,0.3-2.21,0.38
		c-0.7,0.08-1.31,0.13-1.86,0.13c-1.73,0-3.04-0.31-3.94-0.94c-0.9-0.63-1.48-1.55-1.75-2.77l-0.2-0.97
		c-1.19,1.53-2.56,2.69-4.12,3.48C269.29,49.21,267.63,49.61,265.87,49.61z M268.76,42.69c0.58,0,1.17-0.09,1.78-0.28
		c0.61-0.19,1.15-0.43,1.63-0.74c0.37-0.27,0.68-0.57,0.92-0.89c0.24-0.32,0.36-0.65,0.36-0.99v-1.98c-0.58-0.2-1.2-0.37-1.88-0.51
		c-0.68-0.13-1.29-0.2-1.83-0.2c-1.19,0-2.17,0.29-2.95,0.86c-0.78,0.58-1.17,1.3-1.17,2.19c0,0.75,0.3,1.36,0.89,1.83
		S267.85,42.69,268.76,42.69z"/>
	<path class="st1" d="M298.5,49.61c-2.34,0-4.62-0.38-6.86-1.14c-2.24-0.76-4.13-1.87-5.69-3.33l3.3-5.79
		c1.66,1.12,3.26,1.98,4.8,2.59c1.54,0.61,2.96,0.91,4.24,0.91c1.35,0,2.03-0.42,2.03-1.27c0-0.47-0.26-0.88-0.79-1.22
		c-0.53-0.34-1.55-0.73-3.07-1.17c-1.9-0.54-3.48-1.08-4.75-1.6c-1.27-0.53-2.3-1.09-3.1-1.7c-0.8-0.61-1.36-1.29-1.7-2.03
		c-0.34-0.75-0.51-1.63-0.51-2.64c0-1.35,0.27-2.61,0.81-3.76c0.54-1.15,1.29-2.15,2.26-3c0.96-0.85,2.12-1.5,3.46-1.96
		c1.34-0.46,2.8-0.69,4.4-0.69c1.96,0,3.84,0.25,5.62,0.76c1.78,0.51,3.57,1.54,5.36,3.1l-3.66,5.79c-1.66-1.08-3.05-1.86-4.17-2.31
		c-1.12-0.46-2.17-0.69-3.15-0.69c-0.58,0-1.05,0.11-1.42,0.33c-0.37,0.22-0.56,0.57-0.56,1.04c0,0.51,0.27,0.92,0.81,1.25
		c0.54,0.32,1.61,0.69,3.2,1.09c1.93,0.51,3.56,1.04,4.88,1.6c1.32,0.56,2.38,1.17,3.18,1.83c0.79,0.66,1.36,1.41,1.7,2.24
		s0.51,1.79,0.51,2.87c0,1.39-0.25,2.63-0.76,3.71c-0.51,1.08-1.25,2.02-2.21,2.79c-0.97,0.78-2.13,1.37-3.51,1.78
		C301.77,49.4,300.22,49.61,298.5,49.61z"/>
</g>
<rect x="34.08" y="17.56" class="st1" width="128.32" height="1.5"/>
<g class="st0">
	<path class="st1" d="M45.01,4c0,0.98-0.28,1.8-0.83,2.46c-0.55,0.67-1.33,1.12-2.32,1.37l2.69,5.52h1.86v1.9H43l-3.37-7.11h-2.14
		v5.2h1.94v1.9h-6.32v-1.9h2.07V1.9h-2.07V0h6.34c1.96,0,3.38,0.32,4.25,0.96C44.58,1.6,45.01,2.62,45.01,4z M42.63,3.96
		c0-0.71-0.22-1.23-0.67-1.56s-1.15-0.5-2.12-0.5h-2.36v4.33h2.22c0.99,0,1.73-0.17,2.21-0.52C42.39,5.38,42.63,4.79,42.63,3.96z"/>
	<path class="st1" d="M58.27,10.47h-8.92c0.13,1.02,0.52,1.82,1.18,2.42s1.47,0.89,2.43,0.89c0.7,0,1.35-0.15,1.95-0.44
		c0.6-0.29,1.1-0.74,1.51-1.34l1.84,0.83c-0.58,0.9-1.34,1.59-2.28,2.05c-0.94,0.46-1.97,0.69-3.07,0.69
		c-1.15,0-2.17-0.24-3.06-0.72c-0.89-0.48-1.58-1.15-2.08-2c-0.5-0.86-0.74-1.82-0.74-2.9c0-1.07,0.24-2.03,0.73-2.89
		c0.49-0.86,1.16-1.53,2.01-2.01c0.85-0.48,1.79-0.72,2.81-0.72c1.12,0,2.1,0.25,2.93,0.74c0.83,0.5,1.49,1.21,1.97,2.13
		C57.97,8.12,58.23,9.21,58.27,10.47z M52.63,6.07c-0.79,0-1.48,0.27-2.08,0.79c-0.59,0.53-0.98,1.23-1.14,2.1h6.66
		c-0.2-0.87-0.61-1.57-1.25-2.1C54.19,6.34,53.46,6.07,52.63,6.07z"/>
	<path class="st1" d="M68.06,5.39V4.62h1.86v4.03h-1.86c-0.08-0.78-0.39-1.37-0.93-1.78s-1.16-0.61-1.87-0.61
		c-0.61,0-1.15,0.16-1.64,0.49c-0.48,0.32-0.86,0.76-1.12,1.32c-0.26,0.55-0.4,1.16-0.4,1.81c0,1.11,0.3,2.02,0.89,2.73
		c0.59,0.71,1.38,1.06,2.35,1.06c1.5,0,2.57-0.7,3.19-2.1l1.74,0.83c-0.98,2.12-2.65,3.18-5.02,3.18c-1.06,0-2-0.25-2.82-0.75
		c-0.82-0.5-1.46-1.18-1.91-2.06c-0.45-0.87-0.67-1.83-0.67-2.9c0-1.04,0.23-1.98,0.68-2.83s1.08-1.51,1.88-1.99
		c0.8-0.48,1.68-0.71,2.66-0.71C66.23,4.33,67.23,4.68,68.06,5.39z"/>
	<path class="st1" d="M82.8,10.47h-8.92c0.13,1.02,0.52,1.82,1.18,2.42s1.47,0.89,2.43,0.89c0.7,0,1.35-0.15,1.95-0.44
		c0.6-0.29,1.1-0.74,1.51-1.34l1.84,0.83c-0.58,0.9-1.34,1.59-2.28,2.05c-0.94,0.46-1.97,0.69-3.07,0.69
		c-1.15,0-2.17-0.24-3.06-0.72c-0.89-0.48-1.58-1.15-2.08-2c-0.5-0.86-0.74-1.82-0.74-2.9c0-1.07,0.24-2.03,0.73-2.89
		c0.49-0.86,1.16-1.53,2.01-2.01c0.85-0.48,1.79-0.72,2.81-0.72c1.12,0,2.1,0.25,2.93,0.74c0.83,0.5,1.49,1.21,1.97,2.13
		C82.5,8.12,82.76,9.21,82.8,10.47z M77.16,6.07c-0.79,0-1.48,0.27-2.08,0.79c-0.59,0.53-0.98,1.23-1.14,2.1h6.66
		c-0.2-0.87-0.61-1.57-1.25-2.1C78.72,6.34,77.99,6.07,77.16,6.07z"/>
	<path class="st1" d="M89.7,4.62v1.87h-1.94v5.58c0,0.58,0.06,0.96,0.19,1.13c0.12,0.17,0.34,0.26,0.64,0.26
		c0.37,0,0.74-0.06,1.11-0.19v1.89c-0.65,0.19-1.17,0.28-1.57,0.28c-0.88,0-1.51-0.22-1.89-0.66c-0.38-0.44-0.58-1.2-0.58-2.27V6.49
		h-1.39V4.62h1.39V3.01l2.1-1.91v3.52H89.7z"/>
	<path class="st1" d="M100.2,8.37v5.02h1.78v1.86h-3.62v-1.31c-1.01,0.99-2.14,1.49-3.38,1.49c-0.65,0-1.25-0.15-1.8-0.46
		c-0.54-0.3-0.98-0.71-1.31-1.22c-0.33-0.51-0.49-1.08-0.49-1.7c0-0.67,0.18-1.26,0.54-1.79c0.36-0.52,0.85-0.93,1.46-1.21
		c0.61-0.28,1.23-0.42,1.85-0.42c1.04,0,2.01,0.3,2.91,0.91V8.41c0-0.83-0.18-1.42-0.53-1.78c-0.35-0.36-0.93-0.54-1.73-0.54
		c-0.57,0-1.04,0.1-1.42,0.31c-0.38,0.21-0.7,0.52-0.95,0.94l-2-0.5c0.45-0.84,1.06-1.47,1.83-1.89s1.68-0.62,2.74-0.62
		c1.42,0,2.47,0.32,3.12,0.97C99.87,5.95,100.2,6.98,100.2,8.37z M95.26,13.83c1.03,0,1.99-0.43,2.89-1.29V11.3
		c-0.91-0.71-1.82-1.06-2.73-1.06c-0.55,0-1.03,0.17-1.43,0.52c-0.4,0.35-0.6,0.79-0.6,1.31c0,0.51,0.18,0.93,0.53,1.26
		S94.71,13.83,95.26,13.83z"/>
	<path class="st1" d="M109.62,5.07V4.62h1.82v3.53h-1.82V7.5c-0.61-0.87-1.44-1.31-2.49-1.31c-0.55,0-1.01,0.12-1.36,0.36
		c-0.35,0.24-0.53,0.56-0.53,0.94c0,0.34,0.13,0.61,0.4,0.81c0.27,0.2,0.87,0.37,1.8,0.52l1.41,0.27c2.1,0.38,3.15,1.41,3.15,3.09
		c0,0.98-0.38,1.76-1.14,2.36c-0.76,0.59-1.77,0.89-3.02,0.89c-0.5,0-0.99-0.07-1.47-0.22c-0.48-0.15-0.89-0.33-1.21-0.54v0.58
		h-1.86v-3.64h1.86v0.36c0.1,0.51,0.39,0.92,0.86,1.24c0.47,0.31,1.01,0.47,1.64,0.47c0.68,0,1.22-0.12,1.61-0.36
		c0.39-0.24,0.59-0.6,0.59-1.07c0-0.34-0.16-0.6-0.47-0.77c-0.31-0.17-0.93-0.35-1.87-0.53l-1.08-0.23
		c-1.07-0.22-1.86-0.59-2.36-1.11s-0.75-1.2-0.75-2.01c0-0.66,0.18-1.23,0.55-1.7c0.37-0.47,0.84-0.82,1.41-1.06
		s1.16-0.35,1.77-0.35C108.07,4.47,108.92,4.67,109.62,5.07z"/>
</g>
</svg>
