<?xml version="1.0" encoding="utf-8"?>
<!-- Generator: Adobe Illustrator 26.0.1, SVG Export Plug-In . SVG Version: 6.00 Build 0)  -->
<svg version="1.1" id="Layer_1" xmlns="http://www.w3.org/2000/svg" xmlns:xlink="http://www.w3.org/1999/xlink" x="0px" y="0px"
	 viewBox="0 0 264.65 49.92" style="enable-background:new 0 0 264.65 49.92;" xml:space="preserve">
<style type="text/css">
	.st0{fill:#FFFFFF;}
</style>
<g>
	<path class="st0" d="M25.72,40.77v8.64H0V13.33h25.26v8.64H9.91v5.08h13.11v8.03H9.91v5.69H25.72z"/>
	<path class="st0" d="M28.21,21.31h9.66v17.48c0,2.03,0.83,3.05,2.49,3.05c0.41,0,0.85-0.07,1.32-0.2c0.47-0.13,0.92-0.32,1.32-0.56
		l1.22,7.12c-1.15,0.54-2.45,0.97-3.89,1.27c-1.44,0.3-2.8,0.46-4.09,0.46c-2.58,0-4.56-0.66-5.95-1.98
		c-1.39-1.32-2.08-3.24-2.08-5.74V21.31z"/>
	<path class="st0" d="M76.69,25.12c-1.02-0.61-2.07-1.15-3.15-1.63c-0.92-0.41-1.94-0.79-3.08-1.14c-1.14-0.36-2.25-0.53-3.33-0.53
		c-0.88,0-1.58,0.14-2.11,0.41c-0.53,0.27-0.79,0.73-0.79,1.37c0,0.47,0.15,0.86,0.46,1.17c0.3,0.3,0.74,0.58,1.32,0.84
		c0.58,0.25,1.28,0.5,2.11,0.74c0.83,0.24,1.77,0.53,2.82,0.86c1.66,0.51,3.16,1.07,4.5,1.68s2.48,1.33,3.43,2.16
		c0.95,0.83,1.68,1.84,2.19,3.02c0.51,1.19,0.76,2.63,0.76,4.32c0,2.17-0.4,3.99-1.19,5.46c-0.8,1.47-1.85,2.65-3.15,3.53
		c-1.3,0.88-2.78,1.52-4.42,1.91c-1.64,0.39-3.3,0.58-4.96,0.58c-1.32,0-2.68-0.1-4.07-0.3c-1.39-0.2-2.77-0.49-4.14-0.86
		c-1.37-0.37-2.69-0.81-3.96-1.32c-1.27-0.51-2.45-1.08-3.53-1.73l4.27-8.69c1.19,0.75,2.42,1.41,3.71,1.98
		c1.08,0.51,2.31,0.97,3.68,1.37c1.37,0.41,2.77,0.61,4.19,0.61c1.08,0,1.84-0.14,2.26-0.43c0.42-0.29,0.63-0.67,0.63-1.14
		c0-0.51-0.21-0.94-0.63-1.3c-0.42-0.36-1.01-0.67-1.75-0.94s-1.6-0.54-2.57-0.81c-0.97-0.27-1.99-0.59-3.08-0.97
		c-1.59-0.54-2.96-1.13-4.12-1.75c-1.15-0.63-2.1-1.34-2.85-2.13c-0.75-0.8-1.3-1.7-1.65-2.72c-0.36-1.02-0.53-2.19-0.53-3.51
		c0-2,0.36-3.76,1.09-5.29c0.73-1.52,1.72-2.8,2.97-3.81c1.25-1.02,2.68-1.79,4.29-2.31c1.61-0.52,3.31-0.79,5.11-0.79
		c1.32,0,2.61,0.13,3.86,0.38c1.25,0.25,2.46,0.58,3.63,0.97c1.17,0.39,2.26,0.81,3.28,1.27s1.93,0.89,2.74,1.3L76.69,25.12z"/>
	<path class="st0" d="M91.89,49.92c-1.32,0-2.56-0.22-3.71-0.66c-1.15-0.44-2.14-1.04-2.97-1.8s-1.48-1.67-1.96-2.72
		c-0.48-1.05-0.71-2.19-0.71-3.41c0-1.35,0.29-2.59,0.86-3.71c0.58-1.12,1.37-2.08,2.39-2.9c1.02-0.81,2.23-1.44,3.63-1.88
		c1.41-0.44,2.96-0.66,4.65-0.66c2.17,0,3.96,0.34,5.39,1.02v-0.81c0-1.25-0.36-2.19-1.09-2.79s-1.91-0.91-3.53-0.91
		c-1.52,0-2.93,0.25-4.22,0.74c-1.29,0.49-2.64,1.21-4.07,2.16l-2.79-6c3.52-2.27,7.54-3.41,12.05-3.41c4.27,0,7.56,0.95,9.86,2.85
		c2.3,1.9,3.46,4.74,3.46,8.54v5.18c0,0.92,0.13,1.55,0.41,1.91c0.27,0.36,0.75,0.57,1.42,0.63v8.13c-0.78,0.17-1.52,0.3-2.21,0.38
		c-0.69,0.08-1.31,0.13-1.85,0.13c-1.73,0-3.04-0.31-3.94-0.94c-0.9-0.63-1.48-1.55-1.75-2.77l-0.2-0.97
		c-1.19,1.52-2.56,2.69-4.12,3.48C95.31,49.52,93.65,49.92,91.89,49.92z M94.79,43.01c0.58,0,1.17-0.09,1.78-0.28
		c0.61-0.19,1.15-0.43,1.63-0.74c0.37-0.27,0.68-0.57,0.92-0.89c0.24-0.32,0.36-0.65,0.36-0.99v-1.98c-0.58-0.2-1.2-0.37-1.88-0.51
		c-0.68-0.13-1.29-0.2-1.83-0.2c-1.19,0-2.17,0.29-2.95,0.86s-1.17,1.3-1.17,2.19c0,0.75,0.3,1.36,0.89,1.83
		C93.12,42.77,93.87,43.01,94.79,43.01z"/>
	<path class="st0" d="M112.98,21.31h9.66v17.48c0,2.03,0.83,3.05,2.49,3.05c0.41,0,0.85-0.07,1.32-0.2
		c0.47-0.13,0.92-0.32,1.32-0.56l1.22,7.12c-1.15,0.54-2.45,0.97-3.89,1.27c-1.44,0.3-2.8,0.46-4.09,0.46
		c-2.58,0-4.56-0.66-5.95-1.98c-1.39-1.32-2.08-3.24-2.08-5.74V21.31z"/>
	<path class="st0" d="M134.89,49.41l-9-26.73h9.91l4.78,19.16l4.83-19.16h9l-9,26.73H134.89z"/>
	<path class="st0" d="M162.74,49.92c-1.32,0-2.56-0.22-3.71-0.66c-1.15-0.44-2.14-1.04-2.97-1.8s-1.48-1.67-1.96-2.72
		c-0.47-1.05-0.71-2.19-0.71-3.41c0-1.35,0.29-2.59,0.86-3.71s1.37-2.08,2.39-2.9c1.02-0.81,2.23-1.44,3.63-1.88
		c1.4-0.44,2.96-0.66,4.65-0.66c2.17,0,3.96,0.34,5.39,1.02v-0.81c0-1.25-0.36-2.19-1.09-2.79s-1.91-0.91-3.53-0.91
		c-1.52,0-2.93,0.25-4.22,0.74c-1.29,0.49-2.64,1.21-4.07,2.16l-2.79-6c3.52-2.27,7.54-3.41,12.05-3.41c4.27,0,7.55,0.95,9.86,2.85
		c2.3,1.9,3.46,4.74,3.46,8.54v5.18c0,0.92,0.13,1.55,0.41,1.91c0.27,0.36,0.74,0.57,1.42,0.63v8.13c-0.78,0.17-1.52,0.3-2.21,0.38
		c-0.69,0.08-1.31,0.13-1.85,0.13c-1.73,0-3.04-0.31-3.94-0.94c-0.9-0.63-1.48-1.55-1.75-2.77l-0.2-0.97
		c-1.19,1.52-2.56,2.69-4.12,3.48S164.5,49.92,162.74,49.92z M165.64,43.01c0.58,0,1.17-0.09,1.78-0.28s1.15-0.43,1.63-0.74
		c0.37-0.27,0.68-0.57,0.91-0.89c0.24-0.32,0.36-0.65,0.36-0.99v-1.98c-0.58-0.2-1.2-0.37-1.88-0.51c-0.68-0.13-1.29-0.2-1.83-0.2
		c-1.19,0-2.17,0.29-2.95,0.86s-1.17,1.3-1.17,2.19c0,0.75,0.29,1.36,0.89,1.83C163.97,42.77,164.73,43.01,165.64,43.01z"/>
	<path class="st0" d="M195.22,49.92c-1.83,0-3.52-0.34-5.06-1.02c-1.54-0.68-2.87-1.63-3.99-2.87c-1.12-1.24-1.99-2.71-2.62-4.42
		c-0.63-1.71-0.94-3.58-0.94-5.62c0-1.96,0.29-3.79,0.87-5.49c0.57-1.69,1.38-3.16,2.41-4.4c1.03-1.24,2.26-2.2,3.68-2.9
		c1.42-0.69,3-1.04,4.73-1.04c1.73,0,3.31,0.39,4.75,1.17c1.44,0.78,2.55,1.88,3.33,3.3V12.31h9.66v26.43
		c0,0.92,0.14,1.55,0.41,1.91c0.27,0.36,0.74,0.57,1.42,0.63v8.13c-1.66,0.34-3.02,0.51-4.07,0.51c-3.29,0-5.18-1.24-5.69-3.71
		l-0.2-0.97c-0.92,1.63-2.15,2.81-3.71,3.56S196.98,49.92,195.22,49.92z M197.86,41.79c1.76,0,3.29-0.92,4.57-2.75v-4.78
		c-0.47-1.19-1.17-2.14-2.08-2.87c-0.91-0.73-1.88-1.09-2.9-1.09c-0.71,0-1.37,0.15-1.96,0.46c-0.59,0.3-1.1,0.73-1.53,1.27
		c-0.42,0.54-0.76,1.17-1.02,1.88c-0.25,0.71-0.38,1.47-0.38,2.29c0,1.69,0.48,3.05,1.45,4.07
		C194.99,41.28,196.27,41.79,197.86,41.79z"/>
	<path class="st0" d="M229.73,49.92c-2.41,0-4.52-0.38-6.33-1.14s-3.34-1.78-4.57-3.05c-1.24-1.27-2.17-2.74-2.79-4.42
		c-0.63-1.68-0.94-3.43-0.94-5.26c0-1.83,0.31-3.58,0.94-5.26c0.62-1.68,1.56-3.15,2.79-4.42c1.24-1.27,2.76-2.29,4.57-3.05
		s3.92-1.14,6.33-1.14c2.37,0,4.47,0.38,6.3,1.14c1.83,0.76,3.36,1.78,4.6,3.05c1.24,1.27,2.17,2.74,2.79,4.42
		c0.63,1.68,0.94,3.43,0.94,5.26c0,1.83-0.31,3.58-0.94,5.26c-0.63,1.68-1.56,3.15-2.79,4.42c-1.24,1.27-2.77,2.29-4.6,3.05
		C234.2,49.54,232.1,49.92,229.73,49.92z M225,36.05c0,1.8,0.44,3.2,1.32,4.22c0.88,1.02,2.02,1.52,3.41,1.52
		c1.39,0,2.52-0.51,3.4-1.52c0.88-1.02,1.32-2.42,1.32-4.22s-0.44-3.2-1.32-4.22s-2.02-1.52-3.4-1.52c-1.39,0-2.53,0.51-3.41,1.52
		S225,34.25,225,36.05z"/>
	<path class="st0" d="M264.65,30.91c-1.87,0-3.56,0.2-5.08,0.61c-1.52,0.41-2.66,1.08-3.4,2.03v15.86h-9.66V22.68h8.84v5.08
		c0.95-1.8,2.13-3.18,3.53-4.14c1.41-0.97,2.92-1.45,4.55-1.45c0.64,0,1.05,0.02,1.22,0.05V30.91z"/>
</g>
<rect x="34.08" y="17.87" class="st0" width="128.32" height="1.5"/>
<g>
	<path class="st0" d="M45.01,4.31c0,0.98-0.28,1.8-0.83,2.47c-0.55,0.67-1.33,1.12-2.32,1.37l2.69,5.52h1.86v1.9H43l-3.37-7.11
		h-2.14v5.2h1.94v1.9h-6.32v-1.9h2.07V2.22h-2.07v-1.9h6.34c1.96,0,3.38,0.32,4.25,0.96C44.58,1.92,45.01,2.93,45.01,4.31z
		 M42.63,4.27c0-0.71-0.22-1.23-0.67-1.56c-0.45-0.33-1.15-0.5-2.12-0.5h-2.36v4.33h2.22c0.99,0,1.73-0.17,2.21-0.52
		S42.63,5.1,42.63,4.27z"/>
	<path class="st0" d="M58.27,10.78h-8.92c0.13,1.02,0.52,1.82,1.18,2.41c0.66,0.59,1.47,0.89,2.43,0.89c0.7,0,1.35-0.15,1.95-0.44
		c0.6-0.29,1.1-0.74,1.51-1.34l1.84,0.83c-0.58,0.9-1.34,1.59-2.28,2.05c-0.94,0.46-1.97,0.69-3.07,0.69
		c-1.15,0-2.17-0.24-3.06-0.72c-0.89-0.48-1.58-1.15-2.08-2s-0.74-1.82-0.74-2.9c0-1.07,0.24-2.03,0.73-2.89s1.16-1.53,2.01-2.01
		s1.79-0.72,2.82-0.72c1.12,0,2.1,0.25,2.93,0.74s1.49,1.21,1.97,2.13C57.97,8.44,58.23,9.53,58.27,10.78z M52.63,6.39
		c-0.79,0-1.48,0.26-2.08,0.79c-0.59,0.53-0.98,1.23-1.14,2.1h6.66c-0.2-0.87-0.61-1.57-1.25-2.1C54.19,6.65,53.46,6.39,52.63,6.39z
		"/>
	<path class="st0" d="M68.06,5.7V4.93h1.86v4.03h-1.86c-0.08-0.78-0.39-1.37-0.93-1.78c-0.54-0.41-1.16-0.61-1.87-0.61
		c-0.61,0-1.15,0.16-1.63,0.49c-0.48,0.32-0.86,0.76-1.12,1.32c-0.26,0.55-0.39,1.16-0.39,1.81c0,1.11,0.3,2.02,0.89,2.73
		s1.38,1.06,2.35,1.06c1.51,0,2.57-0.7,3.19-2.1l1.74,0.83c-0.98,2.12-2.65,3.18-5.02,3.18c-1.06,0-2-0.25-2.82-0.75
		c-0.82-0.5-1.46-1.18-1.91-2.06s-0.67-1.84-0.67-2.9c0-1.04,0.23-1.98,0.68-2.83c0.46-0.85,1.08-1.51,1.88-1.99
		c0.8-0.48,1.68-0.71,2.66-0.71C66.23,4.65,67.23,5,68.06,5.7z"/>
	<path class="st0" d="M76.66,13.71v1.86h-5.38v-1.86h1.66V6.8h-1.66V4.93h3.76v8.78H76.66z M75.17,1.35c0,0.34-0.12,0.64-0.38,0.89
		c-0.25,0.25-0.55,0.37-0.89,0.37c-0.34,0-0.64-0.12-0.88-0.37c-0.24-0.25-0.37-0.55-0.37-0.89s0.12-0.64,0.37-0.89
		c0.24-0.25,0.54-0.38,0.88-0.38c0.36,0,0.66,0.12,0.9,0.36C75.04,0.69,75.17,0.99,75.17,1.35z"/>
	<path class="st0" d="M90.33,10.31c0,0.99-0.23,1.92-0.69,2.78c-0.46,0.86-1.08,1.55-1.88,2.04c-0.79,0.5-1.67,0.75-2.64,0.75
		c-1.42,0-2.67-0.55-3.74-1.64v4.23h2.08v1.86h-6.1v-1.86h1.92V6.8h-1.78V4.93h3.88v1.7c0.53-0.62,1.11-1.08,1.74-1.39
		c0.63-0.3,1.31-0.46,2.03-0.46c1.01,0,1.9,0.25,2.68,0.74c0.78,0.5,1.39,1.17,1.83,2.01C90.11,8.39,90.33,9.31,90.33,10.31z
		 M85.1,13.97c0.58,0,1.1-0.17,1.57-0.51s0.83-0.8,1.09-1.38c0.26-0.58,0.39-1.19,0.39-1.84c0-0.65-0.15-1.26-0.44-1.81
		s-0.69-0.99-1.19-1.32c-0.51-0.33-1.08-0.49-1.71-0.49c-0.66,0-1.26,0.17-1.78,0.52s-0.94,0.81-1.23,1.38s-0.43,1.2-0.43,1.89
		c0,1.11,0.35,1.97,1.05,2.6C83.12,13.66,84.01,13.97,85.1,13.97z"/>
	<path class="st0" d="M103.14,10.78h-8.92c0.13,1.02,0.52,1.82,1.18,2.41c0.66,0.59,1.47,0.89,2.43,0.89c0.7,0,1.35-0.15,1.95-0.44
		c0.6-0.29,1.1-0.74,1.51-1.34l1.84,0.83c-0.58,0.9-1.34,1.59-2.28,2.05c-0.94,0.46-1.97,0.69-3.07,0.69
		c-1.15,0-2.17-0.24-3.06-0.72c-0.89-0.48-1.58-1.15-2.08-2s-0.74-1.82-0.74-2.9c0-1.07,0.24-2.03,0.73-2.89s1.16-1.53,2.01-2.01
		s1.79-0.72,2.82-0.72c1.12,0,2.1,0.25,2.93,0.74s1.49,1.21,1.97,2.13C102.84,8.44,103.1,9.53,103.14,10.78z M97.5,6.39
		c-0.79,0-1.48,0.26-2.08,0.79c-0.59,0.53-0.98,1.23-1.14,2.1h6.66c-0.2-0.87-0.61-1.57-1.25-2.1C99.06,6.65,98.33,6.39,97.5,6.39z"
		/>
	<path class="st0" d="M111.17,5.39V4.93h1.82v3.53h-1.82V7.82c-0.61-0.87-1.44-1.31-2.49-1.31c-0.55,0-1.01,0.12-1.36,0.36
		c-0.35,0.24-0.53,0.56-0.53,0.94c0,0.34,0.13,0.61,0.4,0.81s0.87,0.37,1.8,0.52l1.41,0.27c2.1,0.38,3.15,1.41,3.15,3.09
		c0,0.98-0.38,1.77-1.14,2.36c-0.76,0.59-1.77,0.89-3.02,0.89c-0.5,0-0.99-0.07-1.47-0.22c-0.48-0.15-0.89-0.33-1.21-0.54v0.58
		h-1.86v-3.65h1.86v0.36c0.1,0.51,0.39,0.92,0.86,1.23c0.47,0.31,1.01,0.47,1.63,0.47c0.68,0,1.22-0.12,1.61-0.36
		c0.39-0.24,0.59-0.6,0.59-1.07c0-0.34-0.16-0.6-0.47-0.77c-0.31-0.17-0.93-0.35-1.87-0.53l-1.08-0.23
		c-1.07-0.22-1.86-0.59-2.36-1.11c-0.5-0.53-0.75-1.2-0.75-2.02c0-0.66,0.18-1.23,0.55-1.7s0.84-0.82,1.41-1.06
		c0.57-0.24,1.17-0.35,1.77-0.35C109.62,4.79,110.47,4.99,111.17,5.39z"/>
	<path class="st0" d="M127.69,2.45l-1.86,0.28c-0.06-0.69-0.32-1.03-0.79-1.03c-0.33,0-0.55,0.12-0.66,0.35s-0.17,0.66-0.17,1.27
		v1.61h1.82V6.8h-1.82v6.91h2v1.86h-5.66v-1.86h1.56V6.8h-1.56V4.93h1.56V3.28c0-0.97,0.24-1.76,0.71-2.37
		C123.3,0.3,124.01,0,124.94,0c0.77,0,1.39,0.2,1.86,0.61C127.27,1.02,127.56,1.63,127.69,2.45z"/>
	<path class="st0" d="M131.18,11.3v2.41h2.32v1.86h-6.53v-1.86h2.14V6.8h-2.14V4.93h3.8v2.41c0.42-0.95,0.95-1.62,1.58-1.99
		s1.53-0.56,2.71-0.56h0.48v2.12h-0.46c-1.13,0-1.98,0.15-2.53,0.45c-0.55,0.3-0.92,0.75-1.1,1.35
		C131.27,9.3,131.18,10.17,131.18,11.3z"/>
	<path class="st0" d="M146.63,10.27c0,1.03-0.25,1.98-0.74,2.83c-0.49,0.86-1.16,1.54-2.01,2.04c-0.85,0.5-1.79,0.75-2.83,0.75
		c-1.07,0-2.03-0.25-2.89-0.75c-0.86-0.5-1.52-1.18-2-2.04c-0.48-0.86-0.71-1.8-0.71-2.83c0-1.08,0.24-2.04,0.71-2.9
		c0.48-0.85,1.14-1.52,1.99-2s1.82-0.72,2.9-0.72c1.05,0,2,0.25,2.85,0.76c0.85,0.51,1.52,1.19,2,2.05
		C146.38,8.32,146.63,9.25,146.63,10.27z M141.05,13.85c0.62,0,1.19-0.16,1.71-0.49c0.52-0.32,0.92-0.76,1.21-1.31
		c0.29-0.55,0.44-1.14,0.44-1.79c0-0.63-0.14-1.23-0.44-1.77c-0.29-0.55-0.7-0.99-1.21-1.32c-0.52-0.33-1.1-0.5-1.73-0.5
		c-0.62,0-1.19,0.16-1.71,0.49c-0.52,0.33-0.93,0.77-1.22,1.32c-0.3,0.55-0.45,1.15-0.45,1.78c0,0.63,0.15,1.23,0.45,1.78
		c0.3,0.55,0.71,0.99,1.24,1.32C139.85,13.69,140.43,13.85,141.05,13.85z"/>
	<path class="st0" d="M149.81,13.71V6.8h-1.79V4.93h3.88v1.35c1.25-0.99,2.47-1.49,3.67-1.49c1.23,0,2.07,0.55,2.53,1.66
		c1.36-1.11,2.65-1.66,3.86-1.66c0.86,0,1.54,0.25,2.05,0.76c0.51,0.51,0.76,1.28,0.76,2.33v5.83h1.86v1.86h-3.94V8.83
		c0-0.47-0.02-0.84-0.07-1.13c-0.05-0.29-0.17-0.54-0.37-0.74s-0.51-0.3-0.95-0.3c-0.38,0-0.83,0.11-1.35,0.34
		c-0.51,0.23-1.05,0.57-1.62,1.03v5.68h1.8v1.86h-3.9V8.57c0-0.68-0.1-1.17-0.31-1.47c-0.21-0.3-0.55-0.45-1.02-0.45
		c-0.77,0-1.78,0.46-3.03,1.38v5.68h1.87v1.86h-5.87v-1.86H149.81z"/>
</g>
</svg>
