<svg enable-background="new 0 0 343.066 343.066" viewBox="0 0 343.066 343.066" xmlns="http://www.w3.org/2000/svg"><path d="m283.974 155.095c32.636 0 59.092 26.456 59.092 59.092 0 22.738-12.688 42.465-31.516 52.346h-54.99c-18.828-9.881-31.679-29.607-31.679-52.346.001-32.636 26.456-59.092 59.093-59.092z" fill="#ffe98f"/><circle cx="266.533" cy="161.533" fill="#ff5023" r="55"/><path d="m59.092 155.095c-32.636 0-59.092 26.456-59.092 59.092 0 22.738 12.688 42.465 31.516 52.346h54.989c18.828-9.881 31.679-29.607 31.679-52.346 0-32.636-26.456-59.092-59.092-59.092z" fill="#ffda44"/><circle cx="76.533" cy="161.533" fill="#bd3c1a" r="55"/><circle cx="131.533" cy="136.533" fill="#64c37d" r="60"/><circle cx="211.533" cy="136.533" fill="#91dc5a" r="60"/><path d="m311.533 266.533v-54.02c0-58.531-47.448-105.979-105.98-105.979h-68.041c-58.531 0-105.979 47.448-105.979 105.979v54.02z" fill="#ffad41"/><path d="m171.533 106.533h-34.021c-58.531 0-105.979 47.448-105.979 105.979v54.02h140z" fill="#ff9811"/><circle cx="81.533" cy="206.533" fill="#804c09" r="10"/><circle cx="131.533" cy="176.533" fill="#804c09" r="10"/><g fill="#bd720d"><circle cx="261.533" cy="206.533" r="10"/><circle cx="211.533" cy="176.533" r="10"/><circle cx="171.533" cy="206.533" r="10"/></g><path d="m171.533 196.533c-5.523 0-10 4.477-10 10s4.477 10 10 10" fill="#804c09"/></svg>