<svg height="800" preserveAspectRatio="xMidYMid meet" viewBox="0 0 64 64" width="800" xmlns="http://www.w3.org/2000/svg"><path d="m62.3 47.1c-.1-24.4-20.8-45-45.2-45.1l-14.8 60z" fill="#f6da77"/><path d="m54.5 49 2.1-.4c-1-19-14.6-38.9-41-40.9l-.3 2c20.2 2.6 36.7 19 39.2 39.3" fill="#860d16"/><path d="m56.5 48.6 5.7-1.4c.1-24.4-20.7-45.2-45.3-45.2l-1.4 5.7c23.5 2.2 38.8 17.6 41 40.9z" fill="#c98e52"/><g fill="#83bf4f"><path d="m13.5 41.7c-1.7 0-3.2-.6-4.4-1.8-.5-.5-.5-1.3 0-1.7.5-.5 1.3-.5 1.7 0 1.4 1.4 3.9 1.4 5.3 0 .7-.7 1.1-1.6 1.1-2.6s-.4-1.9-1.1-2.6c-.5-.5-.5-1.3 0-1.7.5-.5 1.3-.5 1.7 0 1.2 1.2 1.8 2.7 1.8 4.4s-.6 3.2-1.8 4.4c-1.1.9-2.7 1.6-4.3 1.6"/><path d="m38.6 21.9v.5c-.1.3-.2.5-.5.7s-.6.2-.8.1c-.8-.2-1.6 0-2.3.4s-1.2 1.1-1.4 1.9c-.4 1.6.7 3.3 2.3 3.7.6.1 1 .8.8 1.3-.1.6-.7 1-1.3.8-2-.5-3.5-2-4-4-.2-.8-.2-1.6 0-2.3.3-1.4 1.2-2.5 2.4-3.3s2.6-1 4-.7c.3.2.7.5.8.9"/><path d="m43.9 50.9h-.5c-.3-.1-.5-.2-.6-.5-.1-.2-.2-.5-.1-.8.2-.7.1-1.5-.3-2.2s-1-1.2-1.8-1.4c-1.5-.4-3.2.6-3.6 2-.1.5-.8.9-1.3.7-.6-.2-.9-.7-.7-1.3.5-1.8 2-3.3 3.9-3.6.7-.1 1.5-.1 2.2.1 1.3.3 2.4 1.2 3 2.3.7 1.2.8 2.5.5 3.8 0 .5-.3.8-.7.9"/></g><g fill="#b21725"><path d="m37.1 36.2c1.4 4.1-.8 8.5-5 9.9s-8.7-.8-10-4.9c-1.4-4.1.8-8.5 5-9.9 4.1-1.4 8.6.8 10 4.9"/><path d="m49.6 37c.8 2.5-.5 5.1-3 6-2.5.8-5.2-.5-6-3s.5-5.1 3-6c2.4-.8 5.1.5 6 3"/><path d="m29 19c1.1 3.3-.7 7-4.1 8.1s-7.1-.7-8.2-4 .7-7 4.1-8.1 7.1.7 8.2 4"/><path d="m34.4 54-9.7 2.4c-.9-2.6.9-5.7 3.5-6.4 3.2-.8 5.3 1.5 6.2 4"/><path d="m19.6 47c1.2 3.4-.7 7.2-4.2 8.3-3.5 1.2-7.3-.7-8.5-4.2-1.2-3.4.7-7.2 4.2-8.3s7.3.8 8.5 4.2"/></g><path d="m15.5 7.7c5.3.1 10.6 1.1 15.6 3.1 5 1.9 9.7 4.9 13.5 8.8 3.8 3.8 6.8 8.5 8.8 13.5s3 10.3 3.1 15.6c-.9-5.2-2.3-10.3-4.5-15s-5.1-9.1-8.8-12.7c-3.6-3.7-8-6.6-12.7-8.7-4.7-2.3-9.8-3.7-15-4.6" fill="#e0a763"/><g fill="#ffab41"><path d="m16.794 13.436 1.98-1.98 1.98 1.98-1.98 1.98z"/><path d="m29.72 19.044 1.98-1.98 1.98 1.98-1.98 1.98z"/><path d="m12.908 26.448 1.98-1.98 1.98 1.98-1.98 1.98z"/><path d="m19.748 32.135 1.98-1.98 1.98 1.98-1.98 1.98z"/><path d="m37.545 32.39 1.98-1.98 1.98 1.98-1.98 1.98z"/><path d="m49.024 46.541 1.98-1.98 1.98 1.98-1.98 1.98z"/><path d="m19.617 44.652 1.98-1.98 1.98 1.98-1.98 1.98z"/><path d="m21.034 51.903 1.98-1.98 1.98 1.98-1.98 1.98z"/><path d="m4.338 58.241 1.98-1.98 1.98 1.98-1.98 1.98z"/><path d="m13.97 17.328 1.485-1.485 1.485 1.485-1.485 1.485z"/><path d="m26.552 27.893 1.485-1.485 1.485 1.485-1.485 1.485z"/><path d="m40.075 27.955 1.485-1.485 1.485 1.485-1.485 1.485z"/><path d="m13.436 36.164 1.485-1.485 1.485 1.485-1.485 1.485z"/><path d="m7.36 42.1 1.485-1.485 1.485 1.484-1.485 1.485z"/><path d="m5.03 54.485 1.485-1.485 1.485 1.485-1.485 1.485z"/><path d="m17.876 55.286 1.485-1.485 1.485 1.486-1.485 1.484z"/><path d="m30.778 48.346 1.485-1.485 1.485 1.485-1.485 1.485z"/><path d="m37.042 50.896 1.485-1.485 1.485 1.485-1.485 1.484z"/><path d="m45.376 45.17 1.485-1.484 1.485 1.485-1.485 1.485z"/></g></svg>