<?xml version="1.0" encoding="iso-8859-1"?>
<!-- Uploaded to: SVG Repo, www.svgrepo.com, Generator: SVG Repo Mixer Tools -->
<svg height="800px" width="800px" version="1.1" id="Layer_1" xmlns="http://www.w3.org/2000/svg" xmlns:xlink="http://www.w3.org/1999/xlink" 
	 viewBox="0 0 511.988 511.988" xml:space="preserve">
<path style="fill:#E6E9ED;" d="M298.476,287.998h151.342c4.391,12.438,16.233,21.344,30.171,21.344
	c17.671,0,31.999-14.344,31.999-32c0-8.211-3.078-15.68-8.156-21.352c5.078-5.656,8.156-13.125,8.156-21.328
	c0-17.671-14.328-31.999-31.999-31.999c-13.938,0-25.78,8.906-30.171,21.327H298.476V287.998z"/>
<path style="fill:#E5675A;" d="M384.132,255.474c0-125.326-309.462-170.137-309.462-170.137V426.65
	C74.67,426.65,384.132,380.808,384.132,255.474z"/>
<g style="opacity:0.1;">
	<path d="M74.67,405.34v21.311c0,0,309.462-45.842,309.462-171.176c0-3.625-0.266-7.171-0.766-10.656
		C366.491,362.09,74.67,405.34,74.67,405.34z"/>
</g>
<path style="fill:#EFACA0;" d="M149.324,255.99c0-94.248-33.421-170.653-74.654-170.653C33.421,85.337,0,161.742,0,255.99
	c0,94.256,33.421,170.66,74.67,170.66C115.903,426.65,149.324,350.246,149.324,255.99z"/>
<g style="opacity:0.1;">
	<path d="M106.669,255.99c0-58.905-14.328-106.654-31.999-106.654c-17.672,0-31.999,47.749-31.999,106.654
		c0,58.912,14.327,106.662,31.999,106.662C92.341,362.652,106.669,314.902,106.669,255.99z"/>
</g>
<path style="fill:#E6E9ED;" d="M74.67,277.342c-5.891,0-10.672-9.57-10.672-21.352c0-11.781,4.781-21.328,10.672-21.328
	s10.656,9.547,10.656,21.328S80.56,277.342,74.67,277.342z"/>
</svg>