<?xml version="1.0" encoding="iso-8859-1"?>
<!-- Uploaded to: SVG Repo, www.svgrepo.com, Generator: SVG Repo Mixer Tools -->
<svg height="800px" width="800px" version="1.1" id="Layer_1" xmlns="http://www.w3.org/2000/svg" xmlns:xlink="http://www.w3.org/1999/xlink" 
	 viewBox="0 0 512 512" xml:space="preserve">
<path style="fill:#D7EBFF;" d="M449.87,106.554l-54.979-32.076C363.75,27.848,311.837,0,256,0
	c-59.185,0-113.489,31.195-143.576,81.924C53.192,96.587,11.13,150.006,11.13,211.478c0,36.163,14.26,70.054,40.174,95.413
	c3.12,3.054,7.305,4.76,11.674,4.76h386.044c4.37,0,8.555-1.706,11.674-4.76c25.913-25.36,40.174-59.251,40.174-95.413
	C500.87,170.305,482.283,132.055,449.87,106.554z"/>
<path style="fill:#BDDEFF;" d="M449.022,311.652c4.37,0,8.555-1.706,11.674-4.76c25.913-25.36,40.174-59.251,40.174-95.413
	c0-41.174-18.587-79.423-51-104.924l-54.979-32.076C363.75,27.848,311.837,0,256,0v311.652H449.022z"/>
<path style="fill:#FFDFB3;" d="M369.87,206.25c-1.435,0-2.881-0.185-4.304-0.565c-5.761-1.533-10.272-6.033-11.815-11.794
	c-4.87-18.098-17.229-33.316-33.934-41.75c-4.783-2.413-8.109-6.979-8.957-12.271c-0.837-5.294,0.903-10.674,4.696-14.456
	L426.523,14.772c19.478-19.456,51.184-19.478,70.685,0.022c9.587,9.598,14.771,22.38,14.586,36.011
	c-0.163,13.315-5.522,25.99-14.707,34.805L381.696,201.347C378.522,204.522,374.25,206.25,369.87,206.25z"/>
<path style="fill:#FFCC99;" d="M353.75,193.891c1.544,5.761,6.054,10.261,11.815,11.794c1.424,0.381,2.869,0.565,4.304,0.565
	c4.381,0,8.652-1.729,11.826-4.902l115.393-115.74c9.185-8.815,14.543-21.49,14.707-34.805c0.185-13.63-5-26.413-14.586-36.011
	L341.807,170.193C347.281,177.141,351.402,185.168,353.75,193.891z"/>
<path style="fill:#D7EBFF;" d="M372.87,233.739c-9.217,0-16.696-7.479-16.696-16.696c0-69.728-65-72.282-72.413-72.348
	c-9.196-0.076-16.63-7.576-16.598-16.761c0.043-9.195,7.467-16.63,16.663-16.63c36.576,0,105.739,22.098,105.739,105.739
	C389.565,226.261,382.087,233.739,372.87,233.739z"/>
<path style="fill:#36D9D9;" d="M58.207,345.043l-11.132,33.394l15.283,91.716C66.402,494.402,87.174,512,111.761,512h288.479
	c24.587,0,45.359-17.598,49.402-41.848l15.283-91.717l-11.132-33.391H58.207z"/>
<path style="fill:#43BFBF;" d="M256,512h144.239c24.587,0,45.359-17.598,49.402-41.848l15.283-91.717l-11.132-33.391H256V512z"/>
<path style="fill:#FFC033;" d="M474.652,284.163c-3.173-3.74-7.826-5.902-12.739-5.902H50.087c-4.913,0-9.565,2.163-12.739,5.902
	c-3.174,3.75-4.532,8.696-3.729,13.532l13.456,80.739h417.851l13.456-80.739C479.185,292.858,477.826,287.913,474.652,284.163z"/>
<path style="fill:#F9A926;" d="M461.913,278.261H256v100.174h208.925l13.456-80.739c0.805-4.837-0.554-9.783-3.729-13.532
	C471.479,280.423,466.826,278.261,461.913,278.261z"/>
<path style="fill:#FFDFB3;" d="M495.304,311.652H16.696C7.479,311.652,0,304.174,0,294.957c0-9.217,7.479-16.696,16.696-16.696
	h478.609c9.217,0,16.696,7.479,16.696,16.696C512,304.174,504.521,311.652,495.304,311.652z"/>
<path style="fill:#FFCC99;" d="M495.304,278.261H256v33.391h239.304c9.217,0,16.696-7.479,16.696-16.696
	C512,285.739,504.521,278.261,495.304,278.261z"/>
</svg>