<svg enable-background="new 0 0 511.988 511.988" viewBox="0 0 511.988 511.988" xmlns="http://www.w3.org/2000/svg"><path d="m317.101 36.099c-14.53-17.812-37.342 28.453-69.67 24.297-32.327-4.172-25.187-52.843-101.779-2.266-57.779 38.171-2.734 66.732-15.187 71.076-12.438 4.328-72.186.578-73.779 45.749-1.609 45.171 117.638 123.692 117.638 123.692l112.45-45.553s44.859-199.198 30.327-216.995z" fill="#8cc153"/><path d="m511.488 136.175c-8.891-39.999-71.107-17.953-84.889-17.953-13.766 0 39.561-42.827-27.297-58.967-88.607-21.422-73.326 19.999-106.668 33.843-33.327 13.843-64.687-20.515-77.139 0-12.438 20.515 66.483 185.127 66.483 185.127l125.512 5.672s112.889-107.707 103.998-147.722z" fill="#a0d468"/><path d="m191.995 223.986c0-35.343 28.656-63.999 63.999-63.999s63.998 28.656 63.998 63.999c0 35.358-28.655 64.005-63.998 64.005s-63.999-28.647-63.999-64.005z" fill="#ffce54"/><path d="m410.459 152.268c-3.094 5.015-9.672 6.562-14.688 3.453-5-3.093-6.547-9.671-3.453-14.687 3.109-5 9.672-6.547 14.688-3.453 5 3.11 6.562 9.672 3.453 14.687z" fill="#434a54"/><path d="m418.678 220.064c-15.5 25.046-48.358 32.796-73.42 17.296-25.047-15.499-32.781-48.374-17.281-73.42s48.374-32.78 73.42-17.281c25.046 15.5 32.781 48.358 17.281 73.405z" fill="#fc6e51"/><path d="m74.81 241.641c51.046 29.389 116.263 11.828 145.653-39.233l-184.886-106.419c-29.39 51.061-11.828 116.278 39.233 145.652z" fill="#ed5564"/><path d="m101.419 195.424c25.516 14.703 58.124 5.906 72.827-19.609l-92.451-53.218c-14.688 25.531-5.906 58.14 19.624 72.827z" fill="#da4453"/><path d="m0 202.658v42.671c0 94.849 51.577 177.627 128.216 221.862-.141.688-.219 1.406-.219 2.141 0 5.891 4.781 10.656 10.672 10.656h14.858 204.949 14.858c5.891 0 10.655-4.766 10.655-10.656 0-.734-.078-1.453-.203-2.141 76.624-44.234 128.201-127.013 128.201-221.862v-42.671z" fill="#ac92eb"/><path d="m0 223.986v21.343h31.999c0 5.891 4.781 10.656 10.672 10.656s10.672-4.766 10.672-10.656h21.327c0 5.891 4.781 10.656 10.672 10.656s10.656-4.766 10.656-10.656h21.343c0 5.891 4.766 10.656 10.656 10.656s10.672-4.766 10.672-10.656h21.327c0 5.891 4.781 10.656 10.672 10.656s10.672-4.766 10.672-10.656h21.327c0 5.891 4.781 10.656 10.672 10.656s10.655-4.766 10.655-10.657h21.344c0 5.891 4.766 10.656 10.656 10.656s10.672-4.766 10.672-10.656h21.327c0 5.891 4.781 10.656 10.672 10.656 5.89 0 10.671-4.766 10.671-10.656h21.328c0 5.891 4.781 10.656 10.672 10.656s10.656-4.766 10.656-10.656h21.343c0 5.891 4.766 10.656 10.655 10.656 5.891 0 10.672-4.766 10.672-10.656h21.328c0 5.891 4.781 10.656 10.672 10.656s10.672-4.766 10.672-10.656h21.327c0 5.891 4.781 10.656 10.671 10.656 5.891 0 10.656-4.766 10.656-10.656h32v-21.343h-511.988z" fill="#967adc"/></svg>