<svg enable-background="new 0 0 512 512" viewBox="0 0 512 512" xmlns="http://www.w3.org/2000/svg"><path d="m258.179 67.601c-9.333 0-16.9-7.567-16.9-16.9v-33.801c0-9.333 7.567-16.9 16.9-16.9s16.9 7.567 16.9 16.9v33.8c0 9.334-7.567 16.901-16.9 16.901z" fill="#ffc033"/><path d="m190.578 78.868c-4.325 0-8.651-1.651-11.95-4.951l-33.8-33.8c-6.6-6.599-6.6-17.3 0-23.9 6.599-6.599 17.3-6.599 23.9 0l33.8 33.8c6.6 6.599 6.6 17.3 0 23.9-3.299 3.3-7.625 4.951-11.95 4.951z" fill="#ffc033"/><path d="m325.779 78.868c-4.325 0-8.651-1.651-11.95-4.951-6.6-6.599-6.6-17.3 0-23.9l33.8-33.8c6.599-6.599 17.3-6.599 23.9 0s6.6 17.3 0 23.9l-33.8 33.8c-3.299 3.3-7.624 4.951-11.95 4.951z" fill="#f9a926"/><path d="m96.299 495.139c-9.056-2.258-14.568-11.431-12.309-20.488l32.707-131.186c2.259-9.056 11.43-14.563 20.488-12.31 9.056 2.258 14.568 11.431 12.309 20.487l-32.707 131.186c-2.258 9.047-11.421 14.57-20.488 12.311z" fill="#d7ebff"/><path d="m116.786 482.829 32.707-131.186c2.257-9.051-3.247-18.218-12.294-20.482l-40.9 163.978c9.067 2.259 18.23-3.264 20.487-12.31z" fill="#bddeff"/><path d="m272.904 235.801v-101.446c0-7.763-5.284-14.523-12.822-16.404l-131.246-32.719c-7.526-1.882-15.368 1.611-19.007 8.45l-47.704 89.56 42.138 42.138 96.455 30.108z" fill="#d7ebff"/><path d="m200.718 255.488 72.186-19.686v-101.447c0-7.763-5.284-14.523-12.822-16.404l-65.623-16.359-35.161 140.968z" fill="#bddeff"/><path d="m272.904 235.801v13.205c.023 37.023-16.979 72.434-45.484 94.709-27.604 21.587-63.477 28.944-98.415 20.235-34.95-8.709-63.15-32.065-77.392-64.074-14.703-33.057-13.092-72.299 4.315-104.984l6.197-11.65z" fill="#f26d76"/><path d="m129.02 363.953c34.934 8.704 70.802 1.345 98.401-20.239 28.505-22.274 45.507-57.686 45.484-94.709v-13.205l-105.367-26.274z" fill="#e65c64"/><path d="m165.993 512c-1.354 0-2.728-.164-4.101-.506l-131.186-32.707c-9.056-2.258-14.568-11.431-12.309-20.487 2.258-9.055 11.43-14.568 20.486-12.31l131.186 32.707c9.056 2.258 14.568 11.431 12.309 20.488-1.915 7.682-8.808 12.815-16.385 12.815z" fill="#d7ebff"/><path d="m165.993 512c7.577 0 14.47-5.133 16.385-12.816 2.258-9.056-3.253-18.23-12.309-20.488l-65.59-16.354-8.18 32.795 65.593 16.354c1.373.344 2.746.509 4.101.509z" fill="#bddeff"/><path d="m395.214 482.829-32.707-131.186c-2.258-9.056 3.253-18.23 12.309-20.487 9.055-2.261 18.229 3.253 20.488 12.31l32.707 131.186c2.258 9.056-3.253 18.23-12.309 20.488-9.061 2.257-18.23-3.257-20.488-12.311z" fill="#d7ebff"/><path d="m428.011 474.652-32.707-131.186c-2.258-9.057-11.431-14.571-20.488-12.31l40.885 163.982c9.057-2.257 14.568-11.43 12.31-20.486z" fill="#bddeff"/><path d="m402.179 93.682c-3.65-6.85-11.481-10.32-19.007-8.45l-131.19 32.707c-7.526 1.87-12.81 8.63-12.81 16.382l-.056 101.48 23.602 23.602 187.155-47.655v-28.495z" fill="#d7ebff"/><path d="m383.172 85.232-65.595 16.354 33.724 135.261 98.571-25.099v-28.495l-47.692-89.571c-3.651-6.85-11.481-10.32-19.008-8.45z" fill="#bddeff"/><path d="m460.395 299.876c-14.241 32.009-42.453 55.365-77.403 64.074-34.966 8.72-70.826 1.338-98.415-20.235-28.505-22.274-45.495-57.686-45.473-94.72l.011-13.193 210.757-52.548 6.197 11.639c17.407 32.684 19.018 71.926 4.326 104.983z" fill="#f26d76"/><path d="m460.395 299.876c14.692-33.057 13.081-72.299-4.326-104.984l-6.197-11.639-105.382 26.275 38.502 154.423c34.95-8.71 63.162-32.066 77.403-64.075z" fill="#e65c64"/><path d="m346.008 512c-7.577 0-14.47-5.132-16.385-12.816-2.258-9.056 3.253-18.23 12.309-20.488l131.186-32.707c9.057-2.262 18.229 3.253 20.486 12.31 2.258 9.056-3.253 18.23-12.309 20.487l-131.186 32.707c-1.374.342-2.748.507-4.101.507z" fill="#d7ebff"/><path d="m493.603 458.299c-2.258-9.057-11.429-14.572-20.486-12.31l-65.593 16.354 8.177 32.797 65.593-16.354c9.056-2.258 14.568-11.431 12.309-20.487z" fill="#bddeff"/><path d="m275.079 50.701v-33.801c0-9.333-7.567-16.9-16.9-16.9v67.601c9.333 0 16.9-7.567 16.9-16.9z" fill="#f9a926"/></svg>