<svg height="800" viewBox="0 0 511.2 511.2" width="800" xmlns="http://www.w3.org/2000/svg"><path d="m160 227.6c0 4.4 3.6 7.6 7.6 7.6s7.6-3.2 7.6-7.6l-7.6-7.6c-4.4 0-7.6 3.6-7.6 7.6zm59.6-67.6c0 4.4 3.6 7.6 7.6 7.6 4.4 0 7.6-3.6 7.6-7.6l-7.6-7.6c-4 0-7.6 3.6-7.6 7.6zm160.4 163.6c0 4 3.2 7.6 7.6 7.6s7.6-3.6 7.6-7.6l-7.6-7.6c-4.4 0-7.6 3.2-7.6 7.6zm51.6-219.2c34.8 40.8 56 93.6 56 151.2 0 128-104 232-232 232s-232-104-232-232 104-232 232-232c56 0 107.6 20 147.6 52.8zm-56 158.8c4.4 0 7.6-3.6 7.6-7.6l-7.6-7.6c-4 0-7.6 3.6-7.6 7.6s3.6 7.6 7.6 7.6zm-267.6 60.4c0 4.4 3.6 7.6 7.6 7.6 4.4 0 7.6-3.6 7.6-7.6l-7.6-7.6c-4.4 0-7.6 3.6-7.6 7.6zm188-120c-.4 0-.4 0 0 0zm-32.8 148-7.6-7.6c-4.4 0-7.6 3.6-7.6 7.6s3.6 7.6 7.6 7.6c4.4 0 7.6-3.2 7.6-7.6z" fill="#ffcc80"/><g fill="#ff7043"><path d="m387.6 316 7.6 7.6c0 4-3.6 7.6-7.6 7.6-4.4 0-7.6-3.6-7.6-7.6 0-4.4 3.2-7.6 7.6-7.6z"/><path d="m383.2 255.6c0 4-3.2 7.6-7.6 7.6-4 0-7.6-3.6-7.6-7.6s3.6-7.6 7.6-7.6z"/><path d="m255.6 344 7.6 7.6c0 4-3.6 7.6-7.6 7.6-4.4 0-7.6-3.6-7.6-7.6s3.2-7.6 7.6-7.6z"/></g><path d="m23.6 255.6c0 128 104 232 232 232s232-104 232-232c0-57.6-21.2-110.4-56-151.2l-28.4-27.6c-40-33.2-91.6-53.2-147.6-53.2-128 0-232 104-232 232zm232-251.6c139.2 0 251.6 112.8 251.6 251.6s-112.8 251.6-251.6 251.6-251.6-112.8-251.6-251.6 112.4-251.6 251.6-251.6z" fill="#f4511e"/><path d="m234.8 160c0 4.4-3.6 7.6-7.6 7.6-4.4 0-7.6-3.6-7.6-7.6s3.6-7.6 7.6-7.6z" fill="#ff7043"/><path d="m175.2 227.6c0 4.4-3.6 7.6-7.6 7.6s-7.6-3.2-7.6-7.6 3.6-7.6 7.6-7.6z" fill="#ff7043"/><path d="m115.6 316 7.6 7.6c0 4.4-3.6 7.6-7.6 7.6-4.4 0-7.6-3.6-7.6-7.6s3.2-7.6 7.6-7.6z" fill="#ff7043"/><path d="m255.6 511.2c-140.8 0-255.6-114.8-255.6-255.6s114.8-255.6 255.6-255.6 255.6 114.8 255.6 255.6-114.8 255.6-255.6 255.6zm0-503.2c-136.4 0-247.6 111.2-247.6 247.6s111.2 247.6 247.6 247.6 247.6-111.2 247.6-247.6-111.2-247.6-247.6-247.6z"/><path d="m255.6 491.6c-130 0-236-106-236-236s106-236 236-236c54.8 0 108 19.2 150 54 1.6 1.6 2 4 .4 5.6s-4 2-5.6.4c-40.8-33.6-92-52-144.8-52-125.6 0-228 102.4-228 228s102.4 228 228 228 228-102.4 228-228c0-54.4-19.6-107.2-55.2-148.4-1.6-1.6-1.2-4 .4-5.6s4.4-1.2 5.6.4c36.8 42.8 57.2 97.2 57.2 153.6 0 130-106 236-236 236z"/><path d="m167.6 239.2c-6.4 0-11.6-5.2-11.6-11.6s5.2-11.6 11.6-11.6c2.4 0 4 1.6 4 4s-1.6 4-4 4c-2 0-3.6 1.6-3.6 3.6s1.6 3.6 3.6 3.6 3.6-1.6 3.6-3.6c0-2.4 1.6-4 4-4s4 1.6 4 4c0 6.4-5.2 11.6-11.6 11.6z"/><path d="m255.6 363.2c-6.4 0-11.6-5.2-11.6-11.6s5.2-11.6 11.6-11.6c2.4 0 4 1.6 4 4s-1.6 4-4 4c-2 0-3.6 1.6-3.6 3.6s1.6 3.6 3.6 3.6 3.6-1.6 3.6-3.6c0-2.4 1.6-4 4-4s4 1.6 4 4c0 6.4-5.2 11.6-11.6 11.6z"/><path d="m387.6 335.2c-6.4 0-11.6-5.2-11.6-11.6s5.2-11.6 11.6-11.6c2.4 0 4 1.6 4 4s-1.6 4-4 4c-2 0-3.6 1.6-3.6 3.6s1.6 3.6 3.6 3.6 3.6-1.6 3.6-3.6c0-2.4 1.6-4 4-4s4 1.6 4 4c0 6.4-5.2 11.6-11.6 11.6z"/><path d="m375.6 267.2c-6.4 0-11.6-5.2-11.6-11.6s5.2-11.6 11.6-11.6c2.4 0 4 1.6 4 4s-1.6 4-4 4c-2 0-3.6 1.6-3.6 3.6s1.6 3.6 3.6 3.6 3.6-1.6 3.6-3.6c0-2.4 1.6-4 4-4s4 1.6 4 4c0 6.4-5.2 11.6-11.6 11.6z"/><path d="m115.6 335.2c-6.4 0-11.6-5.2-11.6-11.6s5.2-11.6 11.6-11.6c2.4 0 4 1.6 4 4s-1.6 4-4 4c-2 0-3.6 1.6-3.6 3.6s1.6 3.6 3.6 3.6 3.6-1.6 3.6-3.6c0-2.4 1.6-4 4-4s4 1.6 4 4c0 6.4-5.2 11.6-11.6 11.6z"/><path d="m227.2 171.6c-6.4 0-11.6-5.2-11.6-11.6s5.2-11.6 11.6-11.6c2.4 0 4 1.6 4 4s-1.6 4-4 4c-2 0-3.6 1.6-3.6 3.6s1.6 3.6 3.6 3.6 3.6-1.6 3.6-3.6c0-2.4 1.6-4 4-4s4 1.6 4 4c0 6.4-5.2 11.6-11.6 11.6z"/><path d="m151.6 163.6c-2.4 0-4-1.6-4-4s1.6-4 4-4c1.6 0 3.2.8 3.6 2.4.4.4.4 1.2.4 1.6 0 2.4-1.6 4-4 4z"/><path d="m304 119.6c-2.4 0-4-1.6-4-4s1.6-4 4-4c1.6 0 3.2.8 3.6 2.4.4.4.4 1.2.4 1.6 0 2-2 4-4 4z"/><path d="m387.6 195.6c-2.4 0-4-1.6-4-4s1.6-4 4-4c2.4 0 4 1.6 4 4s-2 4-4 4z"/><path d="m431.6 259.6c-2.4 0-4-2-4-4s1.6-4 4-4c2.4 0 4 1.6 4 4s-1.6 4-4 4z"/><path d="m296 207.6c-2.4 0-4-2-4-4s1.6-4 4-4c2.4 0 4 1.6 4 4s-2 4-4 4z"/><path d="m372.4 115.2c-2.4 0-4-1.6-4-4 0-1.6.8-2.8 2.4-3.6.4-.4 1.2-.4 1.6-.4 2.4 0 4 1.6 4 4 0 2.4-2 4-4 4z"/><path d="m185.6 327.6c-1.2 0-2-.4-2.8-1.2s-1.2-1.6-1.2-2.8.4-2 1.2-2.8c1.6-1.6 4-1.6 5.6 0 .8.8 1.2 1.6 1.2 2.8s-.4 2-1.2 2.8-1.6 1.2-2.8 1.2z"/><path d="m193.6 419.6c-1.2 0-2-.4-2.8-1.2s-1.2-1.6-1.2-2.8.4-2 1.2-2.8c1.6-1.6 4-1.6 5.6 0 .8.8 1.2 1.6 1.2 2.8s-.4 2-1.2 2.8-1.6 1.2-2.8 1.2z"/><path d="m307.6 427.6c-2.4 0-4-1.6-4-4s1.6-4 4-4c2.4 0 4 1.6 4 4s-2 4-4 4z"/><path d="m79.6 227.6c-2.4 0-4-1.6-4-4s1.6-4 4-4c1.6 0 3.2.8 3.6 2.4.4.4.4 1.2.4 1.6 0 2-1.6 4-4 4z"/><path d="m227.2 92c-2.4 0-4-1.6-4-4s1.6-4 4-4c2.4 0 4 1.6 4 4s-1.6 4-4 4z"/><path d="m259.6 271.6c-2.4 0-4-2-4-4s1.6-4 4-4c2.4 0 4 1.6 4 4s-2 4-4 4z"/></svg>