<?xml version="1.0" encoding="iso-8859-1"?>
<!-- Generator: Adobe Illustrator 19.0.0, SVG Export Plug-In . SVG Version: 6.00 Build 0)  -->
<svg version="1.1" id="Layer_1" xmlns="http://www.w3.org/2000/svg" xmlns:xlink="http://www.w3.org/1999/xlink" x="0px" y="0px"
	 viewBox="0 0 512 512" style="enable-background:new 0 0 512 512;" xml:space="preserve">
<rect x="72.525" y="206.208" transform="matrix(-0.7072 -0.707 0.707 -0.7072 75.6006 463.2169)" style="fill:#CCCCCC;" width="122.383" height="19.492"/>
<path style="fill:#E09B2D;" d="M114.88,174.391c-1.364,4.587-3.859,8.901-7.485,12.514l-1.364,1.377l-1.377,1.364
	c-11.669,11.669-30.59,11.669-42.272,0L8.752,136.017c-11.669-11.669-11.669-30.59,0-42.272l2.742-2.742
	c3.626-3.626,7.94-6.108,12.527-7.472c10.188-3.08,21.701-0.572,29.745,7.472l53.629,53.629
	C115.452,152.69,117.96,164.203,114.88,174.391z"/>
<path style="fill:#F7B239;" d="M114.88,174.391c-10.201,3.067-21.701,0.559-29.758-7.485l-53.629-53.629
	c-8.044-8.044-10.552-19.557-7.472-29.745c10.188-3.08,21.701-0.572,29.745,7.472l53.629,53.629
	C115.452,152.69,117.96,164.203,114.88,174.391z"/>
<path style="fill:#F95428;" d="M161.388,243.627H512c0,73.94-40.089,138.524-99.735,173.181L300.37,448.575l-88.978-31.767
	c-59.633-34.657-99.722-99.241-99.722-173.181L161.388,243.627L161.388,243.627z"/>
<path style="fill:#E54728;" d="M227.328,243.627h-65.939H111.67c0,73.94,40.089,138.524,99.722,173.181l67.538,20.073l48.12-20.073
	C267.417,382.151,227.328,317.567,227.328,243.627z"/>
<path style="fill:#E6E6E6;" d="M480.15,416.808v2.781c0,23.585-19.128,42.714-42.714,42.714H186.221
	c-23.585,0-42.714-19.128-42.714-42.714v-2.781h67.885h200.873H480.15z"/>
<path style="fill:#CCCCCC;" d="M218.877,419.589v-2.781h-7.485h-67.885v2.781c0,23.585,19.128,42.714,42.714,42.714h75.37
	C238.006,462.303,218.877,443.175,218.877,419.589z"/>
<g>
	<path style="fill:#E6E6E6;" d="M318.767,187.326c0,5.382,4.364,9.746,9.746,9.746c5.382,0,9.746-4.364,9.746-9.746
		c0-34.359-9.042-51.691-17.785-68.45c-8.01-15.352-15.574-29.852-15.574-59.433c0-5.382-4.364-9.746-9.746-9.746
		c-5.382,0-9.746,4.364-9.746,9.746c0,34.359,9.042,51.691,17.785,68.45C311.202,143.245,318.767,157.745,318.767,187.326z"/>
	<path style="fill:#E6E6E6;" d="M261.851,187.326c0,5.382,4.364,9.746,9.746,9.746c5.382,0,9.746-4.364,9.746-9.746
		c0-31.012-8.521-47.344-16.038-61.752c-7.111-13.63-13.828-26.504-13.828-52.737c0-5.382-4.364-9.746-9.746-9.746
		c-5.382,0-9.746,4.364-9.746,9.746c0,31.012,8.521,47.344,16.038,61.754C255.134,148.22,261.851,161.093,261.851,187.326z"/>
	<path style="fill:#E6E6E6;" d="M372.191,187.326c0,5.382,4.364,9.746,9.746,9.746c5.382,0,9.746-4.364,9.746-9.746
		c0-31.012-8.521-47.344-16.038-61.752c-7.111-13.63-13.828-26.504-13.828-52.737c0-5.382-4.364-9.746-9.746-9.746
		s-9.746,4.364-9.746,9.746c0,31.012,8.521,47.344,16.038,61.754C365.474,148.22,372.191,161.093,372.191,187.326z"/>
</g>
<g>
</g>
<g>
</g>
<g>
</g>
<g>
</g>
<g>
</g>
<g>
</g>
<g>
</g>
<g>
</g>
<g>
</g>
<g>
</g>
<g>
</g>
<g>
</g>
<g>
</g>
<g>
</g>
<g>
</g>
</svg>
