<?xml version="1.0" encoding="iso-8859-1"?>
<!-- Generator: Adobe Illustrator 19.0.0, SVG Export Plug-In . SVG Version: 6.00 Build 0)  -->
<svg version="1.1" id="Layer_1" xmlns="http://www.w3.org/2000/svg" xmlns:xlink="http://www.w3.org/1999/xlink" x="0px" y="0px"
	 viewBox="0 0 512 512" style="enable-background:new 0 0 512 512;" xml:space="preserve">
<g>
	<path style="fill:#FFC033;" d="M258.179,67.601c-9.333,0-16.9-7.567-16.9-16.9V16.9c0-9.333,7.567-16.9,16.9-16.9
		c9.333,0,16.9,7.567,16.9,16.9v33.8C275.079,60.034,267.512,67.601,258.179,67.601z"/>
	<path style="fill:#FFC033;" d="M190.578,78.868c-4.325,0-8.651-1.651-11.95-4.951l-33.8-33.8c-6.6-6.599-6.6-17.3,0-23.9
		c6.599-6.599,17.3-6.599,23.9,0l33.8,33.8c6.6,6.599,6.6,17.3,0,23.9C199.229,77.217,194.903,78.868,190.578,78.868z"/>
</g>
<path style="fill:#F9A926;" d="M325.779,78.868c-4.325,0-8.651-1.651-11.95-4.951c-6.6-6.599-6.6-17.3,0-23.9l33.8-33.8
	c6.599-6.599,17.3-6.599,23.9,0s6.6,17.3,0,23.9l-33.8,33.8C334.43,77.217,330.105,78.868,325.779,78.868z"/>
<path style="fill:#D7EBFF;" d="M96.299,495.139c-9.056-2.258-14.568-11.431-12.309-20.488l32.707-131.186
	c2.259-9.056,11.43-14.563,20.488-12.31c9.056,2.258,14.568,11.431,12.309,20.487l-32.707,131.186
	C114.529,491.875,105.366,497.398,96.299,495.139z"/>
<path style="fill:#BDDEFF;" d="M116.786,482.829l32.707-131.186c2.257-9.051-3.247-18.218-12.294-20.482L96.299,495.139
	C105.366,497.398,114.529,491.875,116.786,482.829z"/>
<path style="fill:#D7EBFF;" d="M272.904,235.801V134.355c0-7.763-5.284-14.523-12.822-16.404L128.836,85.232
	c-7.526-1.882-15.368,1.611-19.007,8.45l-47.704,89.56l42.138,42.138l96.455,30.108L272.904,235.801z"/>
<path style="fill:#BDDEFF;" d="M200.718,255.488l72.186-19.686V134.355c0-7.763-5.284-14.523-12.822-16.404l-65.623-16.359
	l-35.161,140.968L200.718,255.488z"/>
<path style="fill:#F26D76;" d="M272.904,235.801v13.205c0.023,37.023-16.979,72.434-45.484,94.709
	c-27.604,21.587-63.477,28.944-98.415,20.235c-34.95-8.709-63.15-32.065-77.392-64.074c-14.703-33.057-13.092-72.299,4.315-104.984
	l6.197-11.65L272.904,235.801z"/>
<path style="fill:#E65C64;" d="M129.02,363.953c34.934,8.704,70.802,1.345,98.401-20.239c28.505-22.274,45.507-57.686,45.484-94.709
	v-13.205l-105.367-26.274L129.02,363.953z"/>
<path style="fill:#D7EBFF;" d="M165.993,512c-1.354,0-2.728-0.164-4.101-0.506L30.706,478.787
	c-9.056-2.258-14.568-11.431-12.309-20.487c2.258-9.055,11.43-14.568,20.486-12.31l131.186,32.707
	c9.056,2.258,14.568,11.431,12.309,20.488C180.463,506.867,173.57,512,165.993,512z"/>
<path style="fill:#BDDEFF;" d="M165.993,512c7.577,0,14.47-5.133,16.385-12.816c2.258-9.056-3.253-18.23-12.309-20.488
	l-65.59-16.354l-8.18,32.795l0,0l65.593,16.354C163.265,511.835,164.638,512,165.993,512z"/>
<path style="fill:#D7EBFF;" d="M395.214,482.829l-32.707-131.186c-2.258-9.056,3.253-18.23,12.309-20.487
	c9.055-2.261,18.229,3.253,20.488,12.31l32.707,131.186c2.258,9.056-3.253,18.23-12.309,20.488
	C406.641,497.397,397.472,491.883,395.214,482.829z"/>
<path style="fill:#BDDEFF;" d="M428.011,474.652l-32.707-131.186c-2.258-9.057-11.431-14.571-20.488-12.31l0,0l40.885,163.982
	C424.758,492.881,430.269,483.708,428.011,474.652z"/>
<path style="fill:#D7EBFF;" d="M402.179,93.682c-3.65-6.85-11.481-10.32-19.007-8.45l-131.19,32.707
	c-7.526,1.87-12.81,8.63-12.81,16.382l-0.056,101.48l23.602,23.602l187.155-47.655v-28.495L402.179,93.682z"/>
<path style="fill:#BDDEFF;" d="M383.172,85.232l-65.595,16.354l0,0l33.724,135.261l98.571-25.099v-28.495l-47.692-89.571
	C398.529,86.832,390.699,83.362,383.172,85.232z"/>
<path style="fill:#F26D76;" d="M460.395,299.876c-14.241,32.009-42.453,55.365-77.403,64.074
	c-34.966,8.72-70.826,1.338-98.415-20.235c-28.505-22.274-45.495-57.686-45.473-94.72l0.011-13.193l210.757-52.548l6.197,11.639
	C473.476,227.577,475.087,266.819,460.395,299.876z"/>
<path style="fill:#E65C64;" d="M460.395,299.876c14.692-33.057,13.081-72.299-4.326-104.984l-6.197-11.639L344.49,209.528
	l38.502,154.423l0,0C417.942,355.241,446.154,331.885,460.395,299.876z"/>
<path style="fill:#D7EBFF;" d="M346.008,512c-7.577,0-14.47-5.132-16.385-12.816c-2.258-9.056,3.253-18.23,12.309-20.488
	l131.186-32.707c9.057-2.262,18.229,3.253,20.486,12.31c2.258,9.056-3.253,18.23-12.309,20.487l-131.186,32.707
	C348.735,511.835,347.361,512,346.008,512z"/>
<path style="fill:#BDDEFF;" d="M493.603,458.299c-2.258-9.057-11.429-14.572-20.486-12.31l-65.593,16.354l8.177,32.797l0,0
	l65.593-16.354C490.35,476.528,495.862,467.355,493.603,458.299z"/>
<path style="fill:#F9A926;" d="M275.079,50.701V16.9c0-9.333-7.567-16.9-16.9-16.9v67.601
	C267.512,67.601,275.079,60.034,275.079,50.701z"/>
<g>
</g>
<g>
</g>
<g>
</g>
<g>
</g>
<g>
</g>
<g>
</g>
<g>
</g>
<g>
</g>
<g>
</g>
<g>
</g>
<g>
</g>
<g>
</g>
<g>
</g>
<g>
</g>
<g>
</g>
</svg>
