<?xml version="1.0" encoding="iso-8859-1"?>
<!-- Uploaded to: SVG Repo, www.svgrepo.com, Transformed by: SVG Repo Mixer Tools -->
<svg height="800px" width="800px" version="1.1" id="Layer_1" xmlns="http://www.w3.org/2000/svg" xmlns:xlink="http://www.w3.org/1999/xlink" 
	 viewBox="0 0 511.2 511.2" xml:space="preserve">
<path style="fill:#FFCC80;" d="M160,227.6c0,4.4,3.6,7.6,7.6,7.6s7.6-3.2,7.6-7.6l-7.6-7.6C163.2,220,160,223.6,160,227.6z
	 M219.6,160c0,4.4,3.6,7.6,7.6,7.6c4.4,0,7.6-3.6,7.6-7.6l-7.6-7.6C223.2,152.4,219.6,156,219.6,160z M380,323.6
	c0,4,3.2,7.6,7.6,7.6c4.4,0,7.6-3.6,7.6-7.6l-7.6-7.6C383.2,316,380,319.2,380,323.6z M431.6,104.4c34.8,40.8,56,93.6,56,151.2
	c0,128-104,232-232,232s-232-104-232-232s104-232,232-232c56,0,107.6,20,147.6,52.8L431.6,104.4z M375.6,263.2
	c4.4,0,7.6-3.6,7.6-7.6l-7.6-7.6c-4,0-7.6,3.6-7.6,7.6C368,259.6,371.6,263.2,375.6,263.2z M108,323.6c0,4.4,3.6,7.6,7.6,7.6
	c4.4,0,7.6-3.6,7.6-7.6l-7.6-7.6C111.2,316,108,319.6,108,323.6z M431.6,255.6L431.6,255.6L431.6,255.6L431.6,255.6z M387.6,191.6
	L387.6,191.6L387.6,191.6L387.6,191.6z M307.6,423.6L307.6,423.6L307.6,423.6L307.6,423.6z M296,203.6L296,203.6
	C295.6,203.6,295.6,203.6,296,203.6C295.6,203.6,295.6,203.6,296,203.6z M263.2,351.6l-7.6-7.6c-4.4,0-7.6,3.6-7.6,7.6
	s3.6,7.6,7.6,7.6C260,359.2,263.2,356,263.2,351.6z M259.6,267.6L259.6,267.6L259.6,267.6L259.6,267.6z M227.2,88L227.2,88L227.2,88
	L227.2,88z"/>
<g>
	<path style="fill:#FF7043;" d="M387.6,316l7.6,7.6c0,4-3.6,7.6-7.6,7.6c-4.4,0-7.6-3.6-7.6-7.6C380,319.2,383.2,316,387.6,316z"/>
	<path style="fill:#FF7043;" d="M383.2,255.6c0,4-3.2,7.6-7.6,7.6c-4,0-7.6-3.6-7.6-7.6c0-4,3.6-7.6,7.6-7.6L383.2,255.6z"/>
	<path style="fill:#FF7043;" d="M255.6,344l7.6,7.6c0,4-3.6,7.6-7.6,7.6c-4.4,0-7.6-3.6-7.6-7.6S251.2,344,255.6,344z"/>
</g>
<path style="fill:#F4511E;" d="M23.6,255.6c0,128,104,232,232,232s232-104,232-232c0-57.6-21.2-110.4-56-151.2l-28.4-27.6
	c-40-33.2-91.6-53.2-147.6-53.2C127.6,23.6,23.6,127.6,23.6,255.6z M255.6,4c139.2,0,251.6,112.8,251.6,251.6
	S394.4,507.2,255.6,507.2S4,394.4,4,255.6S116.4,4,255.6,4z"/>
<g>
	<path style="fill:#FF7043;" d="M234.8,160c0,4.4-3.6,7.6-7.6,7.6c-4.4,0-7.6-3.6-7.6-7.6s3.6-7.6,7.6-7.6L234.8,160z"/>
	<path style="fill:#FF7043;" d="M175.2,227.6c0,4.4-3.6,7.6-7.6,7.6s-7.6-3.2-7.6-7.6s3.6-7.6,7.6-7.6L175.2,227.6z"/>
	<path style="fill:#FF7043;" d="M115.6,316l7.6,7.6c0,4.4-3.6,7.6-7.6,7.6c-4.4,0-7.6-3.6-7.6-7.6S111.2,316,115.6,316z"/>
</g>
<path d="M255.6,511.2C114.8,511.2,0,396.4,0,255.6S114.8,0,255.6,0s255.6,114.8,255.6,255.6S396.4,511.2,255.6,511.2z M255.6,8
	C119.2,8,8,119.2,8,255.6s111.2,247.6,247.6,247.6S503.2,392,503.2,255.6S392,8,255.6,8z"/>
<path d="M255.6,491.6c-130,0-236-106-236-236s106-236,236-236c54.8,0,108,19.2,150,54c1.6,1.6,2,4,0.4,5.6s-4,2-5.6,0.4
	c-40.8-33.6-92-52-144.8-52c-125.6,0-228,102.4-228,228s102.4,228,228,228s228-102.4,228-228c0-54.4-19.6-107.2-55.2-148.4
	c-1.6-1.6-1.2-4,0.4-5.6c1.6-1.6,4.4-1.2,5.6,0.4c36.8,42.8,57.2,97.2,57.2,153.6C491.6,385.6,385.6,491.6,255.6,491.6z"/>
<path d="M167.6,239.2c-6.4,0-11.6-5.2-11.6-11.6s5.2-11.6,11.6-11.6c2.4,0,4,1.6,4,4s-1.6,4-4,4c-2,0-3.6,1.6-3.6,3.6
	s1.6,3.6,3.6,3.6s3.6-1.6,3.6-3.6c0-2.4,1.6-4,4-4s4,1.6,4,4C179.2,234,174,239.2,167.6,239.2z"/>
<path d="M255.6,363.2c-6.4,0-11.6-5.2-11.6-11.6s5.2-11.6,11.6-11.6c2.4,0,4,1.6,4,4s-1.6,4-4,4c-2,0-3.6,1.6-3.6,3.6
	s1.6,3.6,3.6,3.6s3.6-1.6,3.6-3.6c0-2.4,1.6-4,4-4s4,1.6,4,4C267.2,358,262,363.2,255.6,363.2z"/>
<path d="M387.6,335.2c-6.4,0-11.6-5.2-11.6-11.6s5.2-11.6,11.6-11.6c2.4,0,4,1.6,4,4s-1.6,4-4,4c-2,0-3.6,1.6-3.6,3.6
	s1.6,3.6,3.6,3.6s3.6-1.6,3.6-3.6c0-2.4,1.6-4,4-4s4,1.6,4,4C399.2,330,394,335.2,387.6,335.2z"/>
<path d="M375.6,267.2c-6.4,0-11.6-5.2-11.6-11.6c0-6.4,5.2-11.6,11.6-11.6c2.4,0,4,1.6,4,4s-1.6,4-4,4c-2,0-3.6,1.6-3.6,3.6
	c0,2,1.6,3.6,3.6,3.6s3.6-1.6,3.6-3.6c0-2.4,1.6-4,4-4s4,1.6,4,4C387.2,262,382,267.2,375.6,267.2z"/>
<path d="M115.6,335.2c-6.4,0-11.6-5.2-11.6-11.6s5.2-11.6,11.6-11.6c2.4,0,4,1.6,4,4s-1.6,4-4,4c-2,0-3.6,1.6-3.6,3.6
	s1.6,3.6,3.6,3.6s3.6-1.6,3.6-3.6c0-2.4,1.6-4,4-4s4,1.6,4,4C127.2,330,122,335.2,115.6,335.2z"/>
<path d="M227.2,171.6c-6.4,0-11.6-5.2-11.6-11.6s5.2-11.6,11.6-11.6c2.4,0,4,1.6,4,4s-1.6,4-4,4c-2,0-3.6,1.6-3.6,3.6
	s1.6,3.6,3.6,3.6s3.6-1.6,3.6-3.6c0-2.4,1.6-4,4-4s4,1.6,4,4C238.8,166.4,233.6,171.6,227.2,171.6z"/>
<path d="M151.6,163.6L151.6,163.6c-2.4,0-4-1.6-4-4s1.6-4,4-4c1.6,0,3.2,0.8,3.6,2.4c0.4,0.4,0.4,1.2,0.4,1.6
	C155.6,162,154,163.6,151.6,163.6z"/>
<path d="M304,119.6L304,119.6c-2.4,0-4-1.6-4-4s1.6-4,4-4c1.6,0,3.2,0.8,3.6,2.4c0.4,0.4,0.4,1.2,0.4,1.6
	C308,117.6,306,119.6,304,119.6z"/>
<path d="M387.6,195.6c-2.4,0-4-1.6-4-4s1.6-4,4-4l0,0c2.4,0,4,1.6,4,4S389.6,195.6,387.6,195.6z"/>
<path d="M431.6,259.6c-2.4,0-4-2-4-4c0-2,1.6-4,4-4l0,0c2.4,0,4,1.6,4,4C435.6,258,434,259.6,431.6,259.6z"/>
<path d="M296,207.6c-2.4,0-4-2-4-4s1.6-4,4-4l0,0c2.4,0,4,1.6,4,4S298,207.6,296,207.6z"/>
<path d="M372.4,115.2c-2.4,0-4-1.6-4-4c0-1.6,0.8-2.8,2.4-3.6c0.4-0.4,1.2-0.4,1.6-0.4c2.4,0,4,1.6,4,4l0,0
	C376.4,113.6,374.4,115.2,372.4,115.2z"/>
<path d="M185.6,327.6c-1.2,0-2-0.4-2.8-1.2c-0.8-0.8-1.2-1.6-1.2-2.8c0-1.2,0.4-2,1.2-2.8c1.6-1.6,4-1.6,5.6,0
	c0.8,0.8,1.2,1.6,1.2,2.8c0,1.2-0.4,2-1.2,2.8C187.6,327.2,186.8,327.6,185.6,327.6z"/>
<path d="M193.6,419.6c-1.2,0-2-0.4-2.8-1.2c-0.8-0.8-1.2-1.6-1.2-2.8c0-1.2,0.4-2,1.2-2.8c1.6-1.6,4-1.6,5.6,0
	c0.8,0.8,1.2,1.6,1.2,2.8c0,1.2-0.4,2-1.2,2.8C195.6,419.2,194.8,419.6,193.6,419.6z"/>
<path d="M307.6,427.6c-2.4,0-4-1.6-4-4s1.6-4,4-4l0,0c2.4,0,4,1.6,4,4S309.6,427.6,307.6,427.6z"/>
<path d="M79.6,227.6L79.6,227.6c-2.4,0-4-1.6-4-4s1.6-4,4-4c1.6,0,3.2,0.8,3.6,2.4c0.4,0.4,0.4,1.2,0.4,1.6
	C83.6,225.6,82,227.6,79.6,227.6z"/>
<path d="M227.2,92c-2.4,0-4-1.6-4-4s1.6-4,4-4l0,0c2.4,0,4,1.6,4,4S229.6,92,227.2,92z"/>
<path d="M259.6,271.6c-2.4,0-4-2-4-4s1.6-4,4-4l0,0c2.4,0,4,1.6,4,4S261.6,271.6,259.6,271.6z"/>
</svg>