<svg enable-background="new 0 0 323.162 323.162" viewBox="0 0 323.162 323.162" xmlns="http://www.w3.org/2000/svg"><path d="m227.478 61.547c0 11.123-9.017 20.141-20.141 20.141s-20.141-9.017-20.141-20.141c0-15.356 20.141-30.928 20.141-30.928s20.141 15.572 20.141 30.928z" fill="#ff5959"/><path d="m135.966 61.547c0 11.123-9.017 20.141-20.141 20.141s-20.14-9.018-20.14-20.141c0-15.356 20.141-30.928 20.141-30.928s20.14 15.572 20.14 30.928z" fill="#ff5959"/><circle cx="161.581" cy="43.432" fill="#ff5959" r="35.596"/><path d="m33.554 133.458h256.056v160.018h-256.056z" fill="#fffeb9"/><g fill="#ffe165"><path d="m271.268 66.154h-219.374c-16.557 0-29.98 13.422-29.98 29.98v40.514h279.333v-40.514c.001-16.558-13.421-29.98-29.979-29.98z"/><path d="m21.915 129.581v75.514c0 10.359 9.106 18.835 20.235 18.835 11.129 0 20.235-8.476 20.235-18.835v-75.514z"/><path d="m101.758 129.581v64.82c0 10.359 9.106 18.835 20.235 18.835 11.129 0 20.235-8.476 20.235-18.835v-64.82z"/><path d="m141.679 129.581v42.174c0 10.359 9.106 18.835 20.235 18.835 11.129 0 20.235-8.476 20.235-18.835v-42.174z"/><path d="m61.836 129.581v45.985c0 10.359 9.106 18.835 20.236 18.835 11.129 0 20.235-8.476 20.235-18.835v-45.985z"/><path d="m301.248 129.581v75.514c0 10.359-8.439 18.835-19.569 18.835-11.129 0-20.235-8.476-20.235-18.835v-75.514z"/><path d="m222.072 129.581v64.82c0 10.359-9.106 18.835-20.235 18.835-11.129 0-20.235-8.476-20.235-18.835v-64.82z"/><path d="m261.993 129.581v45.985c0 10.359-9.106 18.835-20.236 18.835-11.129 0-20.235-8.476-20.235-18.835v-45.985z"/></g><circle cx="41.859" cy="269.183" fill="#ff5959" r="23.944"/><circle cx="89.748" cy="269.183" fill="#ff5959" r="23.944"/><circle cx="137.637" cy="269.183" fill="#ff5959" r="23.944"/><circle cx="185.526" cy="269.183" fill="#ff5959" r="23.944"/><circle cx="233.415" cy="269.183" fill="#ff5959" r="23.944"/><circle cx="281.304" cy="269.183" fill="#ff5959" r="23.944"/><path d="m301.312 315.327h-279.461c-12.068 0-21.851-9.783-21.851-21.851 0-12.068 9.783-21.851 21.851-21.851h279.46c12.068 0 21.851 9.783 21.851 21.851.001 12.068-9.782 21.851-21.85 21.851z" fill="#5fd2db"/></svg>