<svg enable-background="new 0 0 512 512" viewBox="0 0 512 512" xmlns="http://www.w3.org/2000/svg"><path d="m72.525 206.208h122.383v19.492h-122.383z" fill="#ccc" transform="matrix(-.7072 -.707 .707 -.7072 75.6006 463.2169)"/><path d="m114.88 174.391c-1.364 4.587-3.859 8.901-7.485 12.514l-1.364 1.377-1.377 1.364c-11.669 11.669-30.59 11.669-42.272 0l-53.63-53.629c-11.669-11.669-11.669-30.59 0-42.272l2.742-2.742c3.626-3.626 7.94-6.108 12.527-7.472 10.188-3.08 21.701-.572 29.745 7.472l53.629 53.629c8.057 8.058 10.565 19.571 7.485 29.759z" fill="#e09b2d"/><path d="m114.88 174.391c-10.201 3.067-21.701.559-29.758-7.485l-53.629-53.629c-8.044-8.044-10.552-19.557-7.472-29.745 10.188-3.08 21.701-.572 29.745 7.472l53.629 53.629c8.057 8.057 10.565 19.57 7.485 29.758z" fill="#f7b239"/><path d="m161.388 243.627h350.612c0 73.94-40.089 138.524-99.735 173.181l-111.895 31.767-88.978-31.767c-59.633-34.657-99.722-99.241-99.722-173.181z" fill="#f95428"/><path d="m227.328 243.627h-65.939-49.719c0 73.94 40.089 138.524 99.722 173.181l67.538 20.073 48.12-20.073c-59.633-34.657-99.722-99.241-99.722-173.181z" fill="#e54728"/><path d="m480.15 416.808v2.781c0 23.585-19.128 42.714-42.714 42.714h-251.215c-23.585 0-42.714-19.128-42.714-42.714v-2.781h67.885 200.873z" fill="#e6e6e6"/><path d="m218.877 419.589v-2.781h-7.485-67.885v2.781c0 23.585 19.128 42.714 42.714 42.714h75.37c-23.585 0-42.714-19.128-42.714-42.714z" fill="#ccc"/><g fill="#e6e6e6"><path d="m318.767 187.326c0 5.382 4.364 9.746 9.746 9.746s9.746-4.364 9.746-9.746c0-34.359-9.042-51.691-17.785-68.45-8.01-15.352-15.574-29.852-15.574-59.433 0-5.382-4.364-9.746-9.746-9.746s-9.746 4.364-9.746 9.746c0 34.359 9.042 51.691 17.785 68.45 8.009 15.352 15.574 29.852 15.574 59.433z"/><path d="m261.851 187.326c0 5.382 4.364 9.746 9.746 9.746s9.746-4.364 9.746-9.746c0-31.012-8.521-47.344-16.038-61.752-7.111-13.63-13.828-26.504-13.828-52.737 0-5.382-4.364-9.746-9.746-9.746s-9.746 4.364-9.746 9.746c0 31.012 8.521 47.344 16.038 61.754 7.111 13.629 13.828 26.502 13.828 52.735z"/><path d="m372.191 187.326c0 5.382 4.364 9.746 9.746 9.746s9.746-4.364 9.746-9.746c0-31.012-8.521-47.344-16.038-61.752-7.111-13.63-13.828-26.504-13.828-52.737 0-5.382-4.364-9.746-9.746-9.746s-9.746 4.364-9.746 9.746c0 31.012 8.521 47.344 16.038 61.754 7.111 13.629 13.828 26.502 13.828 52.735z"/></g></svg>