<?xml version="1.0" encoding="iso-8859-1"?>
<!-- Uploaded to: SVG Repo, www.svgrepo.com, Generator: SVG Repo Mixer Tools -->
<svg version="1.1" id="Layer_1" xmlns="http://www.w3.org/2000/svg" xmlns:xlink="http://www.w3.org/1999/xlink" 
	 viewBox="0 0 512 512" xml:space="preserve">
<path style="fill:#E6E6E6;" d="M440.971,197.678c-16.951-1.309-33.02,2.891-46.307,11.003v-17.45
	c0-5.923-4.802-10.725-10.725-10.725H100.538c-5.923,0-10.725,4.802-10.725,10.725v138.427c0,62.768,50.883,113.651,113.651,113.651
	h77.694c59.278,0,107.96-45.338,113.228-103.243c11.785,7.309,25.687,11.541,40.574,11.541c42.511,0,76.936-34.404,77.04-76.889
	C512.099,234.167,481.402,200.8,440.971,197.678z M432.235,311.962c-20.32,0-36.792-16.472-36.792-36.792
	s16.472-36.792,36.792-36.792c20.32,0,36.792,16.472,36.792,36.792S452.554,311.962,432.235,311.962z"/>
<path style="fill:#D1D1D1;" d="M125.713,329.656V183.049c0-1.405,1.139-2.543,2.543-2.543h-27.718
	c-5.923,0-10.725,4.802-10.725,10.725v138.427c0,62.768,50.883,113.651,113.651,113.651h35.9
	C176.596,443.307,125.713,392.424,125.713,329.656z"/>
<path style="fill:#FFDB6C;" d="M10.189,443.307c-6.506,0-11.455,6.064-9.901,12.383c5.549,22.579,25.928,39.327,50.217,39.327
	H449.89c24.29,0,44.668-16.748,50.217-39.327c1.552-6.318-3.395-12.383-9.901-12.383L10.189,443.307L10.189,443.307z"/>
<path style="fill:#FFB04C;" d="M438.234,443.307c0,28.558-23.151,51.709-51.709,51.709h63.365c24.29,0,44.668-16.748,50.217-39.327
	c1.552-6.318-3.395-12.383-9.901-12.383h-51.972V443.307z"/>
<rect x="89.813" y="212.531" style="fill:#FF705B;" width="304.851" height="13.359"/>
<rect x="89.813" y="238.683" style="fill:#42A555;" width="304.851" height="13.359"/>
<rect x="89.813" y="212.531" style="fill:#F44A46;" width="35.9" height="13.359"/>
<rect x="89.813" y="238.683" style="fill:#427451;" width="35.9" height="13.359"/>
<path style="fill:#D1D1D1;" d="M394.664,340.23c9.295,5.71,19.892,9.508,31.244,10.838v-39.66
	c-17.303-3.001-30.465-18.078-30.465-36.239c0-18.16,13.162-33.238,30.465-36.239v-40.968c-11.339,1.307-21.97,5.055-31.244,10.717
	V340.23z"/>
<g>
	<path style="fill:#E6E6E6;" d="M125.713,142.544c-4.839,0-8.76-3.921-8.76-8.76V25.743c0-4.839,3.921-8.76,8.76-8.76
		c4.839,0,8.76,3.921,8.76,8.76v108.041C134.473,138.623,130.552,142.544,125.713,142.544z"/>
	<path style="fill:#E6E6E6;" d="M196.962,142.544c-4.839,0-8.76-3.921-8.76-8.76v-86.05c0-4.839,3.921-8.76,8.76-8.76
		s8.76,3.921,8.76,8.76v86.05C205.722,138.623,201.801,142.544,196.962,142.544z"/>
</g>
</svg>