<?xml version="1.0" encoding="utf-8"?>
<!-- Generator: Adobe Illustrator 23.1.1, SVG Export Plug-In . SVG Version: 6.00 Build 0)  -->
<svg version="1.1" id="Layer_1" xmlns="http://www.w3.org/2000/svg" xmlns:xlink="http://www.w3.org/1999/xlink" x="0px" y="0px"
	 viewBox="0 0 225.3 177.4" style="enable-background:new 0 0 225.3 177.4;" xml:space="preserve">
<style type="text/css">
	.st0{fill:#293D60;}
	.st1{fill:#283E8E;}
	.st2{fill:#221F20;stroke:#FFFFFF;stroke-miterlimit:10;}
	.st3{fill:#3B5998;}
	.st4{fill:#9BC0DD;}
</style>
<path class="st0" d="M208.3,25.5L41.5,0.2C31.1-1.4,21.7,6.5,20.6,17.8L19,33.9c-0.8-0.1-1.7,0.2-2.3,0.9C0.1,54-1.2,75.5,0.6,90.2
	c1.9,15.8,7.7,26.9,8,27.4c0.5,0.9,1.3,1.4,2.1,1.6l-0.9,9.4c-1.1,11.3,6.5,21.7,16.9,23.3l166.8,25.3c10.4,1.6,19.8-6.3,20.9-17.6
	l10.8-110.8C226.3,37.5,218.8,27.1,208.3,25.5z M11.5,110.5c-4.4-11-13.6-41.7,6.7-68.4L11.5,110.5z"/>
<path class="st1" d="M208.6,30.4L42.8,10.2c-10.4-1.3-19.8,6.1-21.1,16.4l-1.9,14.8c-0.8-0.1-1.7,0.2-2.3,0.8
	C0.6,59.9-1.1,79.5,0.5,92.8c1.7,14.4,7.2,24.4,7.5,24.9c0.4,0.8,1.2,1.3,2.1,1.4l-1.1,8.6c-1.3,10.3,6.1,19.7,16.4,21l165.9,20.2
	c10.4,1.3,19.8-6.1,21.1-16.4L225,51.3C226.3,41,219,31.6,208.6,30.4z M11,111.2c-4.2-10-12.8-37.8,7.8-62.4L11,111.2z"/>
<path class="st2" d="M112.1,24.9c0.5-0.4,1-0.7,1.5-1.1c0,0,0.1,0,0.1-0.1c-0.1,0-0.3,0-0.4,0c-2.7-0.1-5.5,0.1-8.3,0.4l1.1,1.3
	C108.1,25.2,110.1,25,112.1,24.9z"/>
<path class="st3" d="M205.5,30L45.6,10.2C35.6,8.9,26.5,16,25.3,26l-1.8,14.3c-0.8-0.1-1.7,0.2-2.3,0.8C5,58.4,3.4,77.4,4.9,90.3
	c1.6,13.9,7,23.7,7.2,24.1c0.4,0.8,1.2,1.2,2,1.3l-1,8.3c-1.2,10,5.9,19.1,15.9,20.3l159.9,19.8c10,1.2,19.1-5.9,20.3-15.9
	l12.1-98.1C222.6,40.3,215.5,31.2,205.5,30z M15.1,108.2c-4-9.7-12.4-36.7,7.5-60.5L15.1,108.2z"/>
<g>
	<path class="st0" d="M33.4,63.6c-0.1,16.2,7.9,36.7,13.9,49.7c0.7,2.3,1.5,6.3,1.5,12.3c-0.1,10.3,8.5,19.2,14.4,12.7
		c6.2-6.8-0.2-13.9-5.4-19.3c-4.4-4.6-6.6-4.9-8.8-9.3c-6.6-17.2-8.8-35.5-8.7-50.1C40.4,52.1,33.5,45.5,33.4,63.6z M37.2,55.3
		c0.6,0.7-0.4,1.7-1,1.1C35.5,55.7,36.5,54.6,37.2,55.3z"/>
	<path class="st0" d="M200.3,41c-0.6,1-3.5,9.9-5.2,10.2c-1.7,0.4,2.6-6.5,3.6-9.2c1-2.6-0.2-3-0.7-2.1c-2.5,5.6-5,9.6-6.1,9.9
		c-1.1,0.2,3-9.4,3.6-10.4c0.6-1-0.2-1.6-0.9-0.6c-0.7,1-4.2,8.9-5.8,9.3c-1.6,0.3,1.7-6,3.1-8.2c1.4-2.2,0.6-2.7-0.1-2.5
		c-0.7,0.1-7.8,12.4-6.3,15.6c1.3,2.9,1.2,9.1,1.1,10.8c-3.9,14.2-8.6,36.1-5.6,52.1c3.3,17.9,9.2,10,7.9,2.7
		c-2.8-14.9-3.7-34.1,0.5-53c1.1-3,4.2-9.9,6.6-11.8c2.4-1.8,4.8-10.1,5.3-11.5C201.8,40.8,200.9,40,200.3,41z M186.5,123.1
		c-0.5,0.8-1.8-0.1-1.2-0.8C185.8,121.5,187.1,122.3,186.5,123.1z"/>
	<path class="st0" d="M80.1,116.9c-0.4-0.4-0.7-0.9-1.1-1.4c-0.3-0.5-0.7-0.9-1-1.4l-0.9-1.4c-5-8-7.4-17.2-7.2-26.3
		c0.1-2.3,0.2-4.5,0.6-6.7c0.4-2.2,0.9-4.4,1.5-6.5c1.3-4.2,3.2-8.2,5.5-11.8l0.4-0.7l0.5-0.7c0.3-0.4,0.6-0.9,0.9-1.3
		c0.7-0.8,1.3-1.7,2-2.5c1.3-1.6,2.9-3.1,4.4-4.4c0.8-0.7,1.5-1.4,2.4-2c0.4-0.3,0.8-0.6,1.2-0.9c0.4-0.3,0.8-0.6,1.2-0.9l0.6-0.4
		l0.7-0.4c0.4-0.3,0.9-0.6,1.3-0.8c0.4-0.2,0.8-0.5,1.3-0.7c0.4-0.2,0.8-0.5,1.3-0.7c3.5-1.8,7.1-3.2,10.7-4
		c3.6-0.9,7.2-1.3,10.6-1.4c6.9-0.2,13.3,1.1,18.6,3.2c0.7,0.3,1.3,0.5,2,0.8c0.6,0.3,1.3,0.6,1.9,0.8c0.6,0.3,1.2,0.6,1.7,0.9
		c0.6,0.3,1.1,0.6,1.6,1c2.1,1.3,4,2.6,5.6,4c3.2,2.6,5.3,5.1,6.7,6.9c0.7,0.9,1.2,1.6,1.5,2c0.3,0.5,0.5,0.7,0.5,0.7c0,0,0,0,0,0
		l0,0l0,0c0,0,0.2,0.3,0.5,0.7c0.3,0.5,0.8,1.2,1.3,2.2c0.2,0.4,0.4,0.8,0.7,1.2c0.2,0.1,0.4,0.1,0.6,0.2c-0.3-0.6-0.6-1.1-0.9-1.6
		c-0.5-1-1-1.7-1.3-2.2c-0.3-0.5-0.5-0.7-0.5-0.7l0,0c0,0-0.2-0.2-0.5-0.7c-0.3-0.5-0.8-1.2-1.5-2.1c-1.3-1.8-3.4-4.4-6.5-7.2
		c-0.4-0.4-0.8-0.7-1.2-1.1c-0.4-0.4-0.9-0.7-1.3-1.1c-0.4-0.4-0.9-0.7-1.4-1.1c-0.5-0.4-1-0.8-1.5-1.1c-2.1-1.5-4.5-2.9-7.1-4.1
		c-2.7-1.3-5.6-2.4-8.9-3.2c-3.2-0.8-6.7-1.4-10.4-1.5c-3.7-0.1-7.6,0.2-11.5,1c-0.5,0.1-1,0.2-1.5,0.3c-0.5,0.1-1,0.2-1.5,0.4
		c-0.5,0.1-1,0.3-1.5,0.4l-0.7,0.2L99.6,39c-0.5,0.2-1,0.4-1.5,0.5c-0.5,0.2-1,0.4-1.5,0.6c-1,0.4-1.9,0.9-2.9,1.3
		c-0.5,0.2-1,0.5-1.4,0.8c-0.5,0.3-1,0.5-1.4,0.8c-0.4,0.3-0.9,0.5-1.3,0.8l-0.7,0.4l-0.1,0.1l-0.1,0.1l-0.2,0.1l-0.3,0.2
		c-0.4,0.3-0.9,0.6-1.4,0.9c-0.4,0.3-0.9,0.7-1.3,1c-0.9,0.7-1.7,1.4-2.6,2.1c-1.7,1.5-3.3,3.1-4.7,4.9c-0.8,0.9-1.4,1.8-2.1,2.7
		c-0.3,0.5-0.7,0.9-1,1.4l-0.5,0.7l-0.5,0.7c-5,7.8-7.8,17.4-7.7,27.1c0,2.4,0.2,4.9,0.6,7.3c0.4,2.4,1,4.8,1.7,7.1
		c0.7,2.3,1.7,4.6,2.8,6.8l0.9,1.6c0.3,0.5,0.6,1.1,0.9,1.6c0.6,1.1,1.3,2,1.9,3l1.1,1.5c0.4,0.5,0.7,1,1.1,1.4
		c0.4,0.5,0.8,1,1.2,1.4l1.2,1.3c0.2,0.2,0.4,0.5,0.7,0.7c-0.1-0.9-0.2-1.8-0.2-2.8L80.1,116.9z"/>
	<polygon class="st0" points="168.3,88 168.3,88 168.3,88 	"/>
	<path class="st0" d="M163.1,95.2c-0.7,3.1-1.7,6.3-3.2,9.4c-1.4,3.2-3.2,6.3-5.4,9.3c-2.2,3-4.8,5.8-7.8,8.4
		c-0.4,0.3-0.8,0.6-1.1,0.9c-0.4,0.3-0.8,0.6-1.2,0.9c-0.4,0.3-0.8,0.6-1.2,0.9l-0.6,0.4c-0.1,0,0,0,0,0l-0.1,0.1l-0.2,0.1l-0.3,0.2
		c-0.4,0.3-0.9,0.6-1.3,0.9c-0.4,0.3-0.9,0.5-1.3,0.8c-0.9,0.5-1.8,1-2.7,1.5c-1.9,0.9-3.8,1.8-5.8,2.5c-1,0.4-2,0.7-3.1,1
		c-0.5,0.1-1.1,0.3-1.6,0.4l-0.8,0.2l-0.8,0.2c-8.6,1.7-18,1-26.6-2.7c-1-0.4-2-0.9-2.9-1.4c-0.3,0.2-0.5,0.4-0.8,0.6
		c-0.1,0.1-0.2,0.1-0.3,0.2c1.2,0.6,2.4,1.2,3.6,1.7c2.2,0.9,4.4,1.7,6.7,2.3c0.6,0.2,1.1,0.3,1.7,0.4l0.9,0.2l0.9,0.2
		c0.6,0.1,1.1,0.2,1.7,0.3c0.6,0.1,1.2,0.2,1.7,0.3c4.6,0.6,9.3,0.6,13.8,0l0.8-0.1l0.8-0.1c0.6-0.1,1.1-0.2,1.7-0.3
		c1.1-0.3,2.2-0.5,3.3-0.8c2.2-0.6,4.3-1.4,6.3-2.2c1-0.5,2-0.9,3-1.4c0.5-0.3,1-0.5,1.5-0.8c0.5-0.3,0.9-0.5,1.4-0.8l0.3-0.2
		l0.2-0.1l0.1-0.1l0.1-0.1l0.7-0.5c0.4-0.3,0.9-0.6,1.3-0.9c0.4-0.3,0.9-0.6,1.3-1c0.4-0.3,0.9-0.6,1.3-1c3.3-2.7,6.1-5.7,8.4-9
		c2.3-3.2,4.1-6.7,5.5-10.1c1.4-3.4,2.2-6.9,2.7-10.2c0.4-2.9,0.6-5.8,0.5-8.5c-0.6,0.6-1.2,1.2-1.8,1.7
		C163.9,90.9,163.6,93,163.1,95.2z"/>
	<path class="st0" d="M87.6,61.6c1.1-1.4,2.3-2.6,3.5-3.8c0.6-0.6,1.2-1.2,1.9-1.7c0.3-0.3,0.6-0.5,1-0.8c0.3-0.2,0.7-0.5,1-0.7
		l0.5-0.4L96,54c0.4-0.2,0.7-0.5,1.1-0.7c0.4-0.2,0.7-0.4,1-0.6c0.3-0.2,0.7-0.4,1.1-0.6c2.5-1.3,5-2.4,7.5-3.1l0.4-1.4
		c-2.9,0.6-5.8,1.6-8.7,3c-0.4,0.2-0.8,0.4-1.1,0.6c-0.4,0.2-0.8,0.4-1.1,0.6c-0.4,0.2-0.7,0.4-1.1,0.6l-0.5,0.3
		c-0.2,0.1-0.4,0.2-0.6,0.4c-0.4,0.2-0.7,0.5-1.1,0.7c-0.4,0.2-0.7,0.5-1.1,0.8c-0.7,0.5-1.4,1.1-2.1,1.7c-1.4,1.2-2.7,2.4-3.9,3.8
		c-0.6,0.7-1.2,1.4-1.8,2.1c-0.3,0.4-0.6,0.7-0.8,1.1l-0.4,0.6l-0.4,0.6c-0.2,0.3-0.4,0.6-0.6,0.9c1.5-0.8,3.1-1.4,4.6-2.1
		C86.8,62.7,87.2,62.2,87.6,61.6z"/>
	<path class="st0" d="M96.9,117.4l-1.2-0.7c-1.5-1-3-2.1-4.4-3.2c-2.3-2-4.4-4.2-6.2-6.6c-1.1,0.6-2.3,0.9-3.6,1
		c0.9,1.4,2,2.8,3.1,4.1c1.3,1.5,2.7,2.9,4.2,4.3c1.5,1.3,3.2,2.5,4.9,3.6l1.3,0.8c0.4,0.3,0.9,0.5,1.4,0.7l0.7,0.4
		c0.2,0.1,0.4,0.2,0.7,0.3l0.3,0.1c-0.4-1.6-0.7-3.2-0.7-4.6C97.2,117.6,97.1,117.5,96.9,117.4z"/>
	<path class="st0" d="M152.6,101.5c-1.2,2.6-2.7,5.2-4.5,7.7c-1.9,2.5-4.1,4.7-6.6,6.8c-0.3,0.3-0.6,0.5-1,0.7
		c-0.3,0.2-0.7,0.5-1,0.7c-0.3,0.2-0.7,0.5-1,0.7l-0.5,0.3l-0.5,0.3c-0.4,0.2-0.7,0.4-1.1,0.7c-0.4,0.2-0.7,0.4-1.1,0.6
		c-0.7,0.4-1.5,0.7-2.3,1.1c-1.6,0.7-3.2,1.3-4.8,1.7c-0.8,0.3-1.7,0.4-2.5,0.6c-0.4,0.1-0.9,0.2-1.3,0.2l-0.6,0.1l-0.7,0.1
		c-3.5,0.5-7,0.5-10.6,0c-0.2,0-0.4-0.1-0.6-0.1c0,0-0.1,0.1-0.1,0.1c0,0.4,0,0.8-0.1,1.2l-0.1,0.3l-0.2,0.6l-0.1,0.2
		c-0.1,0.2-0.3,0.4-0.4,0.6l1.3,0.1c3.9,0.4,7.7,0.2,11.4-0.5l0.7-0.1l0.7-0.2c0.5-0.1,0.9-0.2,1.4-0.3c0.9-0.3,1.8-0.5,2.6-0.8
		c1.7-0.6,3.4-1.3,5-2.1c0.8-0.4,1.6-0.8,2.4-1.3c0.4-0.2,0.8-0.5,1.1-0.7c0.4-0.2,0.7-0.5,1.1-0.7l0.6-0.4l0.5-0.4
		c0.3-0.3,0.7-0.5,1-0.8c0.3-0.3,0.7-0.5,1-0.8c0.3-0.3,0.7-0.5,1-0.8c5.1-4.5,8.7-10,10.9-15.4c0.8-2.1,1.5-4.3,1.9-6.4
		c-0.3,0.2-0.5,0.4-0.7,0.6C154,97.9,153.4,99.7,152.6,101.5z"/>
	<path class="st0" d="M157.9,77.5c0.9,3.3,1.2,5.9,1.3,7.7c0,0.1,0,0.2,0,0.4c0,0,0,0,0,0c0-0.1,0-0.2,0-0.4
		C159.1,83.4,158.8,80.7,157.9,77.5c0-0.4-0.2-0.8-0.3-1.3c-0.1-0.4-0.3-0.9-0.4-1.3c-0.1-0.4-0.3-0.9-0.5-1.3
		c-0.2-0.5-0.3-0.9-0.6-1.4c-0.6-1.4-1.3-2.8-2.1-4.3c0,0.1-0.1,0.2-0.1,0.3C155.9,71.5,157.1,74.7,157.9,77.5z"/>
	<path class="st0" d="M159.3,87.3c0,0.5,0,0.7,0,0.7S159.3,87.7,159.3,87.3c0-0.4,0-1-0.1-1.7c0,0,0,0,0,0
		C159.3,86.3,159.3,86.9,159.3,87.3z"/>
</g>
<g>
	<path class="st4" d="M30.7,66.3c0.3,17.2,9,38.7,15.5,52.3c0.8,2.4,1.7,6.6,1.8,12.9c0.2,10.9,9.2,20.1,15.1,13.1
		c6.2-7.4-0.5-14.7-6-20.3c-4.6-4.7-6.9-5-9.3-9.7C40.7,96.6,38,77.3,37.7,61.8C37.6,54,30.5,47.2,30.7,66.3z M34.4,57.5
		c0.7,0.7-0.3,1.8-1,1.1C32.7,57.9,33.7,56.8,34.4,57.5z"/>
	<path class="st4" d="M201.7,38.6c-0.6,1.1-3.4,10.5-5.1,11c-1.8,0.4,2.5-7,3.5-9.8c1-2.8-0.2-3.2-0.8-2.3c-2.5,6-4.9,10.3-6,10.6
		c-1.1,0.3,2.9-10,3.5-11.1c0.6-1.1-0.3-1.7-0.9-0.6c-0.7,1.1-4.2,9.6-5.7,9.9c-1.6,0.4,1.6-6.4,3-8.8c1.4-2.3,0.6-2.8-0.1-2.7
		c-0.7,0.2-7.7,13.3-6.1,16.6c1.4,3.1,1.4,9.6,1.4,11.4c-3.7,15.1-8,38.4-4.6,55.3c3.8,18.9,9.7,10.4,8.2,2.7
		c-3.2-15.7-4.6-36-0.7-56.2c1-3.2,4.1-10.6,6.5-12.6c2.4-2,4.7-10.8,5.2-12.3C203.3,38.3,202.3,37.5,201.7,38.6z M189.5,125.9
		c-0.5,0.9-1.8,0-1.3-0.9C188.8,124.2,190,125,189.5,125.9z"/>
	<path class="st4" d="M79.9,121.7c-0.4-0.5-0.7-1-1.1-1.5c-0.4-0.5-0.7-1-1.1-1.5l-1-1.5c-5.3-8.3-8-18.1-8-27.7
		c0-2.4,0.1-4.8,0.4-7.1c0.3-2.3,0.8-4.7,1.4-6.9c1.3-4.5,3.1-8.8,5.4-12.6l0.4-0.7l0.5-0.7c0.3-0.5,0.6-0.9,0.9-1.4
		c0.7-0.9,1.3-1.8,2-2.6c1.3-1.7,2.9-3.3,4.4-4.8c0.8-0.7,1.6-1.5,2.4-2.1c0.4-0.3,0.8-0.7,1.2-1c0.4-0.3,0.8-0.6,1.3-0.9l0.6-0.4
		l0.7-0.5c0.4-0.3,0.9-0.6,1.3-0.9c0.4-0.3,0.9-0.5,1.3-0.8c0.4-0.3,0.8-0.5,1.3-0.8c3.5-2,7.2-3.5,10.9-4.5c3.7-1,7.3-1.6,10.9-1.8
		c7.1-0.3,13.7,0.9,19.2,2.9c0.7,0.3,1.4,0.5,2,0.8c0.7,0.3,1.3,0.6,1.9,0.9c0.6,0.3,1.2,0.6,1.8,0.9c0.6,0.3,1.2,0.7,1.7,1
		c2.2,1.3,4.2,2.7,5.8,4.1c3.3,2.7,5.6,5.3,7,7.2c0.7,0.9,1.2,1.6,1.6,2.1c0.3,0.5,0.5,0.7,0.5,0.7c0,0,0,0,0,0l0,0l0,0
		c0,0,0.2,0.3,0.5,0.8c0.3,0.5,0.8,1.3,1.4,2.3c0.2,0.4,0.5,0.8,0.7,1.3c0.2,0.1,0.4,0.1,0.6,0.2c-0.3-0.6-0.7-1.2-1-1.7
		c-0.6-1-1.1-1.8-1.4-2.3c-0.3-0.5-0.5-0.8-0.5-0.8l0,0c0,0-0.2-0.3-0.5-0.8c-0.4-0.5-0.8-1.3-1.6-2.2c-1.4-1.9-3.6-4.5-6.9-7.5
		c-0.4-0.4-0.8-0.7-1.3-1.1c-0.4-0.4-0.9-0.7-1.4-1.1c-0.5-0.4-1-0.8-1.5-1.1c-0.5-0.4-1-0.8-1.6-1.1c-2.2-1.5-4.6-2.9-7.4-4.2
		c-2.8-1.3-5.8-2.4-9.2-3.2c-3.3-0.8-6.9-1.4-10.7-1.4c-3.8,0-7.8,0.3-11.8,1.3c-0.5,0.1-1,0.3-1.5,0.4c-0.5,0.1-1,0.3-1.5,0.4
		c-0.5,0.2-1,0.3-1.5,0.5l-0.8,0.3l-0.7,0.3c-0.5,0.2-1,0.4-1.5,0.6c-0.5,0.2-1,0.4-1.5,0.7c-1,0.4-2,0.9-2.9,1.5
		c-0.5,0.2-1,0.5-1.5,0.8c-0.5,0.3-1,0.6-1.5,0.9c-0.4,0.3-0.9,0.6-1.3,0.9l-0.7,0.5l-0.1,0.1l-0.1,0.1l-0.2,0.1l-0.3,0.3
		c-0.5,0.3-0.9,0.7-1.4,1c-0.5,0.3-0.9,0.7-1.3,1.1c-0.9,0.7-1.7,1.5-2.6,2.3c-1.7,1.6-3.3,3.4-4.7,5.3c-0.8,0.9-1.4,1.9-2.1,2.9
		c-0.3,0.5-0.7,1-1,1.5L73,60l-0.5,0.8c-4.9,8.4-7.6,18.6-7.2,28.9c0.1,2.6,0.4,5.1,0.8,7.7c0.5,2.5,1.1,5,1.9,7.5
		c0.8,2.4,1.9,4.8,3,7.1l0.9,1.7c0.3,0.6,0.7,1.1,1,1.7c0.7,1.1,1.4,2.1,2.1,3.2l1.2,1.6c0.4,0.5,0.8,1,1.2,1.5
		c0.4,0.5,0.8,1,1.2,1.5l1.3,1.4c0.2,0.2,0.5,0.5,0.7,0.7c-0.1-1-0.2-1.9-0.3-3L79.9,121.7z"/>
	<polygon class="st4" points="169.9,89.1 169.9,89.1 169.9,89.1 	"/>
	<path class="st4" d="M164.8,96.9c-0.6,3.3-1.6,6.7-3,10.1c-1.4,3.4-3.2,6.7-5.4,9.9c-2.2,3.2-4.8,6.3-7.8,9.1
		c-0.4,0.4-0.8,0.7-1.2,1c-0.4,0.3-0.8,0.7-1.2,1c-0.4,0.3-0.8,0.6-1.2,1l-0.6,0.5c-0.1,0,0,0,0,0l-0.1,0.1l-0.2,0.1l-0.3,0.2
		c-0.4,0.3-0.9,0.6-1.3,0.9c-0.4,0.3-0.9,0.6-1.3,0.9c-0.9,0.6-1.8,1.1-2.8,1.6c-1.9,1-3.9,2-5.9,2.7c-1,0.4-2.1,0.7-3.1,1.1
		c-0.5,0.2-1.1,0.3-1.6,0.5l-0.8,0.2L126,138c-8.8,2-18.5,1.4-27.4-2.3c-1-0.4-2-0.9-3-1.4c-0.3,0.2-0.5,0.4-0.8,0.6
		c-0.1,0.1-0.2,0.1-0.3,0.2c1.2,0.6,2.4,1.2,3.7,1.7c2.3,0.9,4.6,1.7,6.9,2.3c0.6,0.2,1.2,0.3,1.8,0.4l0.9,0.2l0.9,0.2
		c0.6,0.1,1.2,0.2,1.8,0.3c0.6,0.1,1.2,0.2,1.8,0.2c4.8,0.5,9.5,0.4,14.2-0.3l0.9-0.1l0.9-0.2c0.6-0.1,1.1-0.2,1.7-0.4
		c1.1-0.3,2.3-0.6,3.4-0.9c2.2-0.7,4.4-1.5,6.4-2.5c1-0.5,2-1,3-1.6c0.5-0.3,1-0.6,1.5-0.9c0.5-0.3,0.9-0.6,1.4-0.9l0.3-0.2l0.2-0.1
		l0.1-0.1l0.1-0.1l0.7-0.5c0.5-0.3,0.9-0.7,1.3-1c0.4-0.3,0.9-0.7,1.3-1c0.4-0.3,0.9-0.7,1.3-1.1c3.3-2.9,6.2-6.2,8.4-9.7
		c2.3-3.5,4.1-7.2,5.4-10.8c1.3-3.7,2.1-7.3,2.5-10.8c0.4-3.1,0.5-6.1,0.3-9c-0.6,0.6-1.2,1.3-1.8,1.9
		C165.5,92.3,165.2,94.6,164.8,96.9z"/>
	<path class="st4" d="M86.4,63.1c1.1-1.5,2.3-2.8,3.5-4.1c0.6-0.6,1.3-1.2,1.9-1.8c0.3-0.3,0.7-0.6,1-0.9c0.3-0.3,0.7-0.5,1-0.8
		l0.5-0.4l0.5-0.4c0.4-0.3,0.7-0.5,1.1-0.8c0.4-0.2,0.7-0.5,1.1-0.7c0.4-0.2,0.7-0.5,1.1-0.7c2.5-1.4,5.1-2.6,7.7-3.5l0.4-1.5
		c-3,0.7-6,1.8-8.9,3.4c-0.4,0.2-0.8,0.4-1.2,0.6c-0.4,0.2-0.8,0.4-1.2,0.7c-0.4,0.2-0.7,0.5-1.1,0.7l-0.6,0.4
		c-0.2,0.2-0.4,0.3-0.6,0.4c-0.4,0.3-0.7,0.5-1.1,0.8c-0.4,0.3-0.7,0.6-1.1,0.8c-0.7,0.6-1.4,1.2-2.1,1.8c-1.4,1.3-2.7,2.6-3.9,4.1
		c-0.6,0.7-1.2,1.5-1.8,2.3c-0.3,0.4-0.5,0.8-0.8,1.2l-0.4,0.6L81,66.1c-0.2,0.3-0.4,0.6-0.6,1c1.5-0.8,3.1-1.6,4.7-2.3
		C85.6,64.2,86,63.6,86.4,63.1z"/>
	<path class="st4" d="M97.3,121.9l-1.2-0.7c-1.6-1-3.2-2.1-4.6-3.3c-2.4-2-4.6-4.3-6.5-6.9c-1.1,0.6-2.4,1-3.7,1.2
		c1,1.5,2.1,2.9,3.3,4.3c1.4,1.6,2.9,3.1,4.5,4.4c1.6,1.4,3.3,2.6,5.1,3.7l1.4,0.8c0.4,0.3,0.9,0.5,1.4,0.8l0.7,0.4
		c0.2,0.1,0.5,0.2,0.7,0.3l0.3,0.1c-0.5-1.7-0.8-3.3-0.8-4.8C97.6,122.1,97.5,122,97.3,121.9z"/>
	<path class="st4" d="M154.1,103.8c-1.1,2.8-2.6,5.6-4.5,8.2c-1.9,2.6-4.1,5.1-6.7,7.3c-0.3,0.3-0.6,0.5-1,0.8
		c-0.3,0.3-0.7,0.5-1,0.8c-0.3,0.2-0.7,0.5-1,0.7l-0.5,0.4l-0.5,0.3c-0.4,0.2-0.7,0.5-1.1,0.7c-0.4,0.2-0.7,0.4-1.1,0.6
		c-0.7,0.4-1.5,0.8-2.3,1.2c-1.6,0.7-3.2,1.4-4.9,1.9c-0.8,0.3-1.7,0.5-2.6,0.7c-0.4,0.1-0.9,0.2-1.3,0.3l-0.7,0.1l-0.7,0.1
		c-3.5,0.6-7.2,0.7-10.9,0.3c-0.2,0-0.4-0.1-0.6-0.1c0,0-0.1,0.1-0.1,0.1c0,0.4,0,0.8-0.1,1.3l-0.1,0.3l-0.2,0.6l-0.1,0.3
		c-0.1,0.2-0.3,0.5-0.4,0.7l1.3,0.1c4,0.3,7.9,0,11.7-0.8l0.7-0.1l0.7-0.2c0.5-0.1,0.9-0.2,1.4-0.4c0.9-0.3,1.8-0.6,2.7-0.9
		c1.8-0.6,3.5-1.5,5.1-2.3c0.8-0.5,1.6-0.9,2.4-1.4c0.4-0.3,0.8-0.5,1.2-0.8c0.4-0.3,0.7-0.5,1.1-0.8l0.6-0.4l0.5-0.4
		c0.4-0.3,0.7-0.6,1.1-0.8c0.3-0.3,0.7-0.6,1-0.9c0.3-0.3,0.7-0.6,1-0.9c5.2-4.9,8.7-10.8,10.8-16.6c0.8-2.3,1.4-4.6,1.8-6.8
		c-0.3,0.2-0.5,0.4-0.7,0.7C155.5,99.9,154.9,101.9,154.1,103.8z"/>
	<path class="st4" d="M159,78.2c1,3.4,1.4,6.2,1.6,8.1c0,0.1,0,0.3,0,0.4c0,0,0,0,0,0c0-0.1,0-0.2,0-0.4
		C160.4,84.4,160,81.6,159,78.2c-0.1-0.4-0.2-0.9-0.3-1.3c-0.2-0.4-0.3-0.9-0.5-1.4c-0.2-0.5-0.3-0.9-0.5-1.4
		c-0.2-0.5-0.4-1-0.6-1.5c-0.6-1.5-1.4-3-2.3-4.5c0,0.1-0.1,0.2-0.1,0.4C156.8,71.9,158.1,75.3,159,78.2z"/>
	<path class="st4" d="M160.7,88.5c0,0.5,0,0.8,0,0.8S160.7,89,160.7,88.5c0-0.4,0-1-0.1-1.8c0,0,0,0,0,0
		C160.7,87.5,160.7,88.1,160.7,88.5z"/>
</g>
</svg>
