<?xml version="1.0" encoding="utf-8"?>
<!-- Generator: Adobe Illustrator 23.1.1, SVG Export Plug-In . SVG Version: 6.00 Build 0)  -->
<svg version="1.1" id="Layer_1" xmlns="http://www.w3.org/2000/svg" xmlns:xlink="http://www.w3.org/1999/xlink" x="0px" y="0px"
	 viewBox="0 0 512 512" style="enable-background:new 0 0 512 512;" xml:space="preserve">
<style type="text/css">
	.st0{fill:#2769AA;}
	.st1{fill:#326D9E;}
	.st2{fill:#4A92BA;}
	.st3{fill:#FFFFFF;}
	.st4{fill:#354470;}
</style>
<circle class="st0" cx="256" cy="256" r="256"/>
<circle class="st1" cx="256" cy="256.5" r="256"/>
<circle class="st2" cx="256" cy="256" r="225.5"/>
<path class="st3" d="M327.3,78.9v103.6c0,23.7-16,44.5-39,50.5l10.4,185.7c1,13-8.8,24.3-21.8,25.3c-13,1-24.3-8.8-25.3-21.8l0,0
	c-0.1-1.2-0.1-2.4,0-3.6L262,232.9c-23-6-39-26.7-39-50.5V78.9c0.2-5.9,5.1-10.5,11-10.3c5.6,0.2,10.1,4.7,10.3,10.3v74
	c0,5.6,4.5,10.1,10.1,10.1c5.6,0,10.1-4.5,10.1-10.1V78.9c-0.2-5.9,4.4-10.8,10.3-11c5.9-0.2,10.8,4.4,11,10.3l0,0
	c0,0.2,0,0.4,0,0.7v74c0,5.6,4.5,10.1,10,10.2c5.4,0,9.9-4.2,10.2-9.7V78.9c0.2-5.9,5.1-10.5,11-10.3
	C322.6,68.7,327.1,73.2,327.3,78.9L327.3,78.9z"/>
<path class="st3" d="M346.5,64.9c16.1,17.3,29.8,36.7,40.9,57.7c24.3,46.2,30.4,91.3,30.6,124.9c0,0.5,0,1-0.1,1.4c0,0,0,0,0,0
	c-0.7,3.1-3.7,5-6.8,4.3c-3.4-0.5-6.9-0.6-10.4-0.3c-17.9,1.7-31,15.2-29.1,29.8c0.1,0.1,0.1,0.3,0.1,0.5h-28.3V65.7
	C343.3,64.4,345.5,63.7,346.5,64.9z"/>
<path class="st4" d="M382.6,283.2c1.9,0,3.5,1.6,3.5,3.5v136.7c0,0.5,0,1,0,1.5c-0.8,13.4-12.3,23.6-25.7,22.7
	c-12.9-0.8-22.7-12.2-22.7-25.2V286.7c0-1.9,1.6-3.5,3.5-3.5L382.6,283.2z"/>
</svg>
