<svg enable-background="new 0 0 225.3 177.4" viewBox="0 0 225.3 177.4" xmlns="http://www.w3.org/2000/svg"><path d="m208.3 25.5-166.8-25.3c-10.4-1.6-19.8 6.3-20.9 17.6l-1.6 16.1c-.8-.1-1.7.2-2.3.9-16.6 19.2-17.9 40.7-16.1 55.4 1.9 15.8 7.7 26.9 8 27.4.5.9 1.3 1.4 2.1 1.6l-.9 9.4c-1.1 11.3 6.5 21.7 16.9 23.3l166.8 25.3c10.4 1.6 19.8-6.3 20.9-17.6l10.8-110.8c1.1-11.3-6.4-21.7-16.9-23.3zm-196.8 85c-4.4-11-13.6-41.7 6.7-68.4z" fill="#293d60"/><path d="m208.6 30.4-165.8-20.2c-10.4-1.3-19.8 6.1-21.1 16.4l-1.9 14.8c-.8-.1-1.7.2-2.3.8-16.9 17.7-18.6 37.3-17 50.6 1.7 14.4 7.2 24.4 7.5 24.9.4.8 1.2 1.3 2.1 1.4l-1.1 8.6c-1.3 10.3 6.1 19.7 16.4 21l165.9 20.2c10.4 1.3 19.8-6.1 21.1-16.4l12.6-101.2c1.3-10.3-6-19.7-16.4-20.9zm-197.6 80.8c-4.2-10-12.8-37.8 7.8-62.4z" fill="#283e8e"/><path d="m112.1 24.9c.5-.4 1-.7 1.5-1.1 0 0 .1 0 .1-.1-.1 0-.3 0-.4 0-2.7-.1-5.5.1-8.3.4l1.1 1.3c2-.2 4-.4 6-.5z" fill="#221f20" stroke="#fff" stroke-miterlimit="10"/><path d="m205.5 30-159.9-19.8c-10-1.3-19.1 5.8-20.3 15.8l-1.8 14.3c-.8-.1-1.7.2-2.3.8-16.2 17.3-17.8 36.3-16.3 49.2 1.6 13.9 7 23.7 7.2 24.1.4.8 1.2 1.2 2 1.3l-1 8.3c-1.2 10 5.9 19.1 15.9 20.3l159.9 19.8c10 1.2 19.1-5.9 20.3-15.9l12.1-98.1c1.3-9.8-5.8-18.9-15.8-20.1zm-190.4 78.2c-4-9.7-12.4-36.7 7.5-60.5z" fill="#3b5998"/><g fill="#293d60"><path d="m33.4 63.6c-.1 16.2 7.9 36.7 13.9 49.7.7 2.3 1.5 6.3 1.5 12.3-.1 10.3 8.5 19.2 14.4 12.7 6.2-6.8-.2-13.9-5.4-19.3-4.4-4.6-6.6-4.9-8.8-9.3-6.6-17.2-8.8-35.5-8.7-50.1.1-7.5-6.8-14.1-6.9 4zm3.8-8.3c.6.7-.4 1.7-1 1.1-.7-.7.3-1.8 1-1.1z"/><path d="m200.3 41c-.6 1-3.5 9.9-5.2 10.2-1.7.4 2.6-6.5 3.6-9.2 1-2.6-.2-3-.7-2.1-2.5 5.6-5 9.6-6.1 9.9-1.1.2 3-9.4 3.6-10.4s-.2-1.6-.9-.6-4.2 8.9-5.8 9.3c-1.6.3 1.7-6 3.1-8.2s.6-2.7-.1-2.5c-.7.1-7.8 12.4-6.3 15.6 1.3 2.9 1.2 9.1 1.1 10.8-3.9 14.2-8.6 36.1-5.6 52.1 3.3 17.9 9.2 10 7.9 2.7-2.8-14.9-3.7-34.1.5-53 1.1-3 4.2-9.9 6.6-11.8 2.4-1.8 4.8-10.1 5.3-11.5.5-1.5-.4-2.3-1-1.3zm-13.8 82.1c-.5.8-1.8-.1-1.2-.8.5-.8 1.8 0 1.2.8z"/><path d="m80.1 116.9c-.4-.4-.7-.9-1.1-1.4-.3-.5-.7-.9-1-1.4l-.9-1.4c-5-8-7.4-17.2-7.2-26.3.1-2.3.2-4.5.6-6.7s.9-4.4 1.5-6.5c1.3-4.2 3.2-8.2 5.5-11.8l.4-.7.5-.7c.3-.4.6-.9.9-1.3.7-.8 1.3-1.7 2-2.5 1.3-1.6 2.9-3.1 4.4-4.4.8-.7 1.5-1.4 2.4-2 .4-.3.8-.6 1.2-.9s.8-.6 1.2-.9l.6-.4.7-.4c.4-.3.9-.6 1.3-.8s.8-.5 1.3-.7c.4-.2.8-.5 1.3-.7 3.5-1.8 7.1-3.2 10.7-4 3.6-.9 7.2-1.3 10.6-1.4 6.9-.2 13.3 1.1 18.6 3.2.7.3 1.3.5 2 .8.6.3 1.3.6 1.9.8.6.3 1.2.6 1.7.9.6.3 1.1.6 1.6 1 2.1 1.3 4 2.6 5.6 4 3.2 2.6 5.3 5.1 6.7 6.9.7.9 1.2 1.6 1.5 2 .3.5.5.7.5.7s.2.3.5.7c.3.5.8 1.2 1.3 2.2.2.4.4.8.7 1.2.2.1.4.1.6.2-.3-.6-.6-1.1-.9-1.6-.5-1-1-1.7-1.3-2.2s-.5-.7-.5-.7-.2-.2-.5-.7-.8-1.2-1.5-2.1c-1.3-1.8-3.4-4.4-6.5-7.2-.4-.4-.8-.7-1.2-1.1s-.9-.7-1.3-1.1-.9-.7-1.4-1.1-1-.8-1.5-1.1c-2.1-1.5-4.5-2.9-7.1-4.1-2.7-1.3-5.6-2.4-8.9-3.2-3.2-.8-6.7-1.4-10.4-1.5s-7.6.2-11.5 1c-.5.1-1 .2-1.5.3s-1 .2-1.5.4c-.5.1-1 .3-1.5.4l-.7.2-.9.2c-.5.2-1 .4-1.5.5-.5.2-1 .4-1.5.6-1 .4-1.9.9-2.9 1.3-.5.2-1 .5-1.4.8-.5.3-1 .5-1.4.8s-.9.5-1.3.8l-.7.4-.1.1-.1.1-.2.1-.3.2c-.4.3-.9.6-1.4.9-.4.3-.9.7-1.3 1-.9.7-1.7 1.4-2.6 2.1-1.7 1.5-3.3 3.1-4.7 4.9-.8.9-1.4 1.8-2.1 2.7-.3.5-.7.9-1 1.4l-.5.7-.5.7c-5 7.8-7.8 17.4-7.7 27.1 0 2.4.2 4.9.6 7.3s1 4.8 1.7 7.1 1.7 4.6 2.8 6.8l.9 1.6c.3.5.6 1.1.9 1.6.6 1.1 1.3 2 1.9 3l1.1 1.5c.4.5.7 1 1.1 1.4.4.5.8 1 1.2 1.4l1.2 1.3c.2.2.4.5.7.7-.1-.9-.2-1.8-.2-2.8z"/><path d="m163.1 95.2c-.7 3.1-1.7 6.3-3.2 9.4-1.4 3.2-3.2 6.3-5.4 9.3s-4.8 5.8-7.8 8.4c-.4.3-.8.6-1.1.9-.4.3-.8.6-1.2.9s-.8.6-1.2.9l-.6.4c-.1 0 0 0 0 0l-.1.1-.2.1-.3.2c-.4.3-.9.6-1.3.9s-.9.5-1.3.8c-.9.5-1.8 1-2.7 1.5-1.9.9-3.8 1.8-5.8 2.5-1 .4-2 .7-3.1 1-.5.1-1.1.3-1.6.4l-.8.2-.8.2c-8.6 1.7-18 1-26.6-2.7-1-.4-2-.9-2.9-1.4-.3.2-.5.4-.8.6-.1.1-.2.1-.3.2 1.2.6 2.4 1.2 3.6 1.7 2.2.9 4.4 1.7 6.7 2.3.6.2 1.1.3 1.7.4l.9.2.9.2c.6.1 1.1.2 1.7.3s1.2.2 1.7.3c4.6.6 9.3.6 13.8 0l.8-.1.8-.1c.6-.1 1.1-.2 1.7-.3 1.1-.3 2.2-.5 3.3-.8 2.2-.6 4.3-1.4 6.3-2.2 1-.5 2-.9 3-1.4.5-.3 1-.5 1.5-.8s.9-.5 1.4-.8l.3-.2.2-.1.1-.1.1-.1.7-.5c.4-.3.9-.6 1.3-.9s.9-.6 1.3-1c.4-.3.9-.6 1.3-1 3.3-2.7 6.1-5.7 8.4-9 2.3-3.2 4.1-6.7 5.5-10.1s2.2-6.9 2.7-10.2c.4-2.9.6-5.8.5-8.5-.6.6-1.2 1.2-1.8 1.7-.5 2-.8 4.1-1.3 6.3z"/><path d="m87.6 61.6c1.1-1.4 2.3-2.6 3.5-3.8.6-.6 1.2-1.2 1.9-1.7.3-.3.6-.5 1-.8.3-.2.7-.5 1-.7l.5-.4.5-.2c.4-.2.7-.5 1.1-.7s.7-.4 1-.6.7-.4 1.1-.6c2.5-1.3 5-2.4 7.5-3.1l.4-1.4c-2.9.6-5.8 1.6-8.7 3-.4.2-.8.4-1.1.6-.4.2-.8.4-1.1.6-.4.2-.7.4-1.1.6l-.5.3c-.2.1-.4.2-.6.4-.4.2-.7.5-1.1.7s-.7.5-1.1.8c-.7.5-1.4 1.1-2.1 1.7-1.4 1.2-2.7 2.4-3.9 3.8-.6.7-1.2 1.4-1.8 2.1-.3.4-.6.7-.8 1.1l-.4.6-.4.6c-.2.3-.4.6-.6.9 1.5-.8 3.1-1.4 4.6-2.1.4-.6.8-1.1 1.2-1.7z"/><path d="m96.9 117.4-1.2-.7c-1.5-1-3-2.1-4.4-3.2-2.3-2-4.4-4.2-6.2-6.6-1.1.6-2.3.9-3.6 1 .9 1.4 2 2.8 3.1 4.1 1.3 1.5 2.7 2.9 4.2 4.3 1.5 1.3 3.2 2.5 4.9 3.6l1.3.8c.4.3.9.5 1.4.7l.7.4c.2.1.4.2.7.3l.3.1c-.4-1.6-.7-3.2-.7-4.6-.2 0-.3-.1-.5-.2z"/><path d="m152.6 101.5c-1.2 2.6-2.7 5.2-4.5 7.7-1.9 2.5-4.1 4.7-6.6 6.8-.3.3-.6.5-1 .7-.3.2-.7.5-1 .7s-.7.5-1 .7l-.5.3-.5.3c-.4.2-.7.4-1.1.7-.4.2-.7.4-1.1.6-.7.4-1.5.7-2.3 1.1-1.6.7-3.2 1.3-4.8 1.7-.8.3-1.7.4-2.5.6-.4.1-.9.2-1.3.2l-.6.1-.7.1c-3.5.5-7 .5-10.6 0-.2 0-.4-.1-.6-.1 0 0-.1.1-.1.1 0 .4 0 .8-.1 1.2l-.1.3-.2.6-.1.2c-.1.2-.3.4-.4.6l1.3.1c3.9.4 7.7.2 11.4-.5l.7-.1.7-.2c.5-.1.9-.2 1.4-.3.9-.3 1.8-.5 2.6-.8 1.7-.6 3.4-1.3 5-2.1.8-.4 1.6-.8 2.4-1.3.4-.2.8-.5 1.1-.7.4-.2.7-.5 1.1-.7l.6-.4.5-.4c.3-.3.7-.5 1-.8s.7-.5 1-.8.7-.5 1-.8c5.1-4.5 8.7-10 10.9-15.4.8-2.1 1.5-4.3 1.9-6.4-.3.2-.5.4-.7.6-.8 2.2-1.4 4-2.2 5.8z"/><path d="m157.9 77.5c.9 3.3 1.2 5.9 1.3 7.7v.4c0-.1 0-.2 0-.4-.1-1.8-.4-4.5-1.3-7.7 0-.4-.2-.8-.3-1.3-.1-.4-.3-.9-.4-1.3s-.3-.9-.5-1.3c-.2-.5-.3-.9-.6-1.4-.6-1.4-1.3-2.8-2.1-4.3 0 .1-.1.2-.1.3 2 3.3 3.2 6.5 4 9.3z"/><path d="m159.3 87.3v.7s0-.3 0-.7 0-1-.1-1.7c.1.7.1 1.3.1 1.7z"/></g><path d="m30.7 66.3c.3 17.2 9 38.7 15.5 52.3.8 2.4 1.7 6.6 1.8 12.9.2 10.9 9.2 20.1 15.1 13.1 6.2-7.4-.5-14.7-6-20.3-4.6-4.7-6.9-5-9.3-9.7-7.1-18-9.8-37.3-10.1-52.8-.1-7.8-7.2-14.6-7 4.5zm3.7-8.8c.7.7-.3 1.8-1 1.1s.3-1.8 1-1.1z" fill="#9bc0dd"/><path d="m201.7 38.6c-.6 1.1-3.4 10.5-5.1 11-1.8.4 2.5-7 3.5-9.8s-.2-3.2-.8-2.3c-2.5 6-4.9 10.3-6 10.6s2.9-10 3.5-11.1-.3-1.7-.9-.6c-.7 1.1-4.2 9.6-5.7 9.9-1.6.4 1.6-6.4 3-8.8 1.4-2.3.6-2.8-.1-2.7-.7.2-7.7 13.3-6.1 16.6 1.4 3.1 1.4 9.6 1.4 11.4-3.7 15.1-8 38.4-4.6 55.3 3.8 18.9 9.7 10.4 8.2 2.7-3.2-15.7-4.6-36-.7-56.2 1-3.2 4.1-10.6 6.5-12.6s4.7-10.8 5.2-12.3c.3-1.4-.7-2.2-1.3-1.1zm-12.2 87.3c-.5.9-1.8 0-1.3-.9.6-.8 1.8 0 1.3.9z" fill="#9bc0dd"/><path d="m79.9 121.7c-.4-.5-.7-1-1.1-1.5s-.7-1-1.1-1.5l-1-1.5c-5.3-8.3-8-18.1-8-27.7 0-2.4.1-4.8.4-7.1s.8-4.7 1.4-6.9c1.3-4.5 3.1-8.8 5.4-12.6l.4-.7.5-.7c.3-.5.6-.9.9-1.4.7-.9 1.3-1.8 2-2.6 1.3-1.7 2.9-3.3 4.4-4.8.8-.7 1.6-1.5 2.4-2.1.4-.3.8-.7 1.2-1s.8-.6 1.3-.9l.6-.4.7-.5c.4-.3.9-.6 1.3-.9s.9-.5 1.3-.8.8-.5 1.3-.8c3.5-2 7.2-3.5 10.9-4.5s7.3-1.6 10.9-1.8c7.1-.3 13.7.9 19.2 2.9.7.3 1.4.5 2 .8.7.3 1.3.6 1.9.9s1.2.6 1.8.9 1.2.7 1.7 1c2.2 1.3 4.2 2.7 5.8 4.1 3.3 2.7 5.6 5.3 7 7.2.7.9 1.2 1.6 1.6 2.1.3.5.5.7.5.7s.2.3.5.8.8 1.3 1.4 2.3c.2.4.5.8.7 1.3.2.1.4.1.6.2-.3-.6-.7-1.2-1-1.7-.6-1-1.1-1.8-1.4-2.3s-.5-.8-.5-.8-.2-.3-.5-.8c-.4-.5-.8-1.3-1.6-2.2-1.4-1.9-3.6-4.5-6.9-7.5-.4-.4-.8-.7-1.3-1.1-.4-.4-.9-.7-1.4-1.1s-1-.8-1.5-1.1c-.5-.4-1-.8-1.6-1.1-2.2-1.5-4.6-2.9-7.4-4.2s-5.8-2.4-9.2-3.2c-3.3-.8-6.9-1.4-10.7-1.4s-7.8.3-11.8 1.3c-.5.1-1 .3-1.5.4s-1 .3-1.5.4c-.5.2-1 .3-1.5.5l-.8.3-.7.3c-.5.2-1 .4-1.5.6s-1 .4-1.5.7c-1 .4-2 .9-2.9 1.5-.5.2-1 .5-1.5.8s-1 .6-1.5.9c-.4.3-.9.6-1.3.9l-.7.5-.1.1-.1.1-.2.1-.3.3c-.5.3-.9.7-1.4 1s-.9.7-1.3 1.1c-.9.7-1.7 1.5-2.6 2.3-1.7 1.6-3.3 3.4-4.7 5.3-.8.9-1.4 1.9-2.1 2.9-.3.5-.7 1-1 1.5l-.2.5-.5.8c-4.9 8.4-7.6 18.6-7.2 28.9.1 2.6.4 5.1.8 7.7.5 2.5 1.1 5 1.9 7.5.8 2.4 1.9 4.8 3 7.1l.9 1.7c.3.6.7 1.1 1 1.7.7 1.1 1.4 2.1 2.1 3.2l1.2 1.6c.4.5.8 1 1.2 1.5s.8 1 1.2 1.5l1.3 1.4.7.7c-.1-1-.2-1.9-.3-3z" fill="#9bc0dd"/><path d="m164.8 96.9c-.6 3.3-1.6 6.7-3 10.1s-3.2 6.7-5.4 9.9-4.8 6.3-7.8 9.1c-.4.4-.8.7-1.2 1s-.8.7-1.2 1-.8.6-1.2 1l-.6.5c-.1 0 0 0 0 0l-.1.1-.2.1-.3.2c-.4.3-.9.6-1.3.9s-.9.6-1.3.9c-.9.6-1.8 1.1-2.8 1.6-1.9 1-3.9 2-5.9 2.7-1 .4-2.1.7-3.1 1.1-.5.2-1.1.3-1.6.5l-.8.2-1 .2c-8.8 2-18.5 1.4-27.4-2.3-1-.4-2-.9-3-1.4-.3.2-.5.4-.8.6-.1.1-.2.1-.3.2 1.2.6 2.4 1.2 3.7 1.7 2.3.9 4.6 1.7 6.9 2.3.6.2 1.2.3 1.8.4l.9.2.9.2c.6.1 1.2.2 1.8.3s1.2.2 1.8.2c4.8.5 9.5.4 14.2-.3l.9-.1.9-.2c.6-.1 1.1-.2 1.7-.4 1.1-.3 2.3-.6 3.4-.9 2.2-.7 4.4-1.5 6.4-2.5 1-.5 2-1 3-1.6.5-.3 1-.6 1.5-.9s.9-.6 1.4-.9l.3-.2.2-.1.1-.1.1-.1.7-.5c.5-.3.9-.7 1.3-1s.9-.7 1.3-1 .9-.7 1.3-1.1c3.3-2.9 6.2-6.2 8.4-9.7 2.3-3.5 4.1-7.2 5.4-10.8 1.3-3.7 2.1-7.3 2.5-10.8.4-3.1.5-6.1.3-9-.6.6-1.2 1.3-1.8 1.9-.3 2.2-.6 4.5-1 6.8z" fill="#9bc0dd"/><path d="m86.4 63.1c1.1-1.5 2.3-2.8 3.5-4.1.6-.6 1.3-1.2 1.9-1.8.3-.3.7-.6 1-.9s.7-.5 1-.8l.5-.4.5-.4c.4-.3.7-.5 1.1-.8.4-.2.7-.5 1.1-.7s.7-.5 1.1-.7c2.5-1.4 5.1-2.6 7.7-3.5l.4-1.5c-3 .7-6 1.8-8.9 3.4-.4.2-.8.4-1.2.6s-.8.4-1.2.7c-.4.2-.7.5-1.1.7l-.6.4c-.2.2-.4.3-.6.4-.4.3-.7.5-1.1.8s-.7.6-1.1.8c-.7.6-1.4 1.2-2.1 1.8-1.4 1.3-2.7 2.6-3.9 4.1-.6.7-1.2 1.5-1.8 2.3-.3.4-.5.8-.8 1.2l-.4.6-.4.8c-.2.3-.4.6-.6 1 1.5-.8 3.1-1.6 4.7-2.3.5-.6.9-1.2 1.3-1.7z" fill="#9bc0dd"/><path d="m97.3 121.9-1.2-.7c-1.6-1-3.2-2.1-4.6-3.3-2.4-2-4.6-4.3-6.5-6.9-1.1.6-2.4 1-3.7 1.2 1 1.5 2.1 2.9 3.3 4.3 1.4 1.6 2.9 3.1 4.5 4.4 1.6 1.4 3.3 2.6 5.1 3.7l1.4.8c.4.3.9.5 1.4.8l.7.4c.2.1.5.2.7.3l.3.1c-.5-1.7-.8-3.3-.8-4.8-.3-.1-.4-.2-.6-.3z" fill="#9bc0dd"/><path d="m154.1 103.8c-1.1 2.8-2.6 5.6-4.5 8.2s-4.1 5.1-6.7 7.3c-.3.3-.6.5-1 .8-.3.3-.7.5-1 .8-.3.2-.7.5-1 .7l-.5.4-.5.3c-.4.2-.7.5-1.1.7s-.7.4-1.1.6c-.7.4-1.5.8-2.3 1.2-1.6.7-3.2 1.4-4.9 1.9-.8.3-1.7.5-2.6.7-.4.1-.9.2-1.3.3l-.7.1-.7.1c-3.5.6-7.2.7-10.9.3-.2 0-.4-.1-.6-.1 0 0-.1.1-.1.1 0 .4 0 .8-.1 1.3l-.1.3-.2.6-.1.3c-.1.2-.3.5-.4.7l1.3.1c4 .3 7.9 0 11.7-.8l.7-.1.7-.2c.5-.1.9-.2 1.4-.4.9-.3 1.8-.6 2.7-.9 1.8-.6 3.5-1.5 5.1-2.3.8-.5 1.6-.9 2.4-1.4.4-.3.8-.5 1.2-.8s.7-.5 1.1-.8l.6-.4.5-.4c.4-.3.7-.6 1.1-.8.3-.3.7-.6 1-.9s.7-.6 1-.9c5.2-4.9 8.7-10.8 10.8-16.6.8-2.3 1.4-4.6 1.8-6.8-.3.2-.5.4-.7.7-.6 2.2-1.2 4.2-2 6.1z" fill="#9bc0dd"/><path d="m159 78.2c1 3.4 1.4 6.2 1.6 8.1v.4c0-.1 0-.2 0-.4-.2-1.9-.6-4.7-1.6-8.1-.1-.4-.2-.9-.3-1.3-.2-.4-.3-.9-.5-1.4s-.3-.9-.5-1.4-.4-1-.6-1.5c-.6-1.5-1.4-3-2.3-4.5 0 .1-.1.2-.1.4 2.1 3.4 3.4 6.8 4.3 9.7z" fill="#9bc0dd"/><path d="m160.7 88.5v.8s0-.3 0-.8c0-.4 0-1-.1-1.8.1.8.1 1.4.1 1.8z" fill="#9bc0dd"/></svg>