<svg enable-background="new 0 0 512 512" viewBox="0 0 512 512" xmlns="http://www.w3.org/2000/svg"><circle cx="256" cy="256" fill="#2769aa" r="256"/><circle cx="256" cy="256.5" fill="#326d9e" r="256"/><circle cx="256" cy="256" fill="#4a92ba" r="225.5"/><path d="m327.3 78.9v103.6c0 23.7-16 44.5-39 50.5l10.4 185.7c1 13-8.8 24.3-21.8 25.3s-24.3-8.8-25.3-21.8c-.1-1.2-.1-2.4 0-3.6l10.4-185.7c-23-6-39-26.7-39-50.5v-103.5c.2-5.9 5.1-10.5 11-10.3 5.6.2 10.1 4.7 10.3 10.3v74c0 5.6 4.5 10.1 10.1 10.1s10.1-4.5 10.1-10.1v-74c-.2-5.9 4.4-10.8 10.3-11s10.8 4.4 11 10.3v.7 74c0 5.6 4.5 10.1 10 10.2 5.4 0 9.9-4.2 10.2-9.7v-74.5c.2-5.9 5.1-10.5 11-10.3 5.6.1 10.1 4.6 10.3 10.3z" fill="#fff"/><path d="m346.5 64.9c16.1 17.3 29.8 36.7 40.9 57.7 24.3 46.2 30.4 91.3 30.6 124.9 0 .5 0 1-.1 1.4-.7 3.1-3.7 5-6.8 4.3-3.4-.5-6.9-.6-10.4-.3-17.9 1.7-31 15.2-29.1 29.8.1.1.1.3.1.5h-28.3v-217.5c-.1-1.3 2.1-2 3.1-.8z" fill="#fff"/><path d="m382.6 283.2c1.9 0 3.5 1.6 3.5 3.5v136.7 1.5c-.8 13.4-12.3 23.6-25.7 22.7-12.9-.8-22.7-12.2-22.7-25.2v-135.7c0-1.9 1.6-3.5 3.5-3.5z" fill="#354470"/></svg>